<?xml version="1.0" standalone="no"?><svg xmlns:xlink="http://www.w3.org/1999/xlink" xmlns="http://www.w3.org/2000/svg" viewBox="0 0 1000 583.3351625436266" preserveAspectRatio="xMaxYMax slice"><g transform="scale(1.3719077199991219)"><rect x="0" y="0" width="728.9142857142858" height="425.20000000000005" fill="#ffffff"/><rect x="0" y="0" width="60.74285714285715" height="60.74285714285715" fill="#ffffff"/><rect x="0" y="0" width="30.37" height="30.37" fill="#fffdd5"/><g transform="translate(0,0) scale(1.5185) rotate(0)"><path d="M10 5L5 0L0 5L5 10L0 15L5 20L10 15L15 20L20 15L15 10L20 5L15 0L10 5Z" fill="#e3fdf8"/></g><rect x="30.37" y="0" width="30.37" height="30.37" fill="#fffef2"/><path d="M 30.37 30.37 A 30.37 30.37 0 0 0 60.74 0 L 30.37 0L30.37 30.37" fill="#aefaeb"/><rect x="0" y="30.37" width="30.37" height="30.37" fill="#abfaea"/><polygon points="0,30.37 30.37,60.74 0,60.74" fill="#19b904"/><rect x="30.37" y="30.37" width="30.37" height="30.37" fill="#8adc80"/><g transform="translate(30.37,30.37) scale(1.5185) rotate(0)"><path d="M10 1L12.2451 7.90983H19.5106L13.6327 12.1803L15.8779 19.0902L10 14.8197L4.12215 19.0902L6.36729 12.1803L0.489441 7.90983H7.75487L10 1Z" fill="#7cf7df"/></g><rect x="60.74285714285715" y="0" width="60.74285714285715" height="60.74285714285715" fill="#ffffff"/><rect x="60.74" y="0" width="30.37" height="30.37" fill="#4af4d2"/><path d="M 60.74 0 A 30.37 30.37 0 0 0 91.11 30.37 L 91.11 0L60.74 0" fill="#fffcc3"/><rect x="91.11" y="0" width="30.37" height="30.37" fill="#c9efc4"/><g transform="translate(91.11,0) scale(1.5185) rotate(0)"><path d="M10 5L5 0L0 5L5 10L0 15L5 20L10 15L15 20L20 15L15 10L20 5L15 0L10 5Z" fill="#fef998"/></g><rect x="60.74" y="30.37" width="30.37" height="30.37" fill="#e3f6e0"/><polygon points="60.74,30.37 91.11,30.37 60.74,60.74" fill="#fef668"/><rect x="91.11" y="30.37" width="30.37" height="30.37" fill="#d4f2d1"/><g transform="translate(91.11,30.37) scale(1.5185) rotate(0)"><path d="M10 1L12.2451 7.90983H19.5106L13.6327 12.1803L15.8779 19.0902L10 14.8197L4.12215 19.0902L6.36729 12.1803L0.489441 7.90983H7.75487L10 1Z" fill="#f1fbef"/></g><rect x="121.49" y="0" width="60.74" height="60.74" fill="#2abe17"/><circle cx="151.85999999999999" cy="30.37" r="30.37" fill="#88db7d"/><rect x="182.23" y="0" width="60.74" height="60.74" fill="#fef440"/><g transform="translate(182.23,0) scale(3.037) rotate(0)"><path d="M10 1L12.2451 7.90983H19.5106L13.6327 12.1803L15.8779 19.0902L10 14.8197L4.12215 19.0902L6.36729 12.1803L0.489441 7.90983H7.75487L10 1Z" fill="#8bf8e2"/></g><rect x="242.9714285714286" y="0" width="60.74285714285715" height="60.74285714285715" fill="#ffffff"/><rect x="242.97" y="0" width="30.37" height="30.37" fill="#fffeee"/><circle cx="258.155" cy="15.185" r="15.185" fill="#bafbee"/><rect x="273.34" y="0" width="30.37" height="30.37" fill="#e2fdf8"/><polygon points="273.34,0 303.71,30.37 273.34,30.37" fill="#fef99a"/><rect x="242.97" y="30.37" width="30.37" height="30.37" fill="#32f3cc"/><path d="M 242.97 30.37 A 30.37 30.37 0 0 1 273.34 60.74 L 242.97 60.74L242.97 30.37" fill="#fef76d"/><rect x="273.34" y="30.37" width="30.37" height="30.37" fill="#bffbef"/><circle cx="288.525" cy="45.555" r="15.185" fill="#64d056"/><rect x="303.7142857142857" y="0" width="60.74285714285715" height="60.74285714285715" fill="#ffffff"/><rect x="303.71" y="0" width="30.37" height="30.37" fill="#aafaea"/><path d="M 303.71 30.37 A 30.37 30.37 0 0 1  334.08 0 L 303.71 30.37 A 30.37 30.37 0 0 0 334.08 0" fill="#fef441"/><rect x="334.09" y="0" width="30.37" height="30.37" fill="#fef997"/><rect x="334.09" y="0" width="30.37" height="30.37" fill="#a1fae8"/><rect x="303.71" y="30.37" width="30.37" height="30.37" fill="#fffef3"/><g transform="translate(303.71,30.37) scale(1.5185) rotate(0)"><path d="M10 1L12.2451 7.90983H19.5106L13.6327 12.1803L15.8779 19.0902L10 14.8197L4.12215 19.0902L6.36729 12.1803L0.489441 7.90983H7.75487L10 1Z" fill="#fffef2"/></g><rect x="334.09" y="30.37" width="30.37" height="30.37" fill="#6ad25d"/><rect x="334.09" y="30.37" width="30.37" height="30.37" fill="#90f9e4"/><rect x="364.46" y="0" width="60.74" height="60.74" fill="#fffcc2"/><g transform="translate(364.46,0) scale(3.037) rotate(0)"><path d="M10 5L5 0L0 5L5 10L0 15L5 20L10 15L15 20L20 15L15 10L20 5L15 0L10 5Z" fill="#34c122"/></g><rect x="425.2" y="0" width="60.74" height="60.74" fill="#85da7a"/><path d="M 425.2 0 A 60.74 60.74 0 0 0 485.94 60.74 L 485.94 0L425.2 0" fill="#bafbee"/><rect x="485.9428571428572" y="0" width="60.74285714285715" height="60.74285714285715" fill="#ffffff"/><rect x="485.94" y="0" width="30.37" height="30.37" fill="#fef444"/><rect x="485.94" y="0" width="30.37" height="30.37" fill="#aafaea"/><rect x="516.31" y="0" width="30.37" height="30.37" fill="#fffaa9"/><path d="M 516.31 30.37 A 30.37 30.37 0 0 1  546.68 0 L 516.31 30.37 A 30.37 30.37 0 0 0 546.68 0" fill="#8bdc80"/><rect x="485.94" y="30.37" width="30.37" height="30.37" fill="#d0f1cc"/><polygon points="485.94,30.37 516.31,30.37 516.31,60.74" fill="#91de87"/><rect x="516.31" y="30.37" width="30.37" height="30.37" fill="#f8fffd"/><rect x="516.31" y="30.37" width="30.37" height="30.37" fill="#6ed361"/><rect x="546.69" y="0" width="60.74" height="60.74" fill="#fffffc"/><path d="M 546.69 0 A 60.74 60.74 0 0 1  607.4300000000001 60.74 L 546.69 0 A 60.74 60.74 0 0 0 607.4300000000001 60.74" fill="#fafefa"/><rect x="607.4285714285714" y="0" width="60.74285714285715" height="60.74285714285715" fill="#ffffff"/><rect x="607.43" y="0" width="30.37" height="30.37" fill="#fffdd8"/><circle cx="622.6149999999999" cy="15.185" r="15.185" fill="#fef77b"/><rect x="637.8" y="0" width="30.37" height="30.37" fill="#fef76e"/><g transform="translate(637.8,0) scale(1.5185) rotate(0)"><path d="M10 5L5 0L0 5L5 10L0 15L5 20L10 15L15 20L20 15L15 10L20 5L15 0L10 5Z" fill="#3bc329"/></g><rect x="607.43" y="30.37" width="30.37" height="30.37" fill="#20bb0c"/><g transform="translate(607.43,30.37) scale(1.5185) rotate(0)"><path d="M10 5L5 0L0 5L5 10L0 15L5 20L10 15L15 20L20 15L15 10L20 5L15 0L10 5Z" fill="#97df8d"/></g><rect x="637.8" y="30.37" width="30.37" height="30.37" fill="#fef779"/><rect x="637.8" y="30.37" width="30.37" height="30.37" fill="#fef87e"/><rect x="668.1714285714286" y="0" width="60.74285714285715" height="60.74285714285715" fill="#ffffff"/><rect x="668.17" y="0" width="30.37" height="30.37" fill="#dafdf6"/><path d="M 668.17 0 A 30.37 30.37 0 0 1 698.54 30.37 L 668.17 30.37L668.17 0" fill="#fffbb3"/><rect x="698.54" y="0" width="30.37" height="30.37" fill="#fffcc9"/><path d="M 698.54 30.37 A 30.37 30.37 0 0 0 728.91 0 L 698.54 0L698.54 30.37" fill="#d2f1ce"/><rect x="668.17" y="30.37" width="30.37" height="30.37" fill="#6fd362"/><path d="M 668.17 30.37 A 30.37 30.37 0 0 1  698.54 60.74 L 668.17 30.37 A 30.37 30.37 0 0 0 698.54 60.74" fill="#b5fbed"/><rect x="698.54" y="30.37" width="30.37" height="30.37" fill="#fef440"/><rect x="698.54" y="30.37" width="30.37" height="30.37" fill="#42c631"/><rect x="0" y="60.74285714285715" width="60.74285714285715" height="60.74285714285715" fill="#ffffff"/><rect x="0" y="60.74" width="30.37" height="30.37" fill="#3af4ce"/><g transform="translate(0,60.74) scale(1.5185) rotate(0)"><path d="M10 1L12.2451 7.90983H19.5106L13.6327 12.1803L15.8779 19.0902L10 14.8197L4.12215 19.0902L6.36729 12.1803L0.489441 7.90983H7.75487L10 1Z" fill="#80f8e0"/></g><rect x="30.37" y="60.74" width="30.37" height="30.37" fill="#a5fae9"/><circle cx="45.555" cy="75.925" r="15.185" fill="#d2f1ce"/><rect x="0" y="91.11" width="30.37" height="30.37" fill="#fef87c"/><rect x="0" y="91.11" width="30.37" height="30.37" fill="#d2fcf4"/><rect x="30.37" y="91.11" width="30.37" height="30.37" fill="#fef880"/><path d="M 30.37 91.11 A 30.37 30.37 0 0 1 60.74 121.48 L 30.37 121.48L30.37 91.11" fill="#42c631"/><rect x="60.74" y="60.74" width="60.74" height="60.74" fill="#fef888"/><polygon points="121.48,60.74 121.48,121.48 60.74,121.48" fill="#edfaec"/><rect x="121.49" y="60.74" width="60.74" height="60.74" fill="#fef880"/><circle cx="151.85999999999999" cy="91.11" r="30.37" fill="#d2f1ce"/><rect x="182.23" y="60.74" width="60.74" height="60.74" fill="#fffbb5"/><g transform="translate(182.23,60.74) scale(3.037) rotate(0)"><path d="M10 1L12.2451 7.90983H19.5106L13.6327 12.1803L15.8779 19.0902L10 14.8197L4.12215 19.0902L6.36729 12.1803L0.489441 7.90983H7.75487L10 1Z" fill="#eefaed"/></g><rect x="242.9714285714286" y="60.74285714285715" width="60.74285714285715" height="60.74285714285715" fill="#ffffff"/><rect x="242.97" y="60.74" width="30.37" height="30.37" fill="#fffddf"/><path d="M 242.97 60.74 A 30.37 30.37 0 0 1  273.34 91.11 L 242.97 60.74 A 30.37 30.37 0 0 0 273.34 91.11" fill="#fef98e"/><rect x="273.34" y="60.74" width="30.37" height="30.37" fill="#66f6d9"/><g transform="translate(273.34,60.74) scale(1.5185) rotate(0)"><path d="M10 1L12.2451 7.90983H19.5106L13.6327 12.1803L15.8779 19.0902L10 14.8197L4.12215 19.0902L6.36729 12.1803L0.489441 7.90983H7.75487L10 1Z" fill="#fffcd1"/></g><rect x="242.97" y="91.11" width="30.37" height="30.37" fill="#1dbb09"/><rect x="242.97" y="91.11" width="30.37" height="30.37" fill="#58cc48"/><rect x="273.34" y="91.11" width="30.37" height="30.37" fill="#24bc10"/><g transform="translate(273.34,91.11) scale(1.5185) rotate(0)"><path d="M10 1L12.2451 7.90983H19.5106L13.6327 12.1803L15.8779 19.0902L10 14.8197L4.12215 19.0902L6.36729 12.1803L0.489441 7.90983H7.75487L10 1Z" fill="#95df8b"/></g><rect x="303.71" y="60.74" width="60.74" height="60.74" fill="#58f5d6"/><circle cx="334.08" cy="91.11" r="30.37" fill="#27be14"/><rect x="364.4571428571429" y="60.74285714285715" width="60.74285714285715" height="60.74285714285715" fill="#ffffff"/><rect x="364.46" y="60.74" width="30.37" height="30.37" fill="#bdebb7"/><polygon points="394.83,60.74 394.83,91.11 364.46,91.11" fill="#50f5d4"/><rect x="394.83" y="60.74" width="30.37" height="30.37" fill="#fef663"/><g transform="translate(394.83,60.74) scale(1.5185) rotate(0)"><path d="M10 5L5 0L0 5L5 10L0 15L5 20L10 15L15 20L20 15L15 10L20 5L15 0L10 5Z" fill="#fef665"/></g><rect x="364.46" y="91.11" width="30.37" height="30.37" fill="#befbef"/><g transform="translate(364.46,91.11) scale(1.5185) rotate(0)"><path d="M10 5L5 0L0 5L5 10L0 15L5 20L10 15L15 20L20 15L15 10L20 5L15 0L10 5Z" fill="#c1ecbc"/></g><rect x="394.83" y="91.11" width="30.37" height="30.37" fill="#5df6d7"/><circle cx="410.015" cy="106.295" r="15.185" fill="#fffaa9"/><rect x="425.2" y="60.74" width="60.74" height="60.74" fill="#e2fdf8"/><g transform="translate(425.2,60.74) scale(3.037) rotate(0)"><path d="M10 5L5 0L0 5L5 10L0 15L5 20L10 15L15 20L20 15L15 10L20 5L15 0L10 5Z" fill="#dbf4d8"/></g><rect x="485.9428571428572" y="60.74285714285715" width="60.74285714285715" height="60.74285714285715" fill="#ffffff"/><rect x="485.94" y="60.74" width="30.37" height="30.37" fill="#fffccf"/><rect x="485.94" y="60.74" width="30.37" height="30.37" fill="#72f7dc"/><rect x="516.31" y="60.74" width="30.37" height="30.37" fill="#fef881"/><g transform="translate(516.31,60.74) scale(1.5185) rotate(0)"><path d="M10 5L5 0L0 5L5 10L0 15L5 20L10 15L15 20L20 15L15 10L20 5L15 0L10 5Z" fill="#fef548"/></g><rect x="485.94" y="91.11" width="30.37" height="30.37" fill="#33f3cd"/><path d="M 485.94 91.11 A 30.37 30.37 0 0 1 516.31 121.48 L 485.94 121.48L485.94 91.11" fill="#b0e7a9"/><rect x="516.31" y="91.11" width="30.37" height="30.37" fill="#fef664"/><g transform="translate(516.31,91.11) scale(1.5185) rotate(0)"><path d="M10 5L5 0L0 5L5 10L0 15L5 20L10 15L15 20L20 15L15 10L20 5L15 0L10 5Z" fill="#fef441"/></g><rect x="546.69" y="60.74" width="60.74" height="60.74" fill="#a0e298"/><polygon points="546.69,60.74 607.4300000000001,60.74 546.69,121.48" fill="#fef99d"/><rect x="607.43" y="60.74" width="60.74" height="60.74" fill="#2ec01b"/><circle cx="637.8" cy="91.11" r="30.37" fill="#fef549"/><rect x="668.17" y="60.74" width="60.74" height="60.74" fill="#fffcce"/><g transform="translate(668.17,60.74) scale(3.037) rotate(0)"><path d="M10 5L5 0L0 5L5 10L0 15L5 20L10 15L15 20L20 15L15 10L20 5L15 0L10 5Z" fill="#52f5d4"/></g><rect x="0" y="121.49" width="60.74" height="60.74" fill="#4df5d3"/><g transform="translate(0,121.49) scale(3.037) rotate(0)"><path d="M10 5L5 0L0 5L5 10L0 15L5 20L10 15L15 20L20 15L15 10L20 5L15 0L10 5Z" fill="#fffaa6"/></g><rect x="60.74285714285715" y="121.4857142857143" width="60.74285714285715" height="60.74285714285715" fill="#ffffff"/><rect x="60.74" y="121.49" width="30.37" height="30.37" fill="#67f6da"/><g transform="translate(60.74,121.49) scale(1.5185) rotate(0)"><path d="M10 5L5 0L0 5L5 10L0 15L5 20L10 15L15 20L20 15L15 10L20 5L15 0L10 5Z" fill="#fef99a"/></g><rect x="91.11" y="121.49" width="30.37" height="30.37" fill="#52cb43"/><g transform="translate(91.11,121.49) scale(1.5185) rotate(0)"><path d="M10 5L5 0L0 5L5 10L0 15L5 20L10 15L15 20L20 15L15 10L20 5L15 0L10 5Z" fill="#fffccb"/></g><rect x="60.74" y="151.86" width="30.37" height="30.37" fill="#b7e9b0"/><polygon points="60.74,151.86 91.11,182.23000000000002 60.74,182.23000000000002" fill="#fffdd6"/><rect x="91.11" y="151.86" width="30.37" height="30.37" fill="#fffaa1"/><rect x="91.11" y="151.86" width="30.37" height="30.37" fill="#a7fae9"/><rect x="121.49" y="121.49" width="60.74" height="60.74" fill="#fffaa6"/><circle cx="151.85999999999999" cy="151.85999999999999" r="30.37" fill="#fef87c"/><rect x="182.23" y="121.49" width="60.74" height="60.74" fill="#edfefb"/><rect x="182.23" y="121.49" width="60.74" height="60.74" fill="#2bbf18"/><rect x="242.97" y="121.49" width="60.74" height="60.74" fill="#fffee9"/><g transform="translate(242.97,121.49) scale(3.037) rotate(0)"><path d="M10 5L5 0L0 5L5 10L0 15L5 20L10 15L15 20L20 15L15 10L20 5L15 0L10 5Z" fill="#fef54d"/></g><rect x="303.71" y="121.49" width="60.74" height="60.74" fill="#fef666"/><g transform="translate(303.71,121.49) scale(3.037) rotate(0)"><path d="M10 1L12.2451 7.90983H19.5106L13.6327 12.1803L15.8779 19.0902L10 14.8197L4.12215 19.0902L6.36729 12.1803L0.489441 7.90983H7.75487L10 1Z" fill="#a1e298"/></g><rect x="364.4571428571429" y="121.4857142857143" width="60.74285714285715" height="60.74285714285715" fill="#ffffff"/><rect x="364.46" y="121.49" width="30.37" height="30.37" fill="#fffff8"/><polygon points="364.46,121.49 394.83,151.85999999999999 364.46,151.85999999999999" fill="#d5fdf5"/><rect x="394.83" y="121.49" width="30.37" height="30.37" fill="#32c120"/><rect x="394.83" y="121.49" width="30.37" height="30.37" fill="#cdf0c9"/><rect x="364.46" y="151.86" width="30.37" height="30.37" fill="#e5f7e3"/><polygon points="364.46,151.86 394.83,182.23000000000002 364.46,182.23000000000002" fill="#5cce4e"/><rect x="394.83" y="151.86" width="30.37" height="30.37" fill="#fef556"/><g transform="translate(394.83,151.86) scale(1.5185) rotate(0)"><path d="M10 1L12.2451 7.90983H19.5106L13.6327 12.1803L15.8779 19.0902L10 14.8197L4.12215 19.0902L6.36729 12.1803L0.489441 7.90983H7.75487L10 1Z" fill="#f6fffd"/></g><rect x="425.20000000000005" y="121.4857142857143" width="60.74285714285715" height="60.74285714285715" fill="#ffffff"/><rect x="425.2" y="121.49" width="30.37" height="30.37" fill="#fffbb0"/><polygon points="425.2,121.49 455.57,121.49 425.2,151.85999999999999" fill="#3df4cf"/><rect x="455.57" y="121.49" width="30.37" height="30.37" fill="#91f9e4"/><rect x="455.57" y="121.49" width="30.37" height="30.37" fill="#6fd362"/><rect x="425.2" y="151.86" width="30.37" height="30.37" fill="#fffef6"/><circle cx="440.385" cy="167.04500000000002" r="15.185" fill="#5bcd4c"/><rect x="455.57" y="151.86" width="30.37" height="30.37" fill="#fcfefb"/><g transform="translate(455.57,151.86) scale(1.5185) rotate(0)"><path d="M10 1L12.2451 7.90983H19.5106L13.6327 12.1803L15.8779 19.0902L10 14.8197L4.12215 19.0902L6.36729 12.1803L0.489441 7.90983H7.75487L10 1Z" fill="#fef88b"/></g><rect x="485.9428571428572" y="121.4857142857143" width="60.74285714285715" height="60.74285714285715" fill="#ffffff"/><rect x="485.94" y="121.49" width="30.37" height="30.37" fill="#24bc10"/><rect x="485.94" y="121.49" width="30.37" height="30.37" fill="#fffcc9"/><rect x="516.31" y="121.49" width="30.37" height="30.37" fill="#24bd10"/><polygon points="546.68,121.49 546.68,151.85999999999999 516.31,151.85999999999999" fill="#fef888"/><rect x="485.94" y="151.86" width="30.37" height="30.37" fill="#e6fef9"/><polygon points="516.31,151.86 516.31,182.23000000000002 485.94,182.23000000000002" fill="#edfefb"/><rect x="516.31" y="151.86" width="30.37" height="30.37" fill="#fef553"/><polygon points="546.68,151.86 546.68,182.23000000000002 516.31,182.23000000000002" fill="#4ef5d3"/><rect x="546.6857142857143" y="121.4857142857143" width="60.74285714285715" height="60.74285714285715" fill="#ffffff"/><rect x="546.69" y="121.49" width="30.37" height="30.37" fill="#91f9e4"/><g transform="translate(546.69,121.49) scale(1.5185) rotate(0)"><path d="M10 5L5 0L0 5L5 10L0 15L5 20L10 15L15 20L20 15L15 10L20 5L15 0L10 5Z" fill="#9cf9e7"/></g><rect x="577.06" y="121.49" width="30.37" height="30.37" fill="#c6eec1"/><circle cx="592.2449999999999" cy="136.67499999999998" r="15.185" fill="#fffaa0"/><rect x="546.69" y="151.86" width="30.37" height="30.37" fill="#d4fcf4"/><rect x="546.69" y="151.86" width="30.37" height="30.37" fill="#fffaa9"/><rect x="577.06" y="151.86" width="30.37" height="30.37" fill="#40f4d0"/><g transform="translate(577.06,151.86) scale(1.5185) rotate(0)"><path d="M10 5L5 0L0 5L5 10L0 15L5 20L10 15L15 20L20 15L15 10L20 5L15 0L10 5Z" fill="#d1f1cd"/></g><rect x="607.4285714285714" y="121.4857142857143" width="60.74285714285715" height="60.74285714285715" fill="#ffffff"/><rect x="607.43" y="121.49" width="30.37" height="30.37" fill="#79d66d"/><path d="M 607.43 121.49 A 30.37 30.37 0 0 1 637.8 151.85999999999999 L 607.43 151.85999999999999L607.43 121.49" fill="#99e090"/><rect x="637.8" y="121.49" width="30.37" height="30.37" fill="#b6e9af"/><path d="M 637.8 121.49 A 30.37 30.37 0 0 0 668.17 151.85999999999999 L 668.17 121.49L637.8 121.49" fill="#52cb43"/><rect x="607.43" y="151.86" width="30.37" height="30.37" fill="#fffddb"/><path d="M 607.43 182.23000000000002 A 30.37 30.37 0 0 1  637.8 151.86 L 607.43 182.23000000000002 A 30.37 30.37 0 0 0 637.8 151.86" fill="#79f7de"/><rect x="637.8" y="151.86" width="30.37" height="30.37" fill="#e3fdf8"/><path d="M 637.8 182.23000000000002 A 30.37 30.37 0 0 1  668.17 151.86 L 668.17 182.23000000000002L637.8 182.23000000000002" fill="#e6fef9"/><rect x="668.1714285714286" y="121.4857142857143" width="60.74285714285715" height="60.74285714285715" fill="#ffffff"/><rect x="668.17" y="121.49" width="30.37" height="30.37" fill="#48f4d2"/><polygon points="698.54,121.49 698.54,151.85999999999999 668.17,151.85999999999999" fill="#fef76c"/><rect x="698.54" y="121.49" width="30.37" height="30.37" fill="#6ef7db"/><g transform="translate(698.54,121.49) scale(1.5185) rotate(0)"><path d="M10 1L12.2451 7.90983H19.5106L13.6327 12.1803L15.8779 19.0902L10 14.8197L4.12215 19.0902L6.36729 12.1803L0.489441 7.90983H7.75487L10 1Z" fill="#89db7e"/></g><rect x="668.17" y="151.86" width="30.37" height="30.37" fill="#fef889"/><path d="M 668.17 151.86 A 30.37 30.37 0 0 1 698.54 182.23000000000002 L 668.17 182.23000000000002L668.17 151.86" fill="#61f6d8"/><rect x="698.54" y="151.86" width="30.37" height="30.37" fill="#f4fefc"/><g transform="translate(698.54,151.86) scale(1.5185) rotate(0)"><path d="M10 5L5 0L0 5L5 10L0 15L5 20L10 15L15 20L20 15L15 10L20 5L15 0L10 5Z" fill="#51f5d4"/></g><rect x="0" y="182.22857142857146" width="60.74285714285715" height="60.74285714285715" fill="#ffffff"/><rect x="0" y="182.23" width="30.37" height="30.37" fill="#8edd84"/><polygon points="0,182.23 30.37,212.6 0,212.6" fill="#fef998"/><rect x="30.37" y="182.23" width="30.37" height="30.37" fill="#31c11f"/><rect x="30.37" y="182.23" width="30.37" height="30.37" fill="#34f3cd"/><rect x="0" y="212.6" width="30.37" height="30.37" fill="#7bd770"/><rect x="0" y="212.6" width="30.37" height="30.37" fill="#caefc5"/><rect x="30.37" y="212.6" width="30.37" height="30.37" fill="#fef777"/><g transform="translate(30.37,212.6) scale(1.5185) rotate(0)"><path d="M10 5L5 0L0 5L5 10L0 15L5 20L10 15L15 20L20 15L15 10L20 5L15 0L10 5Z" fill="#98f9e6"/></g><rect x="60.74285714285715" y="182.22857142857146" width="60.74285714285715" height="60.74285714285715" fill="#ffffff"/><rect x="60.74" y="182.23" width="30.37" height="30.37" fill="#fef882"/><circle cx="75.925" cy="197.415" r="15.185" fill="#b3e8ad"/><rect x="91.11" y="182.23" width="30.37" height="30.37" fill="#5cce4d"/><circle cx="106.295" cy="197.415" r="15.185" fill="#fef773"/><rect x="60.74" y="212.6" width="30.37" height="30.37" fill="#fef98f"/><rect x="60.74" y="212.6" width="30.37" height="30.37" fill="#fffdd6"/><rect x="91.11" y="212.6" width="30.37" height="30.37" fill="#c4edbe"/><path d="M 91.11 242.97 A 30.37 30.37 0 0 0 121.48 212.6 L 91.11 212.6L91.11 242.97" fill="#8af8e2"/><rect x="121.49" y="182.23" width="60.74" height="60.74" fill="#fef54c"/><polygon points="182.23,182.23 182.23,242.97 121.49,242.97" fill="#fffef3"/><rect x="182.22857142857146" y="182.22857142857146" width="60.74285714285715" height="60.74285714285715" fill="#ffffff"/><rect x="182.23" y="182.23" width="30.37" height="30.37" fill="#85f8e1"/><path d="M 182.23 182.23 A 30.37 30.37 0 0 1  212.6 212.6 L 182.23 182.23 A 30.37 30.37 0 0 0 212.6 212.6" fill="#fffde4"/><rect x="212.6" y="182.23" width="30.37" height="30.37" fill="#a7fae9"/><path d="M 212.6 182.23 A 30.37 30.37 0 0 1  242.97 212.6 L 212.6 182.23 A 30.37 30.37 0 0 0 242.97 212.6" fill="#fffeee"/><rect x="182.23" y="212.6" width="30.37" height="30.37" fill="#8af8e2"/><polygon points="182.23,212.6 212.6,242.97 182.23,242.97" fill="#fffde2"/><rect x="212.6" y="212.6" width="30.37" height="30.37" fill="#bdebb7"/><path d="M 212.6 242.97 A 30.37 30.37 0 0 1  242.97 212.6 L 242.97 242.97L212.6 242.97" fill="#34c122"/><rect x="242.9714285714286" y="182.22857142857146" width="60.74285714285715" height="60.74285714285715" fill="#ffffff"/><rect x="242.97" y="182.23" width="30.37" height="30.37" fill="#71f7dc"/><g transform="translate(242.97,182.23) scale(1.5185) rotate(0)"><path d="M10 5L5 0L0 5L5 10L0 15L5 20L10 15L15 20L20 15L15 10L20 5L15 0L10 5Z" fill="#fffdda"/></g><rect x="273.34" y="182.23" width="30.37" height="30.37" fill="#3ec42c"/><circle cx="288.525" cy="197.415" r="15.185" fill="#5df6d7"/><rect x="242.97" y="212.6" width="30.37" height="30.37" fill="#defdf7"/><g transform="translate(242.97,212.6) scale(1.5185) rotate(0)"><path d="M10 1L12.2451 7.90983H19.5106L13.6327 12.1803L15.8779 19.0902L10 14.8197L4.12215 19.0902L6.36729 12.1803L0.489441 7.90983H7.75487L10 1Z" fill="#4af5d2"/></g><rect x="273.34" y="212.6" width="30.37" height="30.37" fill="#57cc48"/><circle cx="288.525" cy="227.785" r="15.185" fill="#fef556"/><rect x="303.71" y="182.23" width="60.74" height="60.74" fill="#89f8e2"/><polygon points="364.45,182.23 364.45,242.97 303.71,242.97" fill="#5bf5d7"/><rect x="364.4571428571429" y="182.22857142857146" width="60.74285714285715" height="60.74285714285715" fill="#ffffff"/><rect x="364.46" y="182.23" width="30.37" height="30.37" fill="#fffcc6"/><polygon points="364.46,182.23 394.83,182.23 364.46,212.6" fill="#b5e9af"/><rect x="394.83" y="182.23" width="30.37" height="30.37" fill="#e7f8e5"/><g transform="translate(394.83,182.23) scale(1.5185) rotate(0)"><path d="M10 1L12.2451 7.90983H19.5106L13.6327 12.1803L15.8779 19.0902L10 14.8197L4.12215 19.0902L6.36729 12.1803L0.489441 7.90983H7.75487L10 1Z" fill="#5acd4c"/></g><rect x="364.46" y="212.6" width="30.37" height="30.37" fill="#5df6d7"/><g transform="translate(364.46,212.6) scale(1.5185) rotate(0)"><path d="M10 1L12.2451 7.90983H19.5106L13.6327 12.1803L15.8779 19.0902L10 14.8197L4.12215 19.0902L6.36729 12.1803L0.489441 7.90983H7.75487L10 1Z" fill="#c0ecba"/></g><rect x="394.83" y="212.6" width="30.37" height="30.37" fill="#fffeed"/><circle cx="410.015" cy="227.785" r="15.185" fill="#fef54f"/><rect x="425.2" y="182.23" width="60.74" height="60.74" fill="#9af9e6"/><g transform="translate(425.2,182.23) scale(3.037) rotate(0)"><path d="M10 5L5 0L0 5L5 10L0 15L5 20L10 15L15 20L20 15L15 10L20 5L15 0L10 5Z" fill="#fef997"/></g><rect x="485.9428571428572" y="182.22857142857146" width="60.74285714285715" height="60.74285714285715" fill="#ffffff"/><rect x="485.94" y="182.23" width="30.37" height="30.37" fill="#fef87b"/><g transform="translate(485.94,182.23) scale(1.5185) rotate(0)"><path d="M10 1L12.2451 7.90983H19.5106L13.6327 12.1803L15.8779 19.0902L10 14.8197L4.12215 19.0902L6.36729 12.1803L0.489441 7.90983H7.75487L10 1Z" fill="#46f4d1"/></g><rect x="516.31" y="182.23" width="30.37" height="30.37" fill="#68f6da"/><g transform="translate(516.31,182.23) scale(1.5185) rotate(0)"><path d="M10 5L5 0L0 5L5 10L0 15L5 20L10 15L15 20L20 15L15 10L20 5L15 0L10 5Z" fill="#5df6d7"/></g><rect x="485.94" y="212.6" width="30.37" height="30.37" fill="#38c326"/><g transform="translate(485.94,212.6) scale(1.5185) rotate(0)"><path d="M10 5L5 0L0 5L5 10L0 15L5 20L10 15L15 20L20 15L15 10L20 5L15 0L10 5Z" fill="#fffddb"/></g><rect x="516.31" y="212.6" width="30.37" height="30.37" fill="#b2e8ab"/><circle cx="531.4949999999999" cy="227.785" r="15.185" fill="#fef771"/><rect x="546.6857142857143" y="182.22857142857146" width="60.74285714285715" height="60.74285714285715" fill="#ffffff"/><rect x="546.69" y="182.23" width="30.37" height="30.37" fill="#6ff7dc"/><polygon points="546.69,182.23 577.0600000000001,182.23 577.0600000000001,212.6" fill="#d7fdf5"/><rect x="577.06" y="182.23" width="30.37" height="30.37" fill="#c9fcf2"/><path d="M 577.06 182.23 A 30.37 30.37 0 0 0 607.43 212.6 L 607.43 182.23L577.06 182.23" fill="#5ece50"/><rect x="546.69" y="212.6" width="30.37" height="30.37" fill="#68d15a"/><rect x="546.69" y="212.6" width="30.37" height="30.37" fill="#fef98e"/><rect x="577.06" y="212.6" width="30.37" height="30.37" fill="#18b903"/><polygon points="607.43,212.6 607.43,242.97 577.06,242.97" fill="#fef549"/><rect x="607.43" y="182.23" width="60.74" height="60.74" fill="#8fdd85"/><circle cx="637.8" cy="212.6" r="30.37" fill="#17b902"/><rect x="668.1714285714286" y="182.22857142857146" width="60.74285714285715" height="60.74285714285715" fill="#ffffff"/><rect x="668.17" y="182.23" width="30.37" height="30.37" fill="#b8fbee"/><path d="M 668.17 182.23 A 30.37 30.37 0 0 1  698.54 212.6 L 668.17 182.23 A 30.37 30.37 0 0 0 698.54 212.6" fill="#58cc49"/><rect x="698.54" y="182.23" width="30.37" height="30.37" fill="#67f6da"/><g transform="translate(698.54,182.23) scale(1.5185) rotate(0)"><path d="M10 1L12.2451 7.90983H19.5106L13.6327 12.1803L15.8779 19.0902L10 14.8197L4.12215 19.0902L6.36729 12.1803L0.489441 7.90983H7.75487L10 1Z" fill="#43c632"/></g><rect x="668.17" y="212.6" width="30.37" height="30.37" fill="#84f8e1"/><path d="M 668.17 212.6 A 30.37 30.37 0 0 0 698.54 242.97 L 698.54 212.6L668.17 212.6" fill="#c9efc4"/><rect x="698.54" y="212.6" width="30.37" height="30.37" fill="#edf9eb"/><circle cx="713.7249999999999" cy="227.785" r="15.185" fill="#85da7a"/><rect x="0" y="242.9714285714286" width="60.74285714285715" height="60.74285714285715" fill="#ffffff"/><rect x="0" y="242.97" width="30.37" height="30.37" fill="#b0e7a9"/><g transform="translate(0,242.97) scale(1.5185) rotate(0)"><path d="M10 1L12.2451 7.90983H19.5106L13.6327 12.1803L15.8779 19.0902L10 14.8197L4.12215 19.0902L6.36729 12.1803L0.489441 7.90983H7.75487L10 1Z" fill="#2cbf19"/></g><rect x="30.37" y="242.97" width="30.37" height="30.37" fill="#6af6da"/><g transform="translate(30.37,242.97) scale(1.5185) rotate(0)"><path d="M10 5L5 0L0 5L5 10L0 15L5 20L10 15L15 20L20 15L15 10L20 5L15 0L10 5Z" fill="#66d058"/></g><rect x="0" y="273.34" width="30.37" height="30.37" fill="#fafffe"/><polygon points="0,273.34 30.37,273.34 30.37,303.71" fill="#18b903"/><rect x="30.37" y="273.34" width="30.37" height="30.37" fill="#54f5d5"/><g transform="translate(30.37,273.34) scale(1.5185) rotate(0)"><path d="M10 1L12.2451 7.90983H19.5106L13.6327 12.1803L15.8779 19.0902L10 14.8197L4.12215 19.0902L6.36729 12.1803L0.489441 7.90983H7.75487L10 1Z" fill="#e6fef9"/></g><rect x="60.74" y="242.97" width="60.74" height="60.74" fill="#fffbc0"/><polygon points="60.74,242.97 121.48,242.97 60.74,303.71" fill="#c2fbf0"/><rect x="121.49" y="242.97" width="60.74" height="60.74" fill="#5fce51"/><rect x="121.49" y="242.97" width="60.74" height="60.74" fill="#76f7dd"/><rect x="182.23" y="242.97" width="60.74" height="60.74" fill="#d6fdf5"/><path d="M 182.23 303.71 A 60.74 60.74 0 0 0 242.97 242.97 L 182.23 242.97L182.23 303.71" fill="#fffaa3"/><rect x="242.9714285714286" y="242.9714285714286" width="60.74285714285715" height="60.74285714285715" fill="#ffffff"/><rect x="242.97" y="242.97" width="30.37" height="30.37" fill="#25bd11"/><circle cx="258.155" cy="258.155" r="15.185" fill="#fef995"/><rect x="273.34" y="242.97" width="30.37" height="30.37" fill="#60cf51"/><path d="M 273.34 242.97 A 30.37 30.37 0 0 1  303.71 273.34 L 273.34 242.97 A 30.37 30.37 0 0 0 303.71 273.34" fill="#fefffe"/><rect x="242.97" y="273.34" width="30.37" height="30.37" fill="#9cf9e7"/><polygon points="273.34,273.34 273.34,303.71 242.97,303.71" fill="#e3fdf8"/><rect x="273.34" y="273.34" width="30.37" height="30.37" fill="#a4e39b"/><polygon points="303.71,273.34 303.71,303.71 273.34,303.71" fill="#afe7a8"/><rect x="303.71" y="242.97" width="60.74" height="60.74" fill="#fffeea"/><path d="M 303.71 242.97 A 60.74 60.74 0 0 0 364.45 303.71 L 364.45 242.97L303.71 242.97" fill="#fef65d"/><rect x="364.4571428571429" y="242.9714285714286" width="60.74285714285715" height="60.74285714285715" fill="#ffffff"/><rect x="364.46" y="242.97" width="30.37" height="30.37" fill="#62f6d8"/><path d="M 364.46 242.97 A 30.37 30.37 0 0 1 394.83 273.34 L 364.46 273.34L364.46 242.97" fill="#fffaa2"/><rect x="394.83" y="242.97" width="30.37" height="30.37" fill="#dafdf6"/><polygon points="394.83,242.97 425.2,242.97 394.83,273.34" fill="#4bf5d3"/><rect x="364.46" y="273.34" width="30.37" height="30.37" fill="#fef776"/><circle cx="379.645" cy="288.525" r="15.185" fill="#fef65c"/><rect x="394.83" y="273.34" width="30.37" height="30.37" fill="#fef77b"/><polygon points="425.2,273.34 425.2,303.71 394.83,303.71" fill="#1dba08"/><rect x="425.2" y="242.97" width="60.74" height="60.74" fill="#fef884"/><polygon points="425.2,242.97 485.94,242.97 485.94,303.71" fill="#c8fcf1"/><rect x="485.94" y="242.97" width="60.74" height="60.74" fill="#fffffc"/><circle cx="516.31" cy="273.34" r="30.37" fill="#d2f1ce"/><rect x="546.69" y="242.97" width="60.74" height="60.74" fill="#6ad25d"/><g transform="translate(546.69,242.97) scale(3.037) rotate(0)"><path d="M10 1L12.2451 7.90983H19.5106L13.6327 12.1803L15.8779 19.0902L10 14.8197L4.12215 19.0902L6.36729 12.1803L0.489441 7.90983H7.75487L10 1Z" fill="#fffdde"/></g><rect x="607.4285714285714" y="242.9714285714286" width="60.74285714285715" height="60.74285714285715" fill="#ffffff"/><rect x="607.43" y="242.97" width="30.37" height="30.37" fill="#39c327"/><rect x="607.43" y="242.97" width="30.37" height="30.37" fill="#5cf6d7"/><rect x="637.8" y="242.97" width="30.37" height="30.37" fill="#7bf7de"/><polygon points="637.8,242.97 668.17,242.97 668.17,273.34" fill="#fef774"/><rect x="607.43" y="273.34" width="30.37" height="30.37" fill="#fef994"/><circle cx="622.6149999999999" cy="288.525" r="15.185" fill="#fef445"/><rect x="637.8" y="273.34" width="30.37" height="30.37" fill="#fbfffe"/><circle cx="652.9849999999999" cy="288.525" r="15.185" fill="#7bf7de"/><rect x="668.17" y="242.97" width="60.74" height="60.74" fill="#70f7dc"/><path d="M 668.17 303.71 A 60.74 60.74 0 0 1  728.91 242.97 L 728.91 303.71L668.17 303.71" fill="#4cf5d3"/><rect x="0" y="303.71" width="60.74" height="60.74" fill="#e8fef9"/><g transform="translate(0,303.71) scale(3.037) rotate(0)"><path d="M10 1L12.2451 7.90983H19.5106L13.6327 12.1803L15.8779 19.0902L10 14.8197L4.12215 19.0902L6.36729 12.1803L0.489441 7.90983H7.75487L10 1Z" fill="#fffbb5"/></g><rect x="60.74" y="303.71" width="60.74" height="60.74" fill="#fef776"/><polygon points="60.74,303.71 121.48,303.71 121.48,364.45" fill="#affaeb"/><rect x="121.49" y="303.71" width="60.74" height="60.74" fill="#fffbba"/><path d="M 121.49 303.71 A 60.74 60.74 0 0 1 182.23 364.45 L 121.49 364.45L121.49 303.71" fill="#fef99c"/><rect x="182.22857142857146" y="303.7142857142857" width="60.74285714285715" height="60.74285714285715" fill="#ffffff"/><rect x="182.23" y="303.71" width="30.37" height="30.37" fill="#fffbbd"/><path d="M 182.23 303.71 A 30.37 30.37 0 0 1  212.6 334.08 L 182.23 303.71 A 30.37 30.37 0 0 0 212.6 334.08" fill="#4ec93e"/><rect x="212.6" y="303.71" width="30.37" height="30.37" fill="#b9fbee"/><polygon points="212.6,303.71 242.97,334.08 212.6,334.08" fill="#f8fffd"/><rect x="182.23" y="334.09" width="30.37" height="30.37" fill="#45f4d1"/><path d="M 182.23 334.09 A 30.37 30.37 0 0 1  212.6 364.46 L 182.23 334.09 A 30.37 30.37 0 0 0 212.6 364.46" fill="#fef65f"/><rect x="212.6" y="334.09" width="30.37" height="30.37" fill="#59cd4b"/><g transform="translate(212.6,334.09) scale(1.5185) rotate(0)"><path d="M10 5L5 0L0 5L5 10L0 15L5 20L10 15L15 20L20 15L15 10L20 5L15 0L10 5Z" fill="#70f7dc"/></g><rect x="242.9714285714286" y="303.7142857142857" width="60.74285714285715" height="60.74285714285715" fill="#ffffff"/><rect x="242.97" y="303.71" width="30.37" height="30.37" fill="#cef0ca"/><g transform="translate(242.97,303.71) scale(1.5185) rotate(0)"><path d="M10 1L12.2451 7.90983H19.5106L13.6327 12.1803L15.8779 19.0902L10 14.8197L4.12215 19.0902L6.36729 12.1803L0.489441 7.90983H7.75487L10 1Z" fill="#5cce4d"/></g><rect x="273.34" y="303.71" width="30.37" height="30.37" fill="#34f3cd"/><path d="M 273.34 303.71 A 30.37 30.37 0 0 1 303.71 334.08 L 273.34 334.08L273.34 303.71" fill="#fffeea"/><rect x="242.97" y="334.09" width="30.37" height="30.37" fill="#fffcc7"/><circle cx="258.155" cy="349.275" r="15.185" fill="#fef660"/><rect x="273.34" y="334.09" width="30.37" height="30.37" fill="#bbfbee"/><path d="M 273.34 364.46 A 30.37 30.37 0 0 0 303.71 334.09 L 273.34 334.09L273.34 364.46" fill="#aafaea"/><rect x="303.71" y="303.71" width="60.74" height="60.74" fill="#ccf0c7"/><g transform="translate(303.71,303.71) scale(3.037) rotate(0)"><path d="M10 1L12.2451 7.90983H19.5106L13.6327 12.1803L15.8779 19.0902L10 14.8197L4.12215 19.0902L6.36729 12.1803L0.489441 7.90983H7.75487L10 1Z" fill="#fffaa0"/></g><rect x="364.4571428571429" y="303.7142857142857" width="60.74285714285715" height="60.74285714285715" fill="#ffffff"/><rect x="364.46" y="303.71" width="30.37" height="30.37" fill="#fffaab"/><polygon points="394.83,303.71 394.83,334.08 364.46,334.08" fill="#c8eec4"/><rect x="394.83" y="303.71" width="30.37" height="30.37" fill="#fef889"/><g transform="translate(394.83,303.71) scale(1.5185) rotate(0)"><path d="M10 1L12.2451 7.90983H19.5106L13.6327 12.1803L15.8779 19.0902L10 14.8197L4.12215 19.0902L6.36729 12.1803L0.489441 7.90983H7.75487L10 1Z" fill="#94de8a"/></g><rect x="364.46" y="334.09" width="30.37" height="30.37" fill="#52ca42"/><circle cx="379.645" cy="349.275" r="15.185" fill="#b7fbed"/><rect x="394.83" y="334.09" width="30.37" height="30.37" fill="#fef99a"/><polygon points="394.83,334.09 425.2,334.09 425.2,364.46" fill="#fffddb"/><rect x="425.2" y="303.71" width="60.74" height="60.74" fill="#40f4d0"/><g transform="translate(425.2,303.71) scale(3.037) rotate(0)"><path d="M10 1L12.2451 7.90983H19.5106L13.6327 12.1803L15.8779 19.0902L10 14.8197L4.12215 19.0902L6.36729 12.1803L0.489441 7.90983H7.75487L10 1Z" fill="#d3fcf4"/></g><rect x="485.94" y="303.71" width="60.74" height="60.74" fill="#bcebb6"/><g transform="translate(485.94,303.71) scale(3.037) rotate(0)"><path d="M10 5L5 0L0 5L5 10L0 15L5 20L10 15L15 20L20 15L15 10L20 5L15 0L10 5Z" fill="#25bd11"/></g><rect x="546.6857142857143" y="303.7142857142857" width="60.74285714285715" height="60.74285714285715" fill="#ffffff"/><rect x="546.69" y="303.71" width="30.37" height="30.37" fill="#42c631"/><circle cx="561.875" cy="318.895" r="15.185" fill="#affaeb"/><rect x="577.06" y="303.71" width="30.37" height="30.37" fill="#4cf5d3"/><g transform="translate(577.06,303.71) scale(1.5185) rotate(0)"><path d="M10 5L5 0L0 5L5 10L0 15L5 20L10 15L15 20L20 15L15 10L20 5L15 0L10 5Z" fill="#fffbb4"/></g><rect x="546.69" y="334.09" width="30.37" height="30.37" fill="#adfaeb"/><polygon points="546.69,334.09 577.0600000000001,334.09 577.0600000000001,364.46" fill="#6af6da"/><rect x="577.06" y="334.09" width="30.37" height="30.37" fill="#8edd84"/><circle cx="592.2449999999999" cy="349.275" r="15.185" fill="#fffaa4"/><rect x="607.43" y="303.71" width="60.74" height="60.74" fill="#9bf9e6"/><rect x="607.43" y="303.71" width="60.74" height="60.74" fill="#f6fcf5"/><rect x="668.1714285714286" y="303.7142857142857" width="60.74285714285715" height="60.74285714285715" fill="#ffffff"/><rect x="668.17" y="303.71" width="30.37" height="30.37" fill="#dafdf6"/><circle cx="683.3549999999999" cy="318.895" r="15.185" fill="#fef54e"/><rect x="698.54" y="303.71" width="30.37" height="30.37" fill="#ecf9eb"/><g transform="translate(698.54,303.71) scale(1.5185) rotate(0)"><path d="M10 1L12.2451 7.90983H19.5106L13.6327 12.1803L15.8779 19.0902L10 14.8197L4.12215 19.0902L6.36729 12.1803L0.489441 7.90983H7.75487L10 1Z" fill="#98e08e"/></g><rect x="668.17" y="334.09" width="30.37" height="30.37" fill="#83da78"/><circle cx="683.3549999999999" cy="349.275" r="15.185" fill="#fef777"/><rect x="698.54" y="334.09" width="30.37" height="30.37" fill="#3af4cf"/><g transform="translate(698.54,334.09) scale(1.5185) rotate(0)"><path d="M10 1L12.2451 7.90983H19.5106L13.6327 12.1803L15.8779 19.0902L10 14.8197L4.12215 19.0902L6.36729 12.1803L0.489441 7.90983H7.75487L10 1Z" fill="#d6fdf5"/></g><rect x="0" y="364.46" width="60.74" height="60.74" fill="#bbeab5"/><polygon points="0,364.46 60.74,364.46 0,425.2" fill="#86f8e1"/><rect x="60.74285714285715" y="364.4571428571429" width="60.74285714285715" height="60.74285714285715" fill="#ffffff"/><rect x="60.74" y="364.46" width="30.37" height="30.37" fill="#fef774"/><g transform="translate(60.74,364.46) scale(1.5185) rotate(0)"><path d="M10 1L12.2451 7.90983H19.5106L13.6327 12.1803L15.8779 19.0902L10 14.8197L4.12215 19.0902L6.36729 12.1803L0.489441 7.90983H7.75487L10 1Z" fill="#41f4d0"/></g><rect x="91.11" y="364.46" width="30.37" height="30.37" fill="#b3fbec"/><g transform="translate(91.11,364.46) scale(1.5185) rotate(0)"><path d="M10 5L5 0L0 5L5 10L0 15L5 20L10 15L15 20L20 15L15 10L20 5L15 0L10 5Z" fill="#fffffb"/></g><rect x="60.74" y="394.83" width="30.37" height="30.37" fill="#7ad76e"/><rect x="60.74" y="394.83" width="30.37" height="30.37" fill="#fef87c"/><rect x="91.11" y="394.83" width="30.37" height="30.37" fill="#bdfbef"/><path d="M 91.11 425.2 A 30.37 30.37 0 0 1  121.48 394.83 L 91.11 425.2 A 30.37 30.37 0 0 0 121.48 394.83" fill="#24bd11"/><rect x="121.4857142857143" y="364.4571428571429" width="60.74285714285715" height="60.74285714285715" fill="#ffffff"/><rect x="121.49" y="364.46" width="30.37" height="30.37" fill="#fef884"/><g transform="translate(121.49,364.46) scale(1.5185) rotate(0)"><path d="M10 1L12.2451 7.90983H19.5106L13.6327 12.1803L15.8779 19.0902L10 14.8197L4.12215 19.0902L6.36729 12.1803L0.489441 7.90983H7.75487L10 1Z" fill="#fffaa7"/></g><rect x="151.86" y="364.46" width="30.37" height="30.37" fill="#dbfdf6"/><circle cx="167.04500000000002" cy="379.645" r="15.185" fill="#51f5d4"/><rect x="121.49" y="394.83" width="30.37" height="30.37" fill="#bdebb7"/><g transform="translate(121.49,394.83) scale(1.5185) rotate(0)"><path d="M10 5L5 0L0 5L5 10L0 15L5 20L10 15L15 20L20 15L15 10L20 5L15 0L10 5Z" fill="#dff5dc"/></g><rect x="151.86" y="394.83" width="30.37" height="30.37" fill="#91f9e4"/><rect x="151.86" y="394.83" width="30.37" height="30.37" fill="#4bf5d3"/><rect x="182.22857142857146" y="364.4571428571429" width="60.74285714285715" height="60.74285714285715" fill="#ffffff"/><rect x="182.23" y="364.46" width="30.37" height="30.37" fill="#fffaae"/><g transform="translate(182.23,364.46) scale(1.5185) rotate(0)"><path d="M10 1L12.2451 7.90983H19.5106L13.6327 12.1803L15.8779 19.0902L10 14.8197L4.12215 19.0902L6.36729 12.1803L0.489441 7.90983H7.75487L10 1Z" fill="#fef662"/></g><rect x="212.6" y="364.46" width="30.37" height="30.37" fill="#c0ecba"/><path d="M 212.6 394.83 A 30.37 30.37 0 0 1  242.97 364.46 L 242.97 394.83L212.6 394.83" fill="#5df6d7"/><rect x="182.23" y="394.83" width="30.37" height="30.37" fill="#9de194"/><rect x="182.23" y="394.83" width="30.37" height="30.37" fill="#86f8e1"/><rect x="212.6" y="394.83" width="30.37" height="30.37" fill="#4af5d2"/><g transform="translate(212.6,394.83) scale(1.5185) rotate(0)"><path d="M10 1L12.2451 7.90983H19.5106L13.6327 12.1803L15.8779 19.0902L10 14.8197L4.12215 19.0902L6.36729 12.1803L0.489441 7.90983H7.75487L10 1Z" fill="#d5f2d1"/></g><rect x="242.97" y="364.46" width="60.74" height="60.74" fill="#a5e49d"/><polygon points="242.97,364.46 303.71,364.46 242.97,425.2" fill="#fef98f"/><rect x="303.7142857142857" y="364.4571428571429" width="60.74285714285715" height="60.74285714285715" fill="#ffffff"/><rect x="303.71" y="364.46" width="30.37" height="30.37" fill="#38f3ce"/><path d="M 303.71 364.46 A 30.37 30.37 0 0 0 334.08 394.83 L 334.08 364.46L303.71 364.46" fill="#e8f8e6"/><rect x="334.09" y="364.46" width="30.37" height="30.37" fill="#fef992"/><path d="M 334.09 394.83 A 30.37 30.37 0 0 1  364.46 364.46 L 364.46 394.83L334.09 394.83" fill="#fef441"/><rect x="303.71" y="394.83" width="30.37" height="30.37" fill="#77d66a"/><path d="M 303.71 425.2 A 30.37 30.37 0 0 1  334.08 394.83 L 334.08 425.2L303.71 425.2" fill="#fef774"/><rect x="334.09" y="394.83" width="30.37" height="30.37" fill="#fffaab"/><g transform="translate(334.09,394.83) scale(1.5185) rotate(0)"><path d="M10 5L5 0L0 5L5 10L0 15L5 20L10 15L15 20L20 15L15 10L20 5L15 0L10 5Z" fill="#f6fcf5"/></g><rect x="364.4571428571429" y="364.4571428571429" width="60.74285714285715" height="60.74285714285715" fill="#ffffff"/><rect x="364.46" y="364.46" width="30.37" height="30.37" fill="#2fc01c"/><path d="M 364.46 364.46 A 30.37 30.37 0 0 0 394.83 394.83 L 394.83 364.46L364.46 364.46" fill="#87f8e2"/><rect x="394.83" y="364.46" width="30.37" height="30.37" fill="#33f3cd"/><path d="M 394.83 394.83 A 30.37 30.37 0 0 1  425.2 364.46 L 425.2 394.83L394.83 394.83" fill="#fffef1"/><rect x="364.46" y="394.83" width="30.37" height="30.37" fill="#fef889"/><path d="M 364.46 425.2 A 30.37 30.37 0 0 1  394.83 394.83 L 394.83 425.2L364.46 425.2" fill="#fffcd1"/><rect x="394.83" y="394.83" width="30.37" height="30.37" fill="#b2fbec"/><path d="M 394.83 425.2 A 30.37 30.37 0 0 1  425.2 394.83 L 394.83 425.2 A 30.37 30.37 0 0 0 425.2 394.83" fill="#95df8c"/><rect x="425.2" y="364.46" width="60.74" height="60.74" fill="#55cb45"/><rect x="425.2" y="364.46" width="60.74" height="60.74" fill="#ccfcf2"/><rect x="485.94" y="364.46" width="60.74" height="60.74" fill="#b5e8ae"/><rect x="485.94" y="364.46" width="60.74" height="60.74" fill="#e9fefa"/><rect x="546.69" y="364.46" width="60.74" height="60.74" fill="#35f3cd"/><rect x="546.69" y="364.46" width="60.74" height="60.74" fill="#d2f1ce"/><rect x="607.4285714285714" y="364.4571428571429" width="60.74285714285715" height="60.74285714285715" fill="#ffffff"/><rect x="607.43" y="364.46" width="30.37" height="30.37" fill="#f6fcf6"/><g transform="translate(607.43,364.46) scale(1.5185) rotate(0)"><path d="M10 1L12.2451 7.90983H19.5106L13.6327 12.1803L15.8779 19.0902L10 14.8197L4.12215 19.0902L6.36729 12.1803L0.489441 7.90983H7.75487L10 1Z" fill="#fef881"/></g><rect x="637.8" y="364.46" width="30.37" height="30.37" fill="#48c737"/><g transform="translate(637.8,364.46) scale(1.5185) rotate(0)"><path d="M10 1L12.2451 7.90983H19.5106L13.6327 12.1803L15.8779 19.0902L10 14.8197L4.12215 19.0902L6.36729 12.1803L0.489441 7.90983H7.75487L10 1Z" fill="#ecf9ea"/></g><rect x="607.43" y="394.83" width="30.37" height="30.37" fill="#ddf5da"/><g transform="translate(607.43,394.83) scale(1.5185) rotate(0)"><path d="M10 5L5 0L0 5L5 10L0 15L5 20L10 15L15 20L20 15L15 10L20 5L15 0L10 5Z" fill="#53cb44"/></g><rect x="637.8" y="394.83" width="30.37" height="30.37" fill="#fffee9"/><path d="M 637.8 394.83 A 30.37 30.37 0 0 0 668.17 425.2 L 668.17 394.83L637.8 394.83" fill="#dcf4d9"/><rect x="668.17" y="364.46" width="60.74" height="60.74" fill="#fefffe"/><g transform="translate(668.17,364.46) scale(3.037) rotate(0)"><path d="M10 5L5 0L0 5L5 10L0 15L5 20L10 15L15 20L20 15L15 10L20 5L15 0L10 5Z" fill="#fffeed"/></g></g></svg>