<?xml version="1.0" standalone="no"?><svg xmlns:xlink="http://www.w3.org/1999/xlink" xmlns="http://www.w3.org/2000/svg" viewBox="0 0 1000 538.4664091686191" preserveAspectRatio="xMaxYMax slice"><g transform="scale(1.2663838409421897)"><rect x="0" y="0" width="789.657142857143" height="425.20000000000005" fill="#a7e2f6"/><rect x="0" y="0" width="60.74285714285715" height="60.74285714285715" fill="#a7e2f6"/><g transform="translate(0,0) scale(1.5185) rotate(0)"><path d="M10 0L20 10L10 20L0 10L10 0Z" fill="#94d4d8"/></g><g transform="translate(30.37,0) scale(1.5185) rotate(0)"><path d="M10 0L20 10L10 20L0 10L10 0Z" fill="#9e9bb3"/></g><g transform="translate(0,30.37) scale(1.5185) rotate(0)"><path fill-rule="evenodd" clip-rule="evenodd" d="M10 20C15.5228 20 20 15.5228 20 10C20 4.47715 15.5228 0 10 0C4.47715 0 0 4.47715 0 10C0 15.5228 4.47715 20 10 20ZM10 17C13.866 17 17 13.866 17 10C17 6.13401 13.866 3 10 3C6.13401 3 3 6.13401 3 10C3 13.866 6.13401 17 10 17Z" fill="#76b1c4"/></g><g transform="translate(30.37,30.37) scale(1.5185) rotate(0)"><path d="M10 5L5 0L0 5L5 10L0 15L5 20L10 15L15 20L20 15L15 10L20 5L15 0L10 5Z" fill="#8bc6da"/></g><rect x="60.74285714285715" y="0" width="60.74285714285715" height="60.74285714285715" fill="#a7e2f6"/><g transform="translate(60.74,0) scale(1.5185) rotate(0)"><path d="M10 1L12.2451 7.90983H19.5106L13.6327 12.1803L15.8779 19.0902L10 14.8197L4.12215 19.0902L6.36729 12.1803L0.489441 7.90983H7.75487L10 1Z" fill="#a4d4cd"/></g><g transform="translate(91.11,0) scale(1.5185) rotate(0)"><path d="M10 1L12.2451 7.90983H19.5106L13.6327 12.1803L15.8779 19.0902L10 14.8197L4.12215 19.0902L6.36729 12.1803L0.489441 7.90983H7.75487L10 1Z" fill="#47985d"/></g><g transform="translate(60.74,30.37) scale(1.5185) rotate(0)"><rect width="2" height="20" fill="#94516d"/><rect x="4" width="2" height="20" fill="#94516d"/><rect x="8" width="2" height="20" fill="#94516d"/><rect x="12" width="2" height="20" fill="#94516d"/><rect x="16" width="2" height="20" fill="#94516d"/></g><g transform="translate(91.11,30.37) scale(1.5185) rotate(0)"><path d="M10 1L12.2451 7.90983H19.5106L13.6327 12.1803L15.8779 19.0902L10 14.8197L4.12215 19.0902L6.36729 12.1803L0.489441 7.90983H7.75487L10 1Z" fill="#976580"/></g><g transform="translate(121.49,0) scale(3.037) rotate(0)"><path d="M10 1L12.2451 7.90983H19.5106L13.6327 12.1803L15.8779 19.0902L10 14.8197L4.12215 19.0902L6.36729 12.1803L0.489441 7.90983H7.75487L10 1Z" fill="#a0bc8a"/></g><rect x="182.22857142857146" y="0" width="60.74285714285715" height="60.74285714285715" fill="#a7e2f6"/><g transform="translate(182.23,0) scale(1.5185) rotate(0)"><rect width="2" height="20" fill="#6aa5b7"/><rect x="4" width="2" height="20" fill="#6aa5b7"/><rect x="8" width="2" height="20" fill="#6aa5b7"/><rect x="12" width="2" height="20" fill="#6aa5b7"/><rect x="16" width="2" height="20" fill="#6aa5b7"/></g><g transform="translate(212.6,0) scale(1.5185) rotate(0)"><rect width="20" height="2" fill="#a4d4cd"/><rect y="4" width="20" height="2" fill="#a4d4cd"/><rect y="8" width="20" height="2" fill="#a4d4cd"/><rect y="12" width="20" height="2" fill="#a4d4cd"/><rect y="16" width="20" height="2" fill="#a4d4cd"/></g><g transform="translate(182.23,30.37) scale(1.5185) rotate(0)"><path d="M10 0L20 10L10 20L0 10L10 0Z" fill="#a0acc2"/></g><g transform="translate(212.6,30.37) scale(1.5185) rotate(0)"><path fill-rule="evenodd" clip-rule="evenodd" d="M10 20C15.5228 20 20 15.5228 20 10C20 4.47715 15.5228 0 10 0C4.47715 0 0 4.47715 0 10C0 15.5228 4.47715 20 10 20ZM10 17C13.866 17 17 13.866 17 10C17 6.13401 13.866 3 10 3C6.13401 3 3 6.13401 3 10C3 13.866 6.13401 17 10 17Z" fill="#46985c"/></g><rect x="242.9714285714286" y="0" width="60.74285714285715" height="60.74285714285715" fill="#a7e2f6"/><g transform="translate(242.97,0) scale(1.5185) rotate(0)"><path d="M10 1L12.2451 7.90983H19.5106L13.6327 12.1803L15.8779 19.0902L10 14.8197L4.12215 19.0902L6.36729 12.1803L0.489441 7.90983H7.75487L10 1Z" fill="#296475"/></g><g transform="translate(273.34,0) scale(1.5185) rotate(0)"><path d="M10 5L5 0L0 5L5 10L0 15L5 20L10 15L15 20L20 15L15 10L20 5L15 0L10 5Z" fill="#64af8c"/></g><g transform="translate(242.97,30.37) scale(1.5185) rotate(0)"><path fill-rule="evenodd" clip-rule="evenodd" d="M10 20C15.5228 20 20 15.5228 20 10C20 4.47715 15.5228 0 10 0C4.47715 0 0 4.47715 0 10C0 15.5228 4.47715 20 10 20ZM10 17C13.866 17 17 13.866 17 10C17 6.13401 13.866 3 10 3C6.13401 3 3 6.13401 3 10C3 13.866 6.13401 17 10 17Z" fill="#79bfad"/></g><g transform="translate(273.34,30.37) scale(1.5185) rotate(0)"><rect width="20" height="2" fill="#a2c9b0"/><rect y="4" width="20" height="2" fill="#a2c9b0"/><rect y="8" width="20" height="2" fill="#a2c9b0"/><rect y="12" width="20" height="2" fill="#a2c9b0"/><rect y="16" width="20" height="2" fill="#a2c9b0"/></g><rect x="303.7142857142857" y="0" width="60.74285714285715" height="60.74285714285715" fill="#a7e2f6"/><g transform="translate(303.71,0) scale(1.5185) rotate(0)"><path d="M10 5L5 0L0 5L5 10L0 15L5 20L10 15L15 20L20 15L15 10L20 5L15 0L10 5Z" fill="#9ba03a"/></g><g transform="translate(334.09,0) scale(1.5185) rotate(0)"><path d="M10 5L5 0L0 5L5 10L0 15L5 20L10 15L15 20L20 15L15 10L20 5L15 0L10 5Z" fill="#2a6577"/></g><g transform="translate(303.71,30.37) scale(1.5185) rotate(0)"><path d="M10 5L5 0L0 5L5 10L0 15L5 20L10 15L15 20L20 15L15 10L20 5L15 0L10 5Z" fill="#53a170"/></g><g transform="translate(334.09,30.37) scale(1.5185) rotate(0)"><path fill-rule="evenodd" clip-rule="evenodd" d="M10 20C15.5228 20 20 15.5228 20 10C20 4.47715 15.5228 0 10 0C4.47715 0 0 4.47715 0 10C0 15.5228 4.47715 20 10 20ZM10 17C13.866 17 17 13.866 17 10C17 6.13401 13.866 3 10 3C6.13401 3 3 6.13401 3 10C3 13.866 6.13401 17 10 17Z" fill="#8c1231"/></g><g transform="translate(364.46,0) scale(3.037) rotate(0)"><path fill-rule="evenodd" clip-rule="evenodd" d="M10 20C15.5228 20 20 15.5228 20 10C20 4.47715 15.5228 0 10 0C4.47715 0 0 4.47715 0 10C0 15.5228 4.47715 20 10 20ZM10 17C13.866 17 17 13.866 17 10C17 6.13401 13.866 3 10 3C6.13401 3 3 6.13401 3 10C3 13.866 6.13401 17 10 17Z" fill="#2f8638"/></g><g transform="translate(425.2,0) scale(3.037) rotate(0)"><path fill-rule="evenodd" clip-rule="evenodd" d="M10 20C15.5228 20 20 15.5228 20 10C20 4.47715 15.5228 0 10 0C4.47715 0 0 4.47715 0 10C0 15.5228 4.47715 20 10 20ZM10 17C13.866 17 17 13.866 17 10C17 6.13401 13.866 3 10 3C6.13401 3 3 6.13401 3 10C3 13.866 6.13401 17 10 17Z" fill="#9bd9e3"/></g><g transform="translate(485.94,0) scale(3.037) rotate(0)"><path d="M10 5L5 0L0 5L5 10L0 15L5 20L10 15L15 20L20 15L15 10L20 5L15 0L10 5Z" fill="#82bdd1"/></g><g transform="translate(546.69,0) scale(3.037) rotate(0)"><rect width="2" height="20" fill="#913653"/><rect x="4" width="2" height="20" fill="#913653"/><rect x="8" width="2" height="20" fill="#913653"/><rect x="12" width="2" height="20" fill="#913653"/><rect x="16" width="2" height="20" fill="#913653"/></g><rect x="607.4285714285714" y="0" width="60.74285714285715" height="60.74285714285715" fill="#a7e2f6"/><g transform="translate(607.43,0) scale(1.5185) rotate(0)"><rect width="2" height="20" fill="#9b829b"/><rect x="4" width="2" height="20" fill="#9b829b"/><rect x="8" width="2" height="20" fill="#9b829b"/><rect x="12" width="2" height="20" fill="#9b829b"/><rect x="16" width="2" height="20" fill="#9b829b"/></g><g transform="translate(637.8,0) scale(1.5185) rotate(0)"><rect width="2" height="20" fill="#6bb497"/><rect x="4" width="2" height="20" fill="#6bb497"/><rect x="8" width="2" height="20" fill="#6bb497"/><rect x="12" width="2" height="20" fill="#6bb497"/><rect x="16" width="2" height="20" fill="#6bb497"/></g><g transform="translate(607.43,30.37) scale(1.5185) rotate(0)"><rect width="20" height="2" fill="#986a84"/><rect y="4" width="20" height="2" fill="#986a84"/><rect y="8" width="20" height="2" fill="#986a84"/><rect y="12" width="20" height="2" fill="#986a84"/><rect y="16" width="20" height="2" fill="#986a84"/></g><g transform="translate(637.8,30.37) scale(1.5185) rotate(0)"><path fill-rule="evenodd" clip-rule="evenodd" d="M10 20C15.5228 20 20 15.5228 20 10C20 4.47715 15.5228 0 10 0C4.47715 0 0 4.47715 0 10C0 15.5228 4.47715 20 10 20ZM10 17C13.866 17 17 13.866 17 10C17 6.13401 13.866 3 10 3C6.13401 3 3 6.13401 3 10C3 13.866 6.13401 17 10 17Z" fill="#976883"/></g><g transform="translate(668.17,0) scale(3.037) rotate(0)"><rect width="20" height="2" fill="#92405d"/><rect y="4" width="20" height="2" fill="#92405d"/><rect y="8" width="20" height="2" fill="#92405d"/><rect y="12" width="20" height="2" fill="#92405d"/><rect y="16" width="20" height="2" fill="#92405d"/></g><g transform="translate(728.91,0) scale(3.037) rotate(0)"><path fill-rule="evenodd" clip-rule="evenodd" d="M10 20C15.5228 20 20 15.5228 20 10C20 4.47715 15.5228 0 10 0C4.47715 0 0 4.47715 0 10C0 15.5228 4.47715 20 10 20ZM10 17C13.866 17 17 13.866 17 10C17 6.13401 13.866 3 10 3C6.13401 3 3 6.13401 3 10C3 13.866 6.13401 17 10 17Z" fill="#2c6779"/></g><rect x="0" y="60.74285714285715" width="60.74285714285715" height="60.74285714285715" fill="#a7e2f6"/><g transform="translate(0,60.74) scale(1.5185) rotate(0)"><rect width="20" height="2" fill="#6bb496"/><rect y="4" width="20" height="2" fill="#6bb496"/><rect y="8" width="20" height="2" fill="#6bb496"/><rect y="12" width="20" height="2" fill="#6bb496"/><rect y="16" width="20" height="2" fill="#6bb496"/></g><g transform="translate(30.37,60.74) scale(1.5185) rotate(0)"><path d="M10 0L20 10L10 20L0 10L10 0Z" fill="#9eb067"/></g><g transform="translate(0,91.11) scale(1.5185) rotate(0)"><rect width="2" height="20" fill="#1b5668"/><rect x="4" width="2" height="20" fill="#1b5668"/><rect x="8" width="2" height="20" fill="#1b5668"/><rect x="12" width="2" height="20" fill="#1b5668"/><rect x="16" width="2" height="20" fill="#1b5668"/></g><g transform="translate(30.37,91.11) scale(1.5185) rotate(0)"><path fill-rule="evenodd" clip-rule="evenodd" d="M10 20C15.5228 20 20 15.5228 20 10C20 4.47715 15.5228 0 10 0C4.47715 0 0 4.47715 0 10C0 15.5228 4.47715 20 10 20ZM10 17C13.866 17 17 13.866 17 10C17 6.13401 13.866 3 10 3C6.13401 3 3 6.13401 3 10C3 13.866 6.13401 17 10 17Z" fill="#9fa4bb"/></g><g transform="translate(60.74,60.74) scale(3.037) rotate(0)"><path d="M10 5L5 0L0 5L5 10L0 15L5 20L10 15L15 20L20 15L15 10L20 5L15 0L10 5Z" fill="#a0be91"/></g><g transform="translate(121.49,60.74) scale(3.037) rotate(0)"><path fill-rule="evenodd" clip-rule="evenodd" d="M10 20C15.5228 20 20 15.5228 20 10C20 4.47715 15.5228 0 10 0C4.47715 0 0 4.47715 0 10C0 15.5228 4.47715 20 10 20ZM10 17C13.866 17 17 13.866 17 10C17 6.13401 13.866 3 10 3C6.13401 3 3 6.13401 3 10C3 13.866 6.13401 17 10 17Z" fill="#9bd6ea"/></g><rect x="182.22857142857146" y="60.74285714285715" width="60.74285714285715" height="60.74285714285715" fill="#a7e2f6"/><g transform="translate(182.23,60.74) scale(1.5185) rotate(0)"><path d="M10 0L20 10L10 20L0 10L10 0Z" fill="#4d9d67"/></g><g transform="translate(212.6,60.74) scale(1.5185) rotate(0)"><path d="M10 1L12.2451 7.90983H19.5106L13.6327 12.1803L15.8779 19.0902L10 14.8197L4.12215 19.0902L6.36729 12.1803L0.489441 7.90983H7.75487L10 1Z" fill="#a7e1f4"/></g><g transform="translate(182.23,91.11) scale(1.5185) rotate(0)"><rect width="2" height="20" fill="#9d93ab"/><rect x="4" width="2" height="20" fill="#9d93ab"/><rect x="8" width="2" height="20" fill="#9d93ab"/><rect x="12" width="2" height="20" fill="#9d93ab"/><rect x="16" width="2" height="20" fill="#9d93ab"/></g><g transform="translate(212.6,91.11) scale(1.5185) rotate(0)"><path d="M10 0L20 10L10 20L0 10L10 0Z" fill="#75b0c3"/></g><g transform="translate(242.97,60.74) scale(3.037) rotate(0)"><path d="M10 5L5 0L0 5L5 10L0 15L5 20L10 15L15 20L20 15L15 10L20 5L15 0L10 5Z" fill="#86c9c1"/></g><rect x="303.7142857142857" y="60.74285714285715" width="60.74285714285715" height="60.74285714285715" fill="#a7e2f6"/><g transform="translate(303.71,60.74) scale(1.5185) rotate(0)"><path fill-rule="evenodd" clip-rule="evenodd" d="M10 20C15.5228 20 20 15.5228 20 10C20 4.47715 15.5228 0 10 0C4.47715 0 0 4.47715 0 10C0 15.5228 4.47715 20 10 20ZM10 17C13.866 17 17 13.866 17 10C17 6.13401 13.866 3 10 3C6.13401 3 3 6.13401 3 10C3 13.866 6.13401 17 10 17Z" fill="#a0aac1"/></g><g transform="translate(334.09,60.74) scale(1.5185) rotate(0)"><path d="M10 0L20 10L10 20L0 10L10 0Z" fill="#99768f"/></g><g transform="translate(303.71,91.11) scale(1.5185) rotate(0)"><path d="M10 1L12.2451 7.90983H19.5106L13.6327 12.1803L15.8779 19.0902L10 14.8197L4.12215 19.0902L6.36729 12.1803L0.489441 7.90983H7.75487L10 1Z" fill="#976781"/></g><g transform="translate(334.09,91.11) scale(1.5185) rotate(0)"><path fill-rule="evenodd" clip-rule="evenodd" d="M10 20C15.5228 20 20 15.5228 20 10C20 4.47715 15.5228 0 10 0C4.47715 0 0 4.47715 0 10C0 15.5228 4.47715 20 10 20ZM10 17C13.866 17 17 13.866 17 10C17 6.13401 13.866 3 10 3C6.13401 3 3 6.13401 3 10C3 13.866 6.13401 17 10 17Z" fill="#923b58"/></g><g transform="translate(364.46,60.74) scale(3.037) rotate(0)"><path d="M10 5L5 0L0 5L5 10L0 15L5 20L10 15L15 20L20 15L15 10L20 5L15 0L10 5Z" fill="#913552"/></g><g transform="translate(425.2,60.74) scale(3.037) rotate(0)"><path d="M10 1L12.2451 7.90983H19.5106L13.6327 12.1803L15.8779 19.0902L10 14.8197L4.12215 19.0902L6.36729 12.1803L0.489441 7.90983H7.75487L10 1Z" fill="#4f8a9d"/></g><g transform="translate(485.94,60.74) scale(3.037) rotate(0)"><path d="M10 0L20 10L10 20L0 10L10 0Z" fill="#9c89a2"/></g><g transform="translate(546.69,60.74) scale(3.037) rotate(0)"><rect width="2" height="20" fill="#a7dff4"/><rect x="4" width="2" height="20" fill="#a7dff4"/><rect x="8" width="2" height="20" fill="#a7dff4"/><rect x="12" width="2" height="20" fill="#a7dff4"/><rect x="16" width="2" height="20" fill="#a7dff4"/></g><rect x="607.4285714285714" y="60.74285714285715" width="60.74285714285715" height="60.74285714285715" fill="#a7e2f6"/><g transform="translate(607.43,60.74) scale(1.5185) rotate(0)"><rect width="2" height="20" fill="#458092"/><rect x="4" width="2" height="20" fill="#458092"/><rect x="8" width="2" height="20" fill="#458092"/><rect x="12" width="2" height="20" fill="#458092"/><rect x="16" width="2" height="20" fill="#458092"/></g><g transform="translate(637.8,60.74) scale(1.5185) rotate(0)"><rect width="2" height="20" fill="#5ba87c"/><rect x="4" width="2" height="20" fill="#5ba87c"/><rect x="8" width="2" height="20" fill="#5ba87c"/><rect x="12" width="2" height="20" fill="#5ba87c"/><rect x="16" width="2" height="20" fill="#5ba87c"/></g><g transform="translate(607.43,91.11) scale(1.5185) rotate(0)"><path d="M10 5L5 0L0 5L5 10L0 15L5 20L10 15L15 20L20 15L15 10L20 5L15 0L10 5Z" fill="#4c9c65"/></g><g transform="translate(637.8,91.11) scale(1.5185) rotate(0)"><path d="M10 0L20 10L10 20L0 10L10 0Z" fill="#a4d3cc"/></g><g transform="translate(668.17,60.74) scale(3.037) rotate(0)"><path fill-rule="evenodd" clip-rule="evenodd" d="M10 20C15.5228 20 20 15.5228 20 10C20 4.47715 15.5228 0 10 0C4.47715 0 0 4.47715 0 10C0 15.5228 4.47715 20 10 20ZM10 17C13.866 17 17 13.866 17 10C17 6.13401 13.866 3 10 3C6.13401 3 3 6.13401 3 10C3 13.866 6.13401 17 10 17Z" fill="#9b88a0"/></g><g transform="translate(728.91,60.74) scale(3.037) rotate(0)"><rect width="20" height="2" fill="#6eb69b"/><rect y="4" width="20" height="2" fill="#6eb69b"/><rect y="8" width="20" height="2" fill="#6eb69b"/><rect y="12" width="20" height="2" fill="#6eb69b"/><rect y="16" width="20" height="2" fill="#6eb69b"/></g><rect x="0" y="121.4857142857143" width="60.74285714285715" height="60.74285714285715" fill="#a7e2f6"/><g transform="translate(0,121.49) scale(1.5185) rotate(0)"><rect width="20" height="2" fill="#8d1635"/><rect y="4" width="20" height="2" fill="#8d1635"/><rect y="8" width="20" height="2" fill="#8d1635"/><rect y="12" width="20" height="2" fill="#8d1635"/><rect y="16" width="20" height="2" fill="#8d1635"/></g><g transform="translate(30.37,121.49) scale(1.5185) rotate(0)"><path fill-rule="evenodd" clip-rule="evenodd" d="M10 20C15.5228 20 20 15.5228 20 10C20 4.47715 15.5228 0 10 0C4.47715 0 0 4.47715 0 10C0 15.5228 4.47715 20 10 20ZM10 17C13.866 17 17 13.866 17 10C17 6.13401 13.866 3 10 3C6.13401 3 3 6.13401 3 10C3 13.866 6.13401 17 10 17Z" fill="#a6ddf1"/></g><g transform="translate(0,151.86) scale(1.5185) rotate(0)"><path d="M10 5L5 0L0 5L5 10L0 15L5 20L10 15L15 20L20 15L15 10L20 5L15 0L10 5Z" fill="#266173"/></g><g transform="translate(30.37,151.86) scale(1.5185) rotate(0)"><rect width="20" height="2" fill="#8d1836"/><rect y="4" width="20" height="2" fill="#8d1836"/><rect y="8" width="20" height="2" fill="#8d1836"/><rect y="12" width="20" height="2" fill="#8d1836"/><rect y="16" width="20" height="2" fill="#8d1836"/></g><g transform="translate(60.74,121.49) scale(3.037) rotate(0)"><path fill-rule="evenodd" clip-rule="evenodd" d="M10 20C15.5228 20 20 15.5228 20 10C20 4.47715 15.5228 0 10 0C4.47715 0 0 4.47715 0 10C0 15.5228 4.47715 20 10 20ZM10 17C13.866 17 17 13.866 17 10C17 6.13401 13.866 3 10 3C6.13401 3 3 6.13401 3 10C3 13.866 6.13401 17 10 17Z" fill="#9c8ba4"/></g><g transform="translate(121.49,121.49) scale(3.037) rotate(0)"><rect width="20" height="2" fill="#1a7616"/><rect y="4" width="20" height="2" fill="#1a7616"/><rect y="8" width="20" height="2" fill="#1a7616"/><rect y="12" width="20" height="2" fill="#1a7616"/><rect y="16" width="20" height="2" fill="#1a7616"/></g><rect x="182.22857142857146" y="121.4857142857143" width="60.74285714285715" height="60.74285714285715" fill="#a7e2f6"/><g transform="translate(182.23,121.49) scale(1.5185) rotate(0)"><path d="M10 1L12.2451 7.90983H19.5106L13.6327 12.1803L15.8779 19.0902L10 14.8197L4.12215 19.0902L6.36729 12.1803L0.489441 7.90983H7.75487L10 1Z" fill="#7ac0ae"/></g><g transform="translate(212.6,121.49) scale(1.5185) rotate(0)"><path d="M10 1L12.2451 7.90983H19.5106L13.6327 12.1803L15.8779 19.0902L10 14.8197L4.12215 19.0902L6.36729 12.1803L0.489441 7.90983H7.75487L10 1Z" fill="#508b9e"/></g><g transform="translate(182.23,151.86) scale(1.5185) rotate(0)"><path fill-rule="evenodd" clip-rule="evenodd" d="M10 20C15.5228 20 20 15.5228 20 10C20 4.47715 15.5228 0 10 0C4.47715 0 0 4.47715 0 10C0 15.5228 4.47715 20 10 20ZM10 17C13.866 17 17 13.866 17 10C17 6.13401 13.866 3 10 3C6.13401 3 3 6.13401 3 10C3 13.866 6.13401 17 10 17Z" fill="#8ec9dd"/></g><g transform="translate(212.6,151.86) scale(1.5185) rotate(0)"><path fill-rule="evenodd" clip-rule="evenodd" d="M10 20C15.5228 20 20 15.5228 20 10C20 4.47715 15.5228 0 10 0C4.47715 0 0 4.47715 0 10C0 15.5228 4.47715 20 10 20ZM10 17C13.866 17 17 13.866 17 10C17 6.13401 13.866 3 10 3C6.13401 3 3 6.13401 3 10C3 13.866 6.13401 17 10 17Z" fill="#a1c29c"/></g><rect x="242.9714285714286" y="121.4857142857143" width="60.74285714285715" height="60.74285714285715" fill="#a7e2f6"/><g transform="translate(242.97,121.49) scale(1.5185) rotate(0)"><path fill-rule="evenodd" clip-rule="evenodd" d="M10 20C15.5228 20 20 15.5228 20 10C20 4.47715 15.5228 0 10 0C4.47715 0 0 4.47715 0 10C0 15.5228 4.47715 20 10 20ZM10 17C13.866 17 17 13.866 17 10C17 6.13401 13.866 3 10 3C6.13401 3 3 6.13401 3 10C3 13.866 6.13401 17 10 17Z" fill="#5691a3"/></g><g transform="translate(273.34,121.49) scale(1.5185) rotate(0)"><path d="M10 5L5 0L0 5L5 10L0 15L5 20L10 15L15 20L20 15L15 10L20 5L15 0L10 5Z" fill="#9d95ad"/></g><g transform="translate(242.97,151.86) scale(1.5185) rotate(0)"><path fill-rule="evenodd" clip-rule="evenodd" d="M10 20C15.5228 20 20 15.5228 20 10C20 4.47715 15.5228 0 10 0C4.47715 0 0 4.47715 0 10C0 15.5228 4.47715 20 10 20ZM10 17C13.866 17 17 13.866 17 10C17 6.13401 13.866 3 10 3C6.13401 3 3 6.13401 3 10C3 13.866 6.13401 17 10 17Z" fill="#955470"/></g><g transform="translate(273.34,151.86) scale(1.5185) rotate(0)"><path d="M10 5L5 0L0 5L5 10L0 15L5 20L10 15L15 20L20 15L15 10L20 5L15 0L10 5Z" fill="#76b1c4"/></g><g transform="translate(303.71,121.49) scale(3.037) rotate(0)"><path fill-rule="evenodd" clip-rule="evenodd" d="M10 20C15.5228 20 20 15.5228 20 10C20 4.47715 15.5228 0 10 0C4.47715 0 0 4.47715 0 10C0 15.5228 4.47715 20 10 20ZM10 17C13.866 17 17 13.866 17 10C17 6.13401 13.866 3 10 3C6.13401 3 3 6.13401 3 10C3 13.866 6.13401 17 10 17Z" fill="#9eb068"/></g><g transform="translate(364.46,121.49) scale(3.037) rotate(0)"><path d="M10 5L5 0L0 5L5 10L0 15L5 20L10 15L15 20L20 15L15 10L20 5L15 0L10 5Z" fill="#87cac4"/></g><g transform="translate(425.2,121.49) scale(3.037) rotate(0)"><path fill-rule="evenodd" clip-rule="evenodd" d="M10 20C15.5228 20 20 15.5228 20 10C20 4.47715 15.5228 0 10 0C4.47715 0 0 4.47715 0 10C0 15.5228 4.47715 20 10 20ZM10 17C13.866 17 17 13.866 17 10C17 6.13401 13.866 3 10 3C6.13401 3 3 6.13401 3 10C3 13.866 6.13401 17 10 17Z" fill="#999419"/></g><g transform="translate(485.94,121.49) scale(3.037) rotate(0)"><path fill-rule="evenodd" clip-rule="evenodd" d="M10 20C15.5228 20 20 15.5228 20 10C20 4.47715 15.5228 0 10 0C4.47715 0 0 4.47715 0 10C0 15.5228 4.47715 20 10 20ZM10 17C13.866 17 17 13.866 17 10C17 6.13401 13.866 3 10 3C6.13401 3 3 6.13401 3 10C3 13.866 6.13401 17 10 17Z" fill="#a5d8d8"/></g><g transform="translate(546.69,121.49) scale(3.037) rotate(0)"><rect width="2" height="20" fill="#a2c5a3"/><rect x="4" width="2" height="20" fill="#a2c5a3"/><rect x="8" width="2" height="20" fill="#a2c5a3"/><rect x="12" width="2" height="20" fill="#a2c5a3"/><rect x="16" width="2" height="20" fill="#a2c5a3"/></g><g transform="translate(607.43,121.49) scale(3.037) rotate(0)"><path d="M10 1L12.2451 7.90983H19.5106L13.6327 12.1803L15.8779 19.0902L10 14.8197L4.12215 19.0902L6.36729 12.1803L0.489441 7.90983H7.75487L10 1Z" fill="#447f91"/></g><rect x="668.1714285714286" y="121.4857142857143" width="60.74285714285715" height="60.74285714285715" fill="#a7e2f6"/><g transform="translate(668.17,121.49) scale(1.5185) rotate(0)"><rect width="20" height="2" fill="#32883b"/><rect y="4" width="20" height="2" fill="#32883b"/><rect y="8" width="20" height="2" fill="#32883b"/><rect y="12" width="20" height="2" fill="#32883b"/><rect y="16" width="20" height="2" fill="#32883b"/></g><g transform="translate(698.54,121.49) scale(1.5185) rotate(0)"><path d="M10 1L12.2451 7.90983H19.5106L13.6327 12.1803L15.8779 19.0902L10 14.8197L4.12215 19.0902L6.36729 12.1803L0.489441 7.90983H7.75487L10 1Z" fill="#8e2240"/></g><g transform="translate(668.17,151.86) scale(1.5185) rotate(0)"><path d="M10 0L20 10L10 20L0 10L10 0Z" fill="#9e9ab2"/></g><g transform="translate(698.54,151.86) scale(1.5185) rotate(0)"><path d="M10 0L20 10L10 20L0 10L10 0Z" fill="#a0bb88"/></g><g transform="translate(728.91,121.49) scale(3.037) rotate(0)"><path d="M10 5L5 0L0 5L5 10L0 15L5 20L10 15L15 20L20 15L15 10L20 5L15 0L10 5Z" fill="#9e9bb3"/></g><g transform="translate(0,182.23) scale(3.037) rotate(0)"><rect width="20" height="2" fill="#8d1433"/><rect y="4" width="20" height="2" fill="#8d1433"/><rect y="8" width="20" height="2" fill="#8d1433"/><rect y="12" width="20" height="2" fill="#8d1433"/><rect y="16" width="20" height="2" fill="#8d1433"/></g><g transform="translate(60.74,182.23) scale(3.037) rotate(0)"><path d="M10 5L5 0L0 5L5 10L0 15L5 20L10 15L15 20L20 15L15 10L20 5L15 0L10 5Z" fill="#87cac3"/></g><g transform="translate(121.49,182.23) scale(3.037) rotate(0)"><rect width="2" height="20" fill="#a5d6d3"/><rect x="4" width="2" height="20" fill="#a5d6d3"/><rect x="8" width="2" height="20" fill="#a5d6d3"/><rect x="12" width="2" height="20" fill="#a5d6d3"/><rect x="16" width="2" height="20" fill="#a5d6d3"/></g><g transform="translate(182.23,182.23) scale(3.037) rotate(0)"><path d="M10 5L5 0L0 5L5 10L0 15L5 20L10 15L15 20L20 15L15 10L20 5L15 0L10 5Z" fill="#9ed9ed"/></g><rect x="242.9714285714286" y="182.22857142857146" width="60.74285714285715" height="60.74285714285715" fill="#a7e2f6"/><g transform="translate(242.97,182.23) scale(1.5185) rotate(0)"><rect width="20" height="2" fill="#9fa3ba"/><rect y="4" width="20" height="2" fill="#9fa3ba"/><rect y="8" width="20" height="2" fill="#9fa3ba"/><rect y="12" width="20" height="2" fill="#9fa3ba"/><rect y="16" width="20" height="2" fill="#9fa3ba"/></g><g transform="translate(273.34,182.23) scale(1.5185) rotate(0)"><path fill-rule="evenodd" clip-rule="evenodd" d="M10 20C15.5228 20 20 15.5228 20 10C20 4.47715 15.5228 0 10 0C4.47715 0 0 4.47715 0 10C0 15.5228 4.47715 20 10 20ZM10 17C13.866 17 17 13.866 17 10C17 6.13401 13.866 3 10 3C6.13401 3 3 6.13401 3 10C3 13.866 6.13401 17 10 17Z" fill="#9a9a29"/></g><g transform="translate(242.97,212.6) scale(1.5185) rotate(0)"><path d="M10 5L5 0L0 5L5 10L0 15L5 20L10 15L15 20L20 15L15 10L20 5L15 0L10 5Z" fill="#9a9c2f"/></g><g transform="translate(273.34,212.6) scale(1.5185) rotate(0)"><path d="M10 5L5 0L0 5L5 10L0 15L5 20L10 15L15 20L20 15L15 10L20 5L15 0L10 5Z" fill="#9e9fb6"/></g><g transform="translate(303.71,182.23) scale(3.037) rotate(0)"><path fill-rule="evenodd" clip-rule="evenodd" d="M10 20C15.5228 20 20 15.5228 20 10C20 4.47715 15.5228 0 10 0C4.47715 0 0 4.47715 0 10C0 15.5228 4.47715 20 10 20ZM10 17C13.866 17 17 13.866 17 10C17 6.13401 13.866 3 10 3C6.13401 3 3 6.13401 3 10C3 13.866 6.13401 17 10 17Z" fill="#73baa3"/></g><g transform="translate(364.46,182.23) scale(3.037) rotate(0)"><path fill-rule="evenodd" clip-rule="evenodd" d="M10 20C15.5228 20 20 15.5228 20 10C20 4.47715 15.5228 0 10 0C4.47715 0 0 4.47715 0 10C0 15.5228 4.47715 20 10 20ZM10 17C13.866 17 17 13.866 17 10C17 6.13401 13.866 3 10 3C6.13401 3 3 6.13401 3 10C3 13.866 6.13401 17 10 17Z" fill="#8c0d2c"/></g><g transform="translate(425.2,182.23) scale(3.037) rotate(0)"><path d="M10 5L5 0L0 5L5 10L0 15L5 20L10 15L15 20L20 15L15 10L20 5L15 0L10 5Z" fill="#a3cebd"/></g><g transform="translate(485.94,182.23) scale(3.037) rotate(0)"><path d="M10 0L20 10L10 20L0 10L10 0Z" fill="#326d7f"/></g><g transform="translate(546.69,182.23) scale(3.037) rotate(0)"><rect width="2" height="20" fill="#9dac5d"/><rect x="4" width="2" height="20" fill="#9dac5d"/><rect x="8" width="2" height="20" fill="#9dac5d"/><rect x="12" width="2" height="20" fill="#9dac5d"/><rect x="16" width="2" height="20" fill="#9dac5d"/></g><g transform="translate(607.43,182.23) scale(3.037) rotate(0)"><path fill-rule="evenodd" clip-rule="evenodd" d="M10 20C15.5228 20 20 15.5228 20 10C20 4.47715 15.5228 0 10 0C4.47715 0 0 4.47715 0 10C0 15.5228 4.47715 20 10 20ZM10 17C13.866 17 17 13.866 17 10C17 6.13401 13.866 3 10 3C6.13401 3 3 6.13401 3 10C3 13.866 6.13401 17 10 17Z" fill="#95546f"/></g><g transform="translate(668.17,182.23) scale(3.037) rotate(0)"><path d="M10 0L20 10L10 20L0 10L10 0Z" fill="#a3c0d6"/></g><g transform="translate(728.91,182.23) scale(3.037) rotate(0)"><path d="M10 0L20 10L10 20L0 10L10 0Z" fill="#a5d5d1"/></g><g transform="translate(0,242.97) scale(3.037) rotate(0)"><path d="M10 1L12.2451 7.90983H19.5106L13.6327 12.1803L15.8779 19.0902L10 14.8197L4.12215 19.0902L6.36729 12.1803L0.489441 7.90983H7.75487L10 1Z" fill="#1f5a6c"/></g><g transform="translate(60.74,242.97) scale(3.037) rotate(0)"><path d="M10 5L5 0L0 5L5 10L0 15L5 20L10 15L15 20L20 15L15 10L20 5L15 0L10 5Z" fill="#0e495a"/></g><g transform="translate(121.49,242.97) scale(3.037) rotate(0)"><rect width="2" height="20" fill="#8fd0d0"/><rect x="4" width="2" height="20" fill="#8fd0d0"/><rect x="8" width="2" height="20" fill="#8fd0d0"/><rect x="12" width="2" height="20" fill="#8fd0d0"/><rect x="16" width="2" height="20" fill="#8fd0d0"/></g><g transform="translate(182.23,242.97) scale(3.037) rotate(0)"><path fill-rule="evenodd" clip-rule="evenodd" d="M10 20C15.5228 20 20 15.5228 20 10C20 4.47715 15.5228 0 10 0C4.47715 0 0 4.47715 0 10C0 15.5228 4.47715 20 10 20ZM10 17C13.866 17 17 13.866 17 10C17 6.13401 13.866 3 10 3C6.13401 3 3 6.13401 3 10C3 13.866 6.13401 17 10 17Z" fill="#99718b"/></g><rect x="242.9714285714286" y="242.9714285714286" width="60.74285714285715" height="60.74285714285715" fill="#a7e2f6"/><g transform="translate(242.97,242.97) scale(1.5185) rotate(0)"><rect width="20" height="2" fill="#256071"/><rect y="4" width="20" height="2" fill="#256071"/><rect y="8" width="20" height="2" fill="#256071"/><rect y="12" width="20" height="2" fill="#256071"/><rect y="16" width="20" height="2" fill="#256071"/></g><g transform="translate(273.34,242.97) scale(1.5185) rotate(0)"><path d="M10 5L5 0L0 5L5 10L0 15L5 20L10 15L15 20L20 15L15 10L20 5L15 0L10 5Z" fill="#4b8698"/></g><g transform="translate(242.97,273.34) scale(1.5185) rotate(0)"><path d="M10 1L12.2451 7.90983H19.5106L13.6327 12.1803L15.8779 19.0902L10 14.8197L4.12215 19.0902L6.36729 12.1803L0.489441 7.90983H7.75487L10 1Z" fill="#a5d3e8"/></g><g transform="translate(273.34,273.34) scale(1.5185) rotate(0)"><path fill-rule="evenodd" clip-rule="evenodd" d="M10 20C15.5228 20 20 15.5228 20 10C20 4.47715 15.5228 0 10 0C4.47715 0 0 4.47715 0 10C0 15.5228 4.47715 20 10 20ZM10 17C13.866 17 17 13.866 17 10C17 6.13401 13.866 3 10 3C6.13401 3 3 6.13401 3 10C3 13.866 6.13401 17 10 17Z" fill="#9d95ad"/></g><rect x="303.7142857142857" y="242.9714285714286" width="60.74285714285715" height="60.74285714285715" fill="#a7e2f6"/><g transform="translate(303.71,242.97) scale(1.5185) rotate(0)"><rect width="2" height="20" fill="#a6daee"/><rect x="4" width="2" height="20" fill="#a6daee"/><rect x="8" width="2" height="20" fill="#a6daee"/><rect x="12" width="2" height="20" fill="#a6daee"/><rect x="16" width="2" height="20" fill="#a6daee"/></g><g transform="translate(334.09,242.97) scale(1.5185) rotate(0)"><path fill-rule="evenodd" clip-rule="evenodd" d="M10 20C15.5228 20 20 15.5228 20 10C20 4.47715 15.5228 0 10 0C4.47715 0 0 4.47715 0 10C0 15.5228 4.47715 20 10 20ZM10 17C13.866 17 17 13.866 17 10C17 6.13401 13.866 3 10 3C6.13401 3 3 6.13401 3 10C3 13.866 6.13401 17 10 17Z" fill="#96d1e5"/></g><g transform="translate(303.71,273.34) scale(1.5185) rotate(0)"><path d="M10 0L20 10L10 20L0 10L10 0Z" fill="#9a9d31"/></g><g transform="translate(334.09,273.34) scale(1.5185) rotate(0)"><path fill-rule="evenodd" clip-rule="evenodd" d="M10 20C15.5228 20 20 15.5228 20 10C20 4.47715 15.5228 0 10 0C4.47715 0 0 4.47715 0 10C0 15.5228 4.47715 20 10 20ZM10 17C13.866 17 17 13.866 17 10C17 6.13401 13.866 3 10 3C6.13401 3 3 6.13401 3 10C3 13.866 6.13401 17 10 17Z" fill="#934763"/></g><g transform="translate(364.46,242.97) scale(3.037) rotate(0)"><rect width="2" height="20" fill="#9dae63"/><rect x="4" width="2" height="20" fill="#9dae63"/><rect x="8" width="2" height="20" fill="#9dae63"/><rect x="12" width="2" height="20" fill="#9dae63"/><rect x="16" width="2" height="20" fill="#9dae63"/></g><g transform="translate(425.2,242.97) scale(3.037) rotate(0)"><path d="M10 0L20 10L10 20L0 10L10 0Z" fill="#a4c8de"/></g><g transform="translate(485.94,242.97) scale(3.037) rotate(0)"><rect width="2" height="20" fill="#8a0323"/><rect x="4" width="2" height="20" fill="#8a0323"/><rect x="8" width="2" height="20" fill="#8a0323"/><rect x="12" width="2" height="20" fill="#8a0323"/><rect x="16" width="2" height="20" fill="#8a0323"/></g><rect x="546.6857142857143" y="242.9714285714286" width="60.74285714285715" height="60.74285714285715" fill="#a7e2f6"/><g transform="translate(546.69,242.97) scale(1.5185) rotate(0)"><path fill-rule="evenodd" clip-rule="evenodd" d="M10 20C15.5228 20 20 15.5228 20 10C20 4.47715 15.5228 0 10 0C4.47715 0 0 4.47715 0 10C0 15.5228 4.47715 20 10 20ZM10 17C13.866 17 17 13.866 17 10C17 6.13401 13.866 3 10 3C6.13401 3 3 6.13401 3 10C3 13.866 6.13401 17 10 17Z" fill="#a2c6a7"/></g><g transform="translate(577.06,242.97) scale(1.5185) rotate(0)"><path d="M10 5L5 0L0 5L5 10L0 15L5 20L10 15L15 20L20 15L15 10L20 5L15 0L10 5Z" fill="#944a66"/></g><g transform="translate(546.69,273.34) scale(1.5185) rotate(0)"><path d="M10 5L5 0L0 5L5 10L0 15L5 20L10 15L15 20L20 15L15 10L20 5L15 0L10 5Z" fill="#8c0c2c"/></g><g transform="translate(577.06,273.34) scale(1.5185) rotate(0)"><path d="M10 1L12.2451 7.90983H19.5106L13.6327 12.1803L15.8779 19.0902L10 14.8197L4.12215 19.0902L6.36729 12.1803L0.489441 7.90983H7.75487L10 1Z" fill="#9fb678"/></g><rect x="607.4285714285714" y="242.9714285714286" width="60.74285714285715" height="60.74285714285715" fill="#a7e2f6"/><g transform="translate(607.43,242.97) scale(1.5185) rotate(0)"><rect width="20" height="2" fill="#9a9b2c"/><rect y="4" width="20" height="2" fill="#9a9b2c"/><rect y="8" width="20" height="2" fill="#9a9b2c"/><rect y="12" width="20" height="2" fill="#9a9b2c"/><rect y="16" width="20" height="2" fill="#9a9b2c"/></g><g transform="translate(637.8,242.97) scale(1.5185) rotate(0)"><path d="M10 1L12.2451 7.90983H19.5106L13.6327 12.1803L15.8779 19.0902L10 14.8197L4.12215 19.0902L6.36729 12.1803L0.489441 7.90983H7.75487L10 1Z" fill="#6ba6b9"/></g><g transform="translate(607.43,273.34) scale(1.5185) rotate(0)"><path d="M10 1L12.2451 7.90983H19.5106L13.6327 12.1803L15.8779 19.0902L10 14.8197L4.12215 19.0902L6.36729 12.1803L0.489441 7.90983H7.75487L10 1Z" fill="#387385"/></g><g transform="translate(637.8,273.34) scale(1.5185) rotate(0)"><path fill-rule="evenodd" clip-rule="evenodd" d="M10 20C15.5228 20 20 15.5228 20 10C20 4.47715 15.5228 0 10 0C4.47715 0 0 4.47715 0 10C0 15.5228 4.47715 20 10 20ZM10 17C13.866 17 17 13.866 17 10C17 6.13401 13.866 3 10 3C6.13401 3 3 6.13401 3 10C3 13.866 6.13401 17 10 17Z" fill="#a3c0d6"/></g><g transform="translate(668.17,242.97) scale(3.037) rotate(0)"><path d="M10 5L5 0L0 5L5 10L0 15L5 20L10 15L15 20L20 15L15 10L20 5L15 0L10 5Z" fill="#989316"/></g><g transform="translate(728.91,242.97) scale(3.037) rotate(0)"><path d="M10 0L20 10L10 20L0 10L10 0Z" fill="#7eb9cc"/></g><g transform="translate(0,303.71) scale(3.037) rotate(0)"><rect width="2" height="20" fill="#986d87"/><rect x="4" width="2" height="20" fill="#986d87"/><rect x="8" width="2" height="20" fill="#986d87"/><rect x="12" width="2" height="20" fill="#986d87"/><rect x="16" width="2" height="20" fill="#986d87"/></g><rect x="60.74285714285715" y="303.7142857142857" width="60.74285714285715" height="60.74285714285715" fill="#a7e2f6"/><g transform="translate(60.74,303.71) scale(1.5185) rotate(0)"><rect width="20" height="2" fill="#9bd9e2"/><rect y="4" width="20" height="2" fill="#9bd9e2"/><rect y="8" width="20" height="2" fill="#9bd9e2"/><rect y="12" width="20" height="2" fill="#9bd9e2"/><rect y="16" width="20" height="2" fill="#9bd9e2"/></g><g transform="translate(91.11,303.71) scale(1.5185) rotate(0)"><path d="M10 5L5 0L0 5L5 10L0 15L5 20L10 15L15 20L20 15L15 10L20 5L15 0L10 5Z" fill="#78beac"/></g><g transform="translate(60.74,334.09) scale(1.5185) rotate(0)"><path fill-rule="evenodd" clip-rule="evenodd" d="M10 20C15.5228 20 20 15.5228 20 10C20 4.47715 15.5228 0 10 0C4.47715 0 0 4.47715 0 10C0 15.5228 4.47715 20 10 20ZM10 17C13.866 17 17 13.866 17 10C17 6.13401 13.866 3 10 3C6.13401 3 3 6.13401 3 10C3 13.866 6.13401 17 10 17Z" fill="#5792a4"/></g><g transform="translate(91.11,334.09) scale(1.5185) rotate(0)"><path d="M10 5L5 0L0 5L5 10L0 15L5 20L10 15L15 20L20 15L15 10L20 5L15 0L10 5Z" fill="#a3c3d8"/></g><rect x="121.4857142857143" y="303.7142857142857" width="60.74285714285715" height="60.74285714285715" fill="#a7e2f6"/><g transform="translate(121.49,303.71) scale(1.5185) rotate(0)"><path fill-rule="evenodd" clip-rule="evenodd" d="M10 20C15.5228 20 20 15.5228 20 10C20 4.47715 15.5228 0 10 0C4.47715 0 0 4.47715 0 10C0 15.5228 4.47715 20 10 20ZM10 17C13.866 17 17 13.866 17 10C17 6.13401 13.866 3 10 3C6.13401 3 3 6.13401 3 10C3 13.866 6.13401 17 10 17Z" fill="#235e6f"/></g><g transform="translate(151.86,303.71) scale(1.5185) rotate(0)"><path fill-rule="evenodd" clip-rule="evenodd" d="M10 20C15.5228 20 20 15.5228 20 10C20 4.47715 15.5228 0 10 0C4.47715 0 0 4.47715 0 10C0 15.5228 4.47715 20 10 20ZM10 17C13.866 17 17 13.866 17 10C17 6.13401 13.866 3 10 3C6.13401 3 3 6.13401 3 10C3 13.866 6.13401 17 10 17Z" fill="#8b0828"/></g><g transform="translate(121.49,334.09) scale(1.5185) rotate(0)"><rect width="20" height="2" fill="#368c43"/><rect y="4" width="20" height="2" fill="#368c43"/><rect y="8" width="20" height="2" fill="#368c43"/><rect y="12" width="20" height="2" fill="#368c43"/><rect y="16" width="20" height="2" fill="#368c43"/></g><g transform="translate(151.86,334.09) scale(1.5185) rotate(0)"><rect width="2" height="20" fill="#a1b5cc"/><rect x="4" width="2" height="20" fill="#a1b5cc"/><rect x="8" width="2" height="20" fill="#a1b5cc"/><rect x="12" width="2" height="20" fill="#a1b5cc"/><rect x="16" width="2" height="20" fill="#a1b5cc"/></g><g transform="translate(182.23,303.71) scale(3.037) rotate(0)"><path d="M10 0L20 10L10 20L0 10L10 0Z" fill="#8b0626"/></g><g transform="translate(242.97,303.71) scale(3.037) rotate(0)"><rect width="20" height="2" fill="#458092"/><rect y="4" width="20" height="2" fill="#458092"/><rect y="8" width="20" height="2" fill="#458092"/><rect y="12" width="20" height="2" fill="#458092"/><rect y="16" width="20" height="2" fill="#458092"/></g><rect x="303.7142857142857" y="303.7142857142857" width="60.74285714285715" height="60.74285714285715" fill="#a7e2f6"/><g transform="translate(303.71,303.71) scale(1.5185) rotate(0)"><rect width="2" height="20" fill="#9b859e"/><rect x="4" width="2" height="20" fill="#9b859e"/><rect x="8" width="2" height="20" fill="#9b859e"/><rect x="12" width="2" height="20" fill="#9b859e"/><rect x="16" width="2" height="20" fill="#9b859e"/></g><g transform="translate(334.09,303.71) scale(1.5185) rotate(0)"><path d="M10 1L12.2451 7.90983H19.5106L13.6327 12.1803L15.8779 19.0902L10 14.8197L4.12215 19.0902L6.36729 12.1803L0.489441 7.90983H7.75487L10 1Z" fill="#9b869f"/></g><g transform="translate(303.71,334.09) scale(1.5185) rotate(0)"><path d="M10 1L12.2451 7.90983H19.5106L13.6327 12.1803L15.8779 19.0902L10 14.8197L4.12215 19.0902L6.36729 12.1803L0.489441 7.90983H7.75487L10 1Z" fill="#87cac3"/></g><g transform="translate(334.09,334.09) scale(1.5185) rotate(0)"><path d="M10 0L20 10L10 20L0 10L10 0Z" fill="#8f2846"/></g><rect x="364.4571428571429" y="303.7142857142857" width="60.74285714285715" height="60.74285714285715" fill="#a7e2f6"/><g transform="translate(364.46,303.71) scale(1.5185) rotate(0)"><rect width="2" height="20" fill="#4a9b62"/><rect x="4" width="2" height="20" fill="#4a9b62"/><rect x="8" width="2" height="20" fill="#4a9b62"/><rect x="12" width="2" height="20" fill="#4a9b62"/><rect x="16" width="2" height="20" fill="#4a9b62"/></g><g transform="translate(394.83,303.71) scale(1.5185) rotate(0)"><path d="M10 1L12.2451 7.90983H19.5106L13.6327 12.1803L15.8779 19.0902L10 14.8197L4.12215 19.0902L6.36729 12.1803L0.489441 7.90983H7.75487L10 1Z" fill="#9a9c30"/></g><g transform="translate(364.46,334.09) scale(1.5185) rotate(0)"><rect width="2" height="20" fill="#a2c5a4"/><rect x="4" width="2" height="20" fill="#a2c5a4"/><rect x="8" width="2" height="20" fill="#a2c5a4"/><rect x="12" width="2" height="20" fill="#a2c5a4"/><rect x="16" width="2" height="20" fill="#a2c5a4"/></g><g transform="translate(394.83,334.09) scale(1.5185) rotate(0)"><path fill-rule="evenodd" clip-rule="evenodd" d="M10 20C15.5228 20 20 15.5228 20 10C20 4.47715 15.5228 0 10 0C4.47715 0 0 4.47715 0 10C0 15.5228 4.47715 20 10 20ZM10 17C13.866 17 17 13.866 17 10C17 6.13401 13.866 3 10 3C6.13401 3 3 6.13401 3 10C3 13.866 6.13401 17 10 17Z" fill="#99951b"/></g><g transform="translate(425.2,303.71) scale(3.037) rotate(0)"><path fill-rule="evenodd" clip-rule="evenodd" d="M10 20C15.5228 20 20 15.5228 20 10C20 4.47715 15.5228 0 10 0C4.47715 0 0 4.47715 0 10C0 15.5228 4.47715 20 10 20ZM10 17C13.866 17 17 13.866 17 10C17 6.13401 13.866 3 10 3C6.13401 3 3 6.13401 3 10C3 13.866 6.13401 17 10 17Z" fill="#9eb067"/></g><g transform="translate(485.94,303.71) scale(3.037) rotate(0)"><rect width="2" height="20" fill="#9a8099"/><rect x="4" width="2" height="20" fill="#9a8099"/><rect x="8" width="2" height="20" fill="#9a8099"/><rect x="12" width="2" height="20" fill="#9a8099"/><rect x="16" width="2" height="20" fill="#9a8099"/></g><g transform="translate(546.69,303.71) scale(3.037) rotate(0)"><path d="M10 5L5 0L0 5L5 10L0 15L5 20L10 15L15 20L20 15L15 10L20 5L15 0L10 5Z" fill="#a1dcf0"/></g><rect x="607.4285714285714" y="303.7142857142857" width="60.74285714285715" height="60.74285714285715" fill="#a7e2f6"/><g transform="translate(607.43,303.71) scale(1.5185) rotate(0)"><path fill-rule="evenodd" clip-rule="evenodd" d="M10 20C15.5228 20 20 15.5228 20 10C20 4.47715 15.5228 0 10 0C4.47715 0 0 4.47715 0 10C0 15.5228 4.47715 20 10 20ZM10 17C13.866 17 17 13.866 17 10C17 6.13401 13.866 3 10 3C6.13401 3 3 6.13401 3 10C3 13.866 6.13401 17 10 17Z" fill="#a0bd8e"/></g><g transform="translate(637.8,303.71) scale(1.5185) rotate(0)"><path d="M10 0L20 10L10 20L0 10L10 0Z" fill="#9dd8ec"/></g><g transform="translate(607.43,334.09) scale(1.5185) rotate(0)"><path d="M10 1L12.2451 7.90983H19.5106L13.6327 12.1803L15.8779 19.0902L10 14.8197L4.12215 19.0902L6.36729 12.1803L0.489441 7.90983H7.75487L10 1Z" fill="#9a8099"/></g><g transform="translate(637.8,334.09) scale(1.5185) rotate(0)"><rect width="2" height="20" fill="#a0adc4"/><rect x="4" width="2" height="20" fill="#a0adc4"/><rect x="8" width="2" height="20" fill="#a0adc4"/><rect x="12" width="2" height="20" fill="#a0adc4"/><rect x="16" width="2" height="20" fill="#a0adc4"/></g><g transform="translate(668.17,303.71) scale(3.037) rotate(0)"><path d="M10 5L5 0L0 5L5 10L0 15L5 20L10 15L15 20L20 15L15 10L20 5L15 0L10 5Z" fill="#a4d4cf"/></g><g transform="translate(728.91,303.71) scale(3.037) rotate(0)"><path d="M10 0L20 10L10 20L0 10L10 0Z" fill="#70b89f"/></g><rect x="0" y="364.4571428571429" width="60.74285714285715" height="60.74285714285715" fill="#a7e2f6"/><g transform="translate(0,364.46) scale(1.5185) rotate(0)"><rect width="20" height="2" fill="#7cb7ca"/><rect y="4" width="20" height="2" fill="#7cb7ca"/><rect y="8" width="20" height="2" fill="#7cb7ca"/><rect y="12" width="20" height="2" fill="#7cb7ca"/><rect y="16" width="20" height="2" fill="#7cb7ca"/></g><g transform="translate(30.37,364.46) scale(1.5185) rotate(0)"><rect width="20" height="2" fill="#903250"/><rect y="4" width="20" height="2" fill="#903250"/><rect y="8" width="20" height="2" fill="#903250"/><rect y="12" width="20" height="2" fill="#903250"/><rect y="16" width="20" height="2" fill="#903250"/></g><g transform="translate(0,394.83) scale(1.5185) rotate(0)"><rect width="2" height="20" fill="#2e8636"/><rect x="4" width="2" height="20" fill="#2e8636"/><rect x="8" width="2" height="20" fill="#2e8636"/><rect x="12" width="2" height="20" fill="#2e8636"/><rect x="16" width="2" height="20" fill="#2e8636"/></g><g transform="translate(30.37,394.83) scale(1.5185) rotate(0)"><rect width="20" height="2" fill="#86c9c1"/><rect y="4" width="20" height="2" fill="#86c9c1"/><rect y="8" width="20" height="2" fill="#86c9c1"/><rect y="12" width="20" height="2" fill="#86c9c1"/><rect y="16" width="20" height="2" fill="#86c9c1"/></g><g transform="translate(60.74,364.46) scale(3.037) rotate(0)"><path d="M10 0L20 10L10 20L0 10L10 0Z" fill="#4b9b63"/></g><g transform="translate(121.49,364.46) scale(3.037) rotate(0)"><path d="M10 1L12.2451 7.90983H19.5106L13.6327 12.1803L15.8779 19.0902L10 14.8197L4.12215 19.0902L6.36729 12.1803L0.489441 7.90983H7.75487L10 1Z" fill="#6db599"/></g><rect x="182.22857142857146" y="364.4571428571429" width="60.74285714285715" height="60.74285714285715" fill="#a7e2f6"/><g transform="translate(182.23,364.46) scale(1.5185) rotate(0)"><rect width="20" height="2" fill="#9d95ad"/><rect y="4" width="20" height="2" fill="#9d95ad"/><rect y="8" width="20" height="2" fill="#9d95ad"/><rect y="12" width="20" height="2" fill="#9d95ad"/><rect y="16" width="20" height="2" fill="#9d95ad"/></g><g transform="translate(212.6,364.46) scale(1.5185) rotate(0)"><rect width="2" height="20" fill="#2e8535"/><rect x="4" width="2" height="20" fill="#2e8535"/><rect x="8" width="2" height="20" fill="#2e8535"/><rect x="12" width="2" height="20" fill="#2e8535"/><rect x="16" width="2" height="20" fill="#2e8535"/></g><g transform="translate(182.23,394.83) scale(1.5185) rotate(0)"><path fill-rule="evenodd" clip-rule="evenodd" d="M10 20C15.5228 20 20 15.5228 20 10C20 4.47715 15.5228 0 10 0C4.47715 0 0 4.47715 0 10C0 15.5228 4.47715 20 10 20ZM10 17C13.866 17 17 13.866 17 10C17 6.13401 13.866 3 10 3C6.13401 3 3 6.13401 3 10C3 13.866 6.13401 17 10 17Z" fill="#6ba6b8"/></g><g transform="translate(212.6,394.83) scale(1.5185) rotate(0)"><path d="M10 5L5 0L0 5L5 10L0 15L5 20L10 15L15 20L20 15L15 10L20 5L15 0L10 5Z" fill="#50a06c"/></g><g transform="translate(242.97,364.46) scale(3.037) rotate(0)"><path fill-rule="evenodd" clip-rule="evenodd" d="M10 20C15.5228 20 20 15.5228 20 10C20 4.47715 15.5228 0 10 0C4.47715 0 0 4.47715 0 10C0 15.5228 4.47715 20 10 20ZM10 17C13.866 17 17 13.866 17 10C17 6.13401 13.866 3 10 3C6.13401 3 3 6.13401 3 10C3 13.866 6.13401 17 10 17Z" fill="#a4d2ca"/></g><g transform="translate(303.71,364.46) scale(3.037) rotate(0)"><path d="M10 5L5 0L0 5L5 10L0 15L5 20L10 15L15 20L20 15L15 10L20 5L15 0L10 5Z" fill="#1f7a1e"/></g><rect x="364.4571428571429" y="364.4571428571429" width="60.74285714285715" height="60.74285714285715" fill="#a7e2f6"/><g transform="translate(364.46,364.46) scale(1.5185) rotate(0)"><path fill-rule="evenodd" clip-rule="evenodd" d="M10 20C15.5228 20 20 15.5228 20 10C20 4.47715 15.5228 0 10 0C4.47715 0 0 4.47715 0 10C0 15.5228 4.47715 20 10 20ZM10 17C13.866 17 17 13.866 17 10C17 6.13401 13.866 3 10 3C6.13401 3 3 6.13401 3 10C3 13.866 6.13401 17 10 17Z" fill="#65b08d"/></g><g transform="translate(394.83,364.46) scale(1.5185) rotate(0)"><path d="M10 0L20 10L10 20L0 10L10 0Z" fill="#7fbacd"/></g><g transform="translate(364.46,394.83) scale(1.5185) rotate(0)"><path d="M10 1L12.2451 7.90983H19.5106L13.6327 12.1803L15.8779 19.0902L10 14.8197L4.12215 19.0902L6.36729 12.1803L0.489441 7.90983H7.75487L10 1Z" fill="#9c8ba3"/></g><g transform="translate(394.83,394.83) scale(1.5185) rotate(0)"><rect width="20" height="2" fill="#4d9d67"/><rect y="4" width="20" height="2" fill="#4d9d67"/><rect y="8" width="20" height="2" fill="#4d9d67"/><rect y="12" width="20" height="2" fill="#4d9d67"/><rect y="16" width="20" height="2" fill="#4d9d67"/></g><rect x="425.20000000000005" y="364.4571428571429" width="60.74285714285715" height="60.74285714285715" fill="#a7e2f6"/><g transform="translate(425.2,364.46) scale(1.5185) rotate(0)"><path d="M10 0L20 10L10 20L0 10L10 0Z" fill="#9a9e35"/></g><g transform="translate(455.57,364.46) scale(1.5185) rotate(0)"><rect width="2" height="20" fill="#99951c"/><rect x="4" width="2" height="20" fill="#99951c"/><rect x="8" width="2" height="20" fill="#99951c"/><rect x="12" width="2" height="20" fill="#99951c"/><rect x="16" width="2" height="20" fill="#99951c"/></g><g transform="translate(425.2,394.83) scale(1.5185) rotate(0)"><rect width="20" height="2" fill="#a0bf92"/><rect y="4" width="20" height="2" fill="#a0bf92"/><rect y="8" width="20" height="2" fill="#a0bf92"/><rect y="12" width="20" height="2" fill="#a0bf92"/><rect y="16" width="20" height="2" fill="#a0bf92"/></g><g transform="translate(455.57,394.83) scale(1.5185) rotate(0)"><rect width="2" height="20" fill="#165162"/><rect x="4" width="2" height="20" fill="#165162"/><rect x="8" width="2" height="20" fill="#165162"/><rect x="12" width="2" height="20" fill="#165162"/><rect x="16" width="2" height="20" fill="#165162"/></g><g transform="translate(485.94,364.46) scale(3.037) rotate(0)"><rect width="20" height="2" fill="#72b9a1"/><rect y="4" width="20" height="2" fill="#72b9a1"/><rect y="8" width="20" height="2" fill="#72b9a1"/><rect y="12" width="20" height="2" fill="#72b9a1"/><rect y="16" width="20" height="2" fill="#72b9a1"/></g><g transform="translate(546.69,364.46) scale(3.037) rotate(0)"><rect width="20" height="2" fill="#5ca87e"/><rect y="4" width="20" height="2" fill="#5ca87e"/><rect y="8" width="20" height="2" fill="#5ca87e"/><rect y="12" width="20" height="2" fill="#5ca87e"/><rect y="16" width="20" height="2" fill="#5ca87e"/></g><g transform="translate(607.43,364.46) scale(3.037) rotate(0)"><path d="M10 5L5 0L0 5L5 10L0 15L5 20L10 15L15 20L20 15L15 10L20 5L15 0L10 5Z" fill="#85c8c0"/></g><g transform="translate(668.17,364.46) scale(3.037) rotate(0)"><path fill-rule="evenodd" clip-rule="evenodd" d="M10 20C15.5228 20 20 15.5228 20 10C20 4.47715 15.5228 0 10 0C4.47715 0 0 4.47715 0 10C0 15.5228 4.47715 20 10 20ZM10 17C13.866 17 17 13.866 17 10C17 6.13401 13.866 3 10 3C6.13401 3 3 6.13401 3 10C3 13.866 6.13401 17 10 17Z" fill="#8d1433"/></g><g transform="translate(728.91,364.46) scale(3.037) rotate(0)"><path fill-rule="evenodd" clip-rule="evenodd" d="M10 20C15.5228 20 20 15.5228 20 10C20 4.47715 15.5228 0 10 0C4.47715 0 0 4.47715 0 10C0 15.5228 4.47715 20 10 20ZM10 17C13.866 17 17 13.866 17 10C17 6.13401 13.866 3 10 3C6.13401 3 3 6.13401 3 10C3 13.866 6.13401 17 10 17Z" fill="#8ecfce"/></g></g></svg>