<?xml version="1.0" standalone="no"?><svg xmlns:xlink="http://www.w3.org/1999/xlink" xmlns="http://www.w3.org/2000/svg" viewBox="0 0 1000 538.4664091686191" preserveAspectRatio="xMaxYMax slice"><g transform="scale(1.2663838409421897)"><rect x="0" y="0" width="789.657142857143" height="425.20000000000005" fill="#5e0061"/><g transform="translate(0,0) scale(3.037) rotate(0)"><path d="M10 5L5 0L0 5L5 10L0 15L5 20L10 15L15 20L20 15L15 10L20 5L15 0L10 5Z" fill="#2f8bc1"/></g><rect x="60.74" y="0" width="60.74" height="60.74" fill="#396ead"/><rect x="121.49" y="0" width="60.74" height="60.74" fill="#88435d"/><g transform="translate(182.23,0) scale(3.037) rotate(0)"><rect width="2" height="20" fill="#2b97c9"/><rect x="4" width="2" height="20" fill="#2b97c9"/><rect x="8" width="2" height="20" fill="#2b97c9"/><rect x="12" width="2" height="20" fill="#2b97c9"/><rect x="16" width="2" height="20" fill="#2b97c9"/></g><rect x="242.9714285714286" y="0" width="60.74285714285715" height="60.74285714285715" fill="#5e0061"/><g transform="translate(242.97,0) scale(1.5185) rotate(0)"><rect width="20" height="2" fill="#6e0561"/><rect y="4" width="20" height="2" fill="#6e0561"/><rect y="8" width="20" height="2" fill="#6e0561"/><rect y="12" width="20" height="2" fill="#6e0561"/><rect y="16" width="20" height="2" fill="#6e0561"/></g><rect x="273.34" y="0" width="30.37" height="30.37" fill="#d9c456"/><g transform="translate(242.97,30.37) scale(1.5185) rotate(0)"><rect width="20" height="2" fill="#a4705b"/><rect y="4" width="20" height="2" fill="#a4705b"/><rect y="8" width="20" height="2" fill="#a4705b"/><rect y="12" width="20" height="2" fill="#a4705b"/><rect y="16" width="20" height="2" fill="#a4705b"/></g><rect x="273.34" y="30.37" width="30.37" height="30.37" fill="#87425d"/><g transform="translate(303.71,0) scale(3.037) rotate(0)"><path d="M10 5L5 0L0 5L5 10L0 15L5 20L10 15L15 20L20 15L15 10L20 5L15 0L10 5Z" fill="#464691"/></g><g transform="translate(364.46,0) scale(3.037) rotate(0)"><rect width="2" height="20" fill="#b99159"/><rect x="4" width="2" height="20" fill="#b99159"/><rect x="8" width="2" height="20" fill="#b99159"/><rect x="12" width="2" height="20" fill="#b99159"/><rect x="16" width="2" height="20" fill="#b99159"/></g><rect x="425.20000000000005" y="0" width="60.74285714285715" height="60.74285714285715" fill="#5e0061"/><g transform="translate(425.2,0) scale(1.5185) rotate(0)"><path d="M10 5L5 0L0 5L5 10L0 15L5 20L10 15L15 20L20 15L15 10L20 5L15 0L10 5Z" fill="#25a9d5"/></g><rect x="455.57" y="0" width="30.37" height="30.37" fill="#a7755a"/><rect x="425.2" y="30.37" width="30.37" height="30.37" fill="#2e8ec3"/><g transform="translate(455.57,30.37) scale(1.5185) rotate(0)"><rect width="2" height="20" fill="#8c0f62"/><rect x="4" width="2" height="20" fill="#8c0f62"/><rect x="8" width="2" height="20" fill="#8c0f62"/><rect x="12" width="2" height="20" fill="#8c0f62"/><rect x="16" width="2" height="20" fill="#8c0f62"/></g><g transform="translate(485.94,0) scale(3.037) rotate(0)"><rect width="2" height="20" fill="#dd2a64"/><rect x="4" width="2" height="20" fill="#dd2a64"/><rect x="8" width="2" height="20" fill="#dd2a64"/><rect x="12" width="2" height="20" fill="#dd2a64"/><rect x="16" width="2" height="20" fill="#dd2a64"/></g><rect x="546.6857142857143" y="0" width="60.74285714285715" height="60.74285714285715" fill="#5e0061"/><rect x="546.69" y="0" width="30.37" height="30.37" fill="#454a94"/><g transform="translate(577.06,0) scale(1.5185) rotate(0)"><path d="M10 5L5 0L0 5L5 10L0 15L5 20L10 15L15 20L20 15L15 10L20 5L15 0L10 5Z" fill="#e92e64"/></g><g transform="translate(546.69,30.37) scale(1.5185) rotate(0)"><rect width="2" height="20" fill="#fd3465"/><rect x="4" width="2" height="20" fill="#fd3465"/><rect x="8" width="2" height="20" fill="#fd3465"/><rect x="12" width="2" height="20" fill="#fd3465"/><rect x="16" width="2" height="20" fill="#fd3465"/></g><g transform="translate(577.06,30.37) scale(1.5185) rotate(0)"><rect width="20" height="2" fill="#27a4d2"/><rect y="4" width="20" height="2" fill="#27a4d2"/><rect y="8" width="20" height="2" fill="#27a4d2"/><rect y="12" width="20" height="2" fill="#27a4d2"/><rect y="16" width="20" height="2" fill="#27a4d2"/></g><rect x="607.43" y="0" width="60.74" height="60.74" fill="#5f0061"/><g transform="translate(668.17,0) scale(3.037) rotate(0)"><path d="M10 5L5 0L0 5L5 10L0 15L5 20L10 15L15 20L20 15L15 10L20 5L15 0L10 5Z" fill="#8e1062"/></g><g transform="translate(728.91,0) scale(3.037) rotate(0)"><path d="M10 5L5 0L0 5L5 10L0 15L5 20L10 15L15 20L20 15L15 10L20 5L15 0L10 5Z" fill="#640a60"/></g><g transform="translate(0,60.74) scale(3.037) rotate(0)"><rect width="2" height="20" fill="#d0b757"/><rect x="4" width="2" height="20" fill="#d0b757"/><rect x="8" width="2" height="20" fill="#d0b757"/><rect x="12" width="2" height="20" fill="#d0b757"/><rect x="16" width="2" height="20" fill="#d0b757"/></g><g transform="translate(60.74,60.74) scale(3.037) rotate(0)"><rect width="2" height="20" fill="#9f1563"/><rect x="4" width="2" height="20" fill="#9f1563"/><rect x="8" width="2" height="20" fill="#9f1563"/><rect x="12" width="2" height="20" fill="#9f1563"/><rect x="16" width="2" height="20" fill="#9f1563"/></g><g transform="translate(121.49,60.74) scale(3.037) rotate(0)"><rect width="2" height="20" fill="#ceb357"/><rect x="4" width="2" height="20" fill="#ceb357"/><rect x="8" width="2" height="20" fill="#ceb357"/><rect x="12" width="2" height="20" fill="#ceb357"/><rect x="16" width="2" height="20" fill="#ceb357"/></g><rect x="182.22857142857146" y="60.74285714285715" width="60.74285714285715" height="60.74285714285715" fill="#5e0061"/><g transform="translate(182.23,60.74) scale(1.5185) rotate(0)"><rect width="20" height="2" fill="#3283bc"/><rect y="4" width="20" height="2" fill="#3283bc"/><rect y="8" width="20" height="2" fill="#3283bc"/><rect y="12" width="20" height="2" fill="#3283bc"/><rect y="16" width="20" height="2" fill="#3283bc"/></g><rect x="212.6" y="60.74" width="30.37" height="30.37" fill="#c7a857"/><g transform="translate(182.23,91.11) scale(1.5185) rotate(0)"><rect width="2" height="20" fill="#5c0766"/><rect x="4" width="2" height="20" fill="#5c0766"/><rect x="8" width="2" height="20" fill="#5c0766"/><rect x="12" width="2" height="20" fill="#5c0766"/><rect x="16" width="2" height="20" fill="#5c0766"/></g><g transform="translate(212.6,91.11) scale(1.5185) rotate(0)"><rect width="20" height="2" fill="#57146f"/><rect y="4" width="20" height="2" fill="#57146f"/><rect y="8" width="20" height="2" fill="#57146f"/><rect y="12" width="20" height="2" fill="#57146f"/><rect y="16" width="20" height="2" fill="#57146f"/></g><g transform="translate(242.97,60.74) scale(3.037) rotate(0)"><path d="M10 5L5 0L0 5L5 10L0 15L5 20L10 15L15 20L20 15L15 10L20 5L15 0L10 5Z" fill="#e62d64"/></g><g transform="translate(303.71,60.74) scale(3.037) rotate(0)"><path d="M10 5L5 0L0 5L5 10L0 15L5 20L10 15L15 20L20 15L15 10L20 5L15 0L10 5Z" fill="#833c5e"/></g><g transform="translate(364.46,60.74) scale(3.037) rotate(0)"><rect width="2" height="20" fill="#ccb057"/><rect x="4" width="2" height="20" fill="#ccb057"/><rect x="8" width="2" height="20" fill="#ccb057"/><rect x="12" width="2" height="20" fill="#ccb057"/><rect x="16" width="2" height="20" fill="#ccb057"/></g><g transform="translate(425.2,60.74) scale(3.037) rotate(0)"><rect width="2" height="20" fill="#a01663"/><rect x="4" width="2" height="20" fill="#a01663"/><rect x="8" width="2" height="20" fill="#a01663"/><rect x="12" width="2" height="20" fill="#a01663"/><rect x="16" width="2" height="20" fill="#a01663"/></g><rect x="485.94" y="60.74" width="60.74" height="60.74" fill="#5a0c6a"/><rect x="546.69" y="60.74" width="60.74" height="60.74" fill="#474490"/><rect x="607.4285714285714" y="60.74285714285715" width="60.74285714285715" height="60.74285714285715" fill="#5e0061"/><g transform="translate(607.43,60.74) scale(1.5185) rotate(0)"><path d="M10 5L5 0L0 5L5 10L0 15L5 20L10 15L15 20L20 15L15 10L20 5L15 0L10 5Z" fill="#e5d755"/></g><rect x="637.8" y="60.74" width="30.37" height="30.37" fill="#9d665b"/><g transform="translate(607.43,91.11) scale(1.5185) rotate(0)"><path d="M10 5L5 0L0 5L5 10L0 15L5 20L10 15L15 20L20 15L15 10L20 5L15 0L10 5Z" fill="#cdb257"/></g><g transform="translate(637.8,91.11) scale(1.5185) rotate(0)"><path d="M10 5L5 0L0 5L5 10L0 15L5 20L10 15L15 20L20 15L15 10L20 5L15 0L10 5Z" fill="#a81863"/></g><g transform="translate(668.17,60.74) scale(3.037) rotate(0)"><rect width="2" height="20" fill="#48408d"/><rect x="4" width="2" height="20" fill="#48408d"/><rect x="8" width="2" height="20" fill="#48408d"/><rect x="12" width="2" height="20" fill="#48408d"/><rect x="16" width="2" height="20" fill="#48408d"/></g><rect x="728.91" y="60.74" width="60.74" height="60.74" fill="#5f0261"/><g transform="translate(0,121.49) scale(3.037) rotate(0)"><rect width="20" height="2" fill="#5c0766"/><rect y="4" width="20" height="2" fill="#5c0766"/><rect y="8" width="20" height="2" fill="#5c0766"/><rect y="12" width="20" height="2" fill="#5c0766"/><rect y="16" width="20" height="2" fill="#5c0766"/></g><g transform="translate(60.74,121.49) scale(3.037) rotate(0)"><rect width="20" height="2" fill="#e1d255"/><rect y="4" width="20" height="2" fill="#e1d255"/><rect y="8" width="20" height="2" fill="#e1d255"/><rect y="12" width="20" height="2" fill="#e1d255"/><rect y="16" width="20" height="2" fill="#e1d255"/></g><rect x="121.4857142857143" y="121.4857142857143" width="60.74285714285715" height="60.74285714285715" fill="#5e0061"/><g transform="translate(121.49,121.49) scale(1.5185) rotate(0)"><rect width="2" height="20" fill="#9b625b"/><rect x="4" width="2" height="20" fill="#9b625b"/><rect x="8" width="2" height="20" fill="#9b625b"/><rect x="12" width="2" height="20" fill="#9b625b"/><rect x="16" width="2" height="20" fill="#9b625b"/></g><g transform="translate(151.86,121.49) scale(1.5185) rotate(0)"><rect width="20" height="2" fill="#57146f"/><rect y="4" width="20" height="2" fill="#57146f"/><rect y="8" width="20" height="2" fill="#57146f"/><rect y="12" width="20" height="2" fill="#57146f"/><rect y="16" width="20" height="2" fill="#57146f"/></g><rect x="121.49" y="151.86" width="30.37" height="30.37" fill="#be9a58"/><g transform="translate(151.86,151.86) scale(1.5185) rotate(0)"><rect width="20" height="2" fill="#ebe154"/><rect y="4" width="20" height="2" fill="#ebe154"/><rect y="8" width="20" height="2" fill="#ebe154"/><rect y="12" width="20" height="2" fill="#ebe154"/><rect y="16" width="20" height="2" fill="#ebe154"/></g><g transform="translate(182.23,121.49) scale(3.037) rotate(0)"><rect width="2" height="20" fill="#532278"/><rect x="4" width="2" height="20" fill="#532278"/><rect x="8" width="2" height="20" fill="#532278"/><rect x="12" width="2" height="20" fill="#532278"/><rect x="16" width="2" height="20" fill="#532278"/></g><g transform="translate(242.97,121.49) scale(3.037) rotate(0)"><path d="M10 5L5 0L0 5L5 10L0 15L5 20L10 15L15 20L20 15L15 10L20 5L15 0L10 5Z" fill="#cc2464"/></g><g transform="translate(303.71,121.49) scale(3.037) rotate(0)"><rect width="20" height="2" fill="#e1d155"/><rect y="4" width="20" height="2" fill="#e1d155"/><rect y="8" width="20" height="2" fill="#e1d155"/><rect y="12" width="20" height="2" fill="#e1d155"/><rect y="16" width="20" height="2" fill="#e1d155"/></g><g transform="translate(364.46,121.49) scale(3.037) rotate(0)"><path d="M10 5L5 0L0 5L5 10L0 15L5 20L10 15L15 20L20 15L15 10L20 5L15 0L10 5Z" fill="#853f5d"/></g><rect x="425.2" y="121.49" width="60.74" height="60.74" fill="#e2d355"/><rect x="485.94" y="121.49" width="60.74" height="60.74" fill="#ef3065"/><rect x="546.6857142857143" y="121.4857142857143" width="60.74285714285715" height="60.74285714285715" fill="#5e0061"/><g transform="translate(546.69,121.49) scale(1.5185) rotate(0)"><rect width="20" height="2" fill="#75255f"/><rect y="4" width="20" height="2" fill="#75255f"/><rect y="8" width="20" height="2" fill="#75255f"/><rect y="12" width="20" height="2" fill="#75255f"/><rect y="16" width="20" height="2" fill="#75255f"/></g><g transform="translate(577.06,121.49) scale(1.5185) rotate(0)"><path d="M10 5L5 0L0 5L5 10L0 15L5 20L10 15L15 20L20 15L15 10L20 5L15 0L10 5Z" fill="#48418e"/></g><g transform="translate(546.69,151.86) scale(1.5185) rotate(0)"><rect width="20" height="2" fill="#660d60"/><rect y="4" width="20" height="2" fill="#660d60"/><rect y="8" width="20" height="2" fill="#660d60"/><rect y="12" width="20" height="2" fill="#660d60"/><rect y="16" width="20" height="2" fill="#660d60"/></g><rect x="577.06" y="151.86" width="30.37" height="30.37" fill="#a26c5b"/><g transform="translate(607.43,121.49) scale(3.037) rotate(0)"><rect width="2" height="20" fill="#474591"/><rect x="4" width="2" height="20" fill="#474591"/><rect x="8" width="2" height="20" fill="#474591"/><rect x="12" width="2" height="20" fill="#474591"/><rect x="16" width="2" height="20" fill="#474591"/></g><g transform="translate(668.17,121.49) scale(3.037) rotate(0)"><rect width="20" height="2" fill="#59106c"/><rect y="4" width="20" height="2" fill="#59106c"/><rect y="8" width="20" height="2" fill="#59106c"/><rect y="12" width="20" height="2" fill="#59106c"/><rect y="16" width="20" height="2" fill="#59106c"/></g><rect x="728.9142857142858" y="121.4857142857143" width="60.74285714285715" height="60.74285714285715" fill="#5e0061"/><g transform="translate(728.91,121.49) scale(1.5185) rotate(0)"><rect width="2" height="20" fill="#a16c5b"/><rect x="4" width="2" height="20" fill="#a16c5b"/><rect x="8" width="2" height="20" fill="#a16c5b"/><rect x="12" width="2" height="20" fill="#a16c5b"/><rect x="16" width="2" height="20" fill="#a16c5b"/></g><rect x="759.29" y="121.49" width="30.37" height="30.37" fill="#405a9f"/><g transform="translate(728.91,151.86) scale(1.5185) rotate(0)"><path d="M10 5L5 0L0 5L5 10L0 15L5 20L10 15L15 20L20 15L15 10L20 5L15 0L10 5Z" fill="#74235f"/></g><g transform="translate(759.29,151.86) scale(1.5185) rotate(0)"><rect width="2" height="20" fill="#2a9bcc"/><rect x="4" width="2" height="20" fill="#2a9bcc"/><rect x="8" width="2" height="20" fill="#2a9bcc"/><rect x="12" width="2" height="20" fill="#2a9bcc"/><rect x="16" width="2" height="20" fill="#2a9bcc"/></g><rect x="0" y="182.23" width="60.74" height="60.74" fill="#bb1f63"/><g transform="translate(60.74,182.23) scale(3.037) rotate(0)"><path d="M10 5L5 0L0 5L5 10L0 15L5 20L10 15L15 20L20 15L15 10L20 5L15 0L10 5Z" fill="#444d96"/></g><rect x="121.49" y="182.23" width="60.74" height="60.74" fill="#f33165"/><rect x="182.22857142857146" y="182.22857142857146" width="60.74285714285715" height="60.74285714285715" fill="#5e0061"/><g transform="translate(182.23,182.23) scale(1.5185) rotate(0)"><rect width="2" height="20" fill="#da2964"/><rect x="4" width="2" height="20" fill="#da2964"/><rect x="8" width="2" height="20" fill="#da2964"/><rect x="12" width="2" height="20" fill="#da2964"/><rect x="16" width="2" height="20" fill="#da2964"/></g><g transform="translate(212.6,182.23) scale(1.5185) rotate(0)"><path d="M10 5L5 0L0 5L5 10L0 15L5 20L10 15L15 20L20 15L15 10L20 5L15 0L10 5Z" fill="#ba9459"/></g><g transform="translate(182.23,212.6) scale(1.5185) rotate(0)"><rect width="20" height="2" fill="#42549b"/><rect y="4" width="20" height="2" fill="#42549b"/><rect y="8" width="20" height="2" fill="#42549b"/><rect y="12" width="20" height="2" fill="#42549b"/><rect y="16" width="20" height="2" fill="#42549b"/></g><g transform="translate(212.6,212.6) scale(1.5185) rotate(0)"><rect width="20" height="2" fill="#eb2f65"/><rect y="4" width="20" height="2" fill="#eb2f65"/><rect y="8" width="20" height="2" fill="#eb2f65"/><rect y="12" width="20" height="2" fill="#eb2f65"/><rect y="16" width="20" height="2" fill="#eb2f65"/></g><rect x="242.9714285714286" y="182.22857142857146" width="60.74285714285715" height="60.74285714285715" fill="#5e0061"/><rect x="242.97" y="182.23" width="30.37" height="30.37" fill="#d9c656"/><g transform="translate(273.34,182.23) scale(1.5185) rotate(0)"><rect width="20" height="2" fill="#3773b1"/><rect y="4" width="20" height="2" fill="#3773b1"/><rect y="8" width="20" height="2" fill="#3773b1"/><rect y="12" width="20" height="2" fill="#3773b1"/><rect y="16" width="20" height="2" fill="#3773b1"/></g><g transform="translate(242.97,212.6) scale(1.5185) rotate(0)"><rect width="2" height="20" fill="#610161"/><rect x="4" width="2" height="20" fill="#610161"/><rect x="8" width="2" height="20" fill="#610161"/><rect x="12" width="2" height="20" fill="#610161"/><rect x="16" width="2" height="20" fill="#610161"/></g><g transform="translate(273.34,212.6) scale(1.5185) rotate(0)"><path d="M10 5L5 0L0 5L5 10L0 15L5 20L10 15L15 20L20 15L15 10L20 5L15 0L10 5Z" fill="#bf2063"/></g><g transform="translate(303.71,182.23) scale(3.037) rotate(0)"><rect width="2" height="20" fill="#c82364"/><rect x="4" width="2" height="20" fill="#c82364"/><rect x="8" width="2" height="20" fill="#c82364"/><rect x="12" width="2" height="20" fill="#c82364"/><rect x="16" width="2" height="20" fill="#c82364"/></g><rect x="364.46" y="182.23" width="60.74" height="60.74" fill="#be9a58"/><rect x="425.20000000000005" y="182.22857142857146" width="60.74285714285715" height="60.74285714285715" fill="#5e0061"/><g transform="translate(425.2,182.23) scale(1.5185) rotate(0)"><path d="M10 5L5 0L0 5L5 10L0 15L5 20L10 15L15 20L20 15L15 10L20 5L15 0L10 5Z" fill="#a8775a"/></g><rect x="455.57" y="182.23" width="30.37" height="30.37" fill="#ac7d5a"/><g transform="translate(425.2,212.6) scale(1.5185) rotate(0)"><path d="M10 5L5 0L0 5L5 10L0 15L5 20L10 15L15 20L20 15L15 10L20 5L15 0L10 5Z" fill="#454a94"/></g><g transform="translate(455.57,212.6) scale(1.5185) rotate(0)"><path d="M10 5L5 0L0 5L5 10L0 15L5 20L10 15L15 20L20 15L15 10L20 5L15 0L10 5Z" fill="#a31763"/></g><g transform="translate(485.94,182.23) scale(3.037) rotate(0)"><rect width="2" height="20" fill="#fd3465"/><rect x="4" width="2" height="20" fill="#fd3465"/><rect x="8" width="2" height="20" fill="#fd3465"/><rect x="12" width="2" height="20" fill="#fd3465"/><rect x="16" width="2" height="20" fill="#fd3465"/></g><g transform="translate(546.69,182.23) scale(3.037) rotate(0)"><rect width="20" height="2" fill="#810c62"/><rect y="4" width="20" height="2" fill="#810c62"/><rect y="8" width="20" height="2" fill="#810c62"/><rect y="12" width="20" height="2" fill="#810c62"/><rect y="16" width="20" height="2" fill="#810c62"/></g><rect x="607.43" y="182.23" width="60.74" height="60.74" fill="#b89159"/><rect x="668.1714285714286" y="182.22857142857146" width="60.74285714285715" height="60.74285714285715" fill="#5e0061"/><g transform="translate(668.17,182.23) scale(1.5185) rotate(0)"><rect width="2" height="20" fill="#3579b4"/><rect x="4" width="2" height="20" fill="#3579b4"/><rect x="8" width="2" height="20" fill="#3579b4"/><rect x="12" width="2" height="20" fill="#3579b4"/><rect x="16" width="2" height="20" fill="#3579b4"/></g><g transform="translate(698.54,182.23) scale(1.5185) rotate(0)"><rect width="2" height="20" fill="#41579d"/><rect x="4" width="2" height="20" fill="#41579d"/><rect x="8" width="2" height="20" fill="#41579d"/><rect x="12" width="2" height="20" fill="#41579d"/><rect x="16" width="2" height="20" fill="#41579d"/></g><rect x="668.17" y="212.6" width="30.37" height="30.37" fill="#86405d"/><g transform="translate(698.54,212.6) scale(1.5185) rotate(0)"><path d="M10 5L5 0L0 5L5 10L0 15L5 20L10 15L15 20L20 15L15 10L20 5L15 0L10 5Z" fill="#2d90c4"/></g><g transform="translate(728.91,182.23) scale(3.037) rotate(0)"><rect width="2" height="20" fill="#9b1463"/><rect x="4" width="2" height="20" fill="#9b1463"/><rect x="8" width="2" height="20" fill="#9b1463"/><rect x="12" width="2" height="20" fill="#9b1463"/><rect x="16" width="2" height="20" fill="#9b1463"/></g><rect x="0" y="242.97" width="60.74" height="60.74" fill="#57146f"/><g transform="translate(60.74,242.97) scale(3.037) rotate(0)"><rect width="20" height="2" fill="#6e0561"/><rect y="4" width="20" height="2" fill="#6e0561"/><rect y="8" width="20" height="2" fill="#6e0561"/><rect y="12" width="20" height="2" fill="#6e0561"/><rect y="16" width="20" height="2" fill="#6e0561"/></g><rect x="121.49" y="242.97" width="60.74" height="60.74" fill="#cdb257"/><g transform="translate(182.23,242.97) scale(3.037) rotate(0)"><rect width="2" height="20" fill="#95595c"/><rect x="4" width="2" height="20" fill="#95595c"/><rect x="8" width="2" height="20" fill="#95595c"/><rect x="12" width="2" height="20" fill="#95595c"/><rect x="16" width="2" height="20" fill="#95595c"/></g><rect x="242.9714285714286" y="242.9714285714286" width="60.74285714285715" height="60.74285714285715" fill="#5e0061"/><rect x="242.97" y="242.97" width="30.37" height="30.37" fill="#6d1960"/><g transform="translate(273.34,242.97) scale(1.5185) rotate(0)"><path d="M10 5L5 0L0 5L5 10L0 15L5 20L10 15L15 20L20 15L15 10L20 5L15 0L10 5Z" fill="#57146f"/></g><g transform="translate(242.97,273.34) scale(1.5185) rotate(0)"><path d="M10 5L5 0L0 5L5 10L0 15L5 20L10 15L15 20L20 15L15 10L20 5L15 0L10 5Z" fill="#a51763"/></g><g transform="translate(273.34,273.34) scale(1.5185) rotate(0)"><rect width="20" height="2" fill="#6a1460"/><rect y="4" width="20" height="2" fill="#6a1460"/><rect y="8" width="20" height="2" fill="#6a1460"/><rect y="12" width="20" height="2" fill="#6a1460"/><rect y="16" width="20" height="2" fill="#6a1460"/></g><g transform="translate(303.71,242.97) scale(3.037) rotate(0)"><rect width="20" height="2" fill="#3578b4"/><rect y="4" width="20" height="2" fill="#3578b4"/><rect y="8" width="20" height="2" fill="#3578b4"/><rect y="12" width="20" height="2" fill="#3578b4"/><rect y="16" width="20" height="2" fill="#3578b4"/></g><rect x="364.46" y="242.97" width="60.74" height="60.74" fill="#ece354"/><g transform="translate(425.2,242.97) scale(3.037) rotate(0)"><path d="M10 5L5 0L0 5L5 10L0 15L5 20L10 15L15 20L20 15L15 10L20 5L15 0L10 5Z" fill="#fb3465"/></g><g transform="translate(485.94,242.97) scale(3.037) rotate(0)"><rect width="2" height="20" fill="#750862"/><rect x="4" width="2" height="20" fill="#750862"/><rect x="8" width="2" height="20" fill="#750862"/><rect x="12" width="2" height="20" fill="#750862"/><rect x="16" width="2" height="20" fill="#750862"/></g><g transform="translate(546.69,242.97) scale(3.037) rotate(0)"><rect width="20" height="2" fill="#820c62"/><rect y="4" width="20" height="2" fill="#820c62"/><rect y="8" width="20" height="2" fill="#820c62"/><rect y="12" width="20" height="2" fill="#820c62"/><rect y="16" width="20" height="2" fill="#820c62"/></g><rect x="607.43" y="242.97" width="60.74" height="60.74" fill="#fe3565"/><rect x="668.17" y="242.97" width="60.74" height="60.74" fill="#c52264"/><g transform="translate(728.91,242.97) scale(3.037) rotate(0)"><rect width="20" height="2" fill="#3186be"/><rect y="4" width="20" height="2" fill="#3186be"/><rect y="8" width="20" height="2" fill="#3186be"/><rect y="12" width="20" height="2" fill="#3186be"/><rect y="16" width="20" height="2" fill="#3186be"/></g><rect x="0" y="303.7142857142857" width="60.74285714285715" height="60.74285714285715" fill="#5e0061"/><g transform="translate(0,303.71) scale(1.5185) rotate(0)"><path d="M10 5L5 0L0 5L5 10L0 15L5 20L10 15L15 20L20 15L15 10L20 5L15 0L10 5Z" fill="#a21663"/></g><g transform="translate(30.37,303.71) scale(1.5185) rotate(0)"><rect width="20" height="2" fill="#ed2f65"/><rect y="4" width="20" height="2" fill="#ed2f65"/><rect y="8" width="20" height="2" fill="#ed2f65"/><rect y="12" width="20" height="2" fill="#ed2f65"/><rect y="16" width="20" height="2" fill="#ed2f65"/></g><g transform="translate(0,334.09) scale(1.5185) rotate(0)"><rect width="20" height="2" fill="#6a1460"/><rect y="4" width="20" height="2" fill="#6a1460"/><rect y="8" width="20" height="2" fill="#6a1460"/><rect y="12" width="20" height="2" fill="#6a1460"/><rect y="16" width="20" height="2" fill="#6a1460"/></g><g transform="translate(30.37,334.09) scale(1.5185) rotate(0)"><path d="M10 5L5 0L0 5L5 10L0 15L5 20L10 15L15 20L20 15L15 10L20 5L15 0L10 5Z" fill="#5c0766"/></g><g transform="translate(60.74,303.71) scale(3.037) rotate(0)"><path d="M10 5L5 0L0 5L5 10L0 15L5 20L10 15L15 20L20 15L15 10L20 5L15 0L10 5Z" fill="#5e0162"/></g><rect x="121.49" y="303.71" width="60.74" height="60.74" fill="#740762"/><g transform="translate(182.23,303.71) scale(3.037) rotate(0)"><rect width="20" height="2" fill="#50297e"/><rect y="4" width="20" height="2" fill="#50297e"/><rect y="8" width="20" height="2" fill="#50297e"/><rect y="12" width="20" height="2" fill="#50297e"/><rect y="16" width="20" height="2" fill="#50297e"/></g><rect x="242.9714285714286" y="303.7142857142857" width="60.74285714285715" height="60.74285714285715" fill="#5e0061"/><rect x="242.97" y="303.71" width="30.37" height="30.37" fill="#b91e63"/><g transform="translate(273.34,303.71) scale(1.5185) rotate(0)"><rect width="20" height="2" fill="#bb1f63"/><rect y="4" width="20" height="2" fill="#bb1f63"/><rect y="8" width="20" height="2" fill="#bb1f63"/><rect y="12" width="20" height="2" fill="#bb1f63"/><rect y="16" width="20" height="2" fill="#bb1f63"/></g><g transform="translate(242.97,334.09) scale(1.5185) rotate(0)"><path d="M10 5L5 0L0 5L5 10L0 15L5 20L10 15L15 20L20 15L15 10L20 5L15 0L10 5Z" fill="#b38859"/></g><g transform="translate(273.34,334.09) scale(1.5185) rotate(0)"><rect width="2" height="20" fill="#ea2e64"/><rect x="4" width="2" height="20" fill="#ea2e64"/><rect x="8" width="2" height="20" fill="#ea2e64"/><rect x="12" width="2" height="20" fill="#ea2e64"/><rect x="16" width="2" height="20" fill="#ea2e64"/></g><rect x="303.7142857142857" y="303.7142857142857" width="60.74285714285715" height="60.74285714285715" fill="#5e0061"/><g transform="translate(303.71,303.71) scale(1.5185) rotate(0)"><path d="M10 5L5 0L0 5L5 10L0 15L5 20L10 15L15 20L20 15L15 10L20 5L15 0L10 5Z" fill="#50297d"/></g><g transform="translate(334.09,303.71) scale(1.5185) rotate(0)"><rect width="2" height="20" fill="#76265f"/><rect x="4" width="2" height="20" fill="#76265f"/><rect x="8" width="2" height="20" fill="#76265f"/><rect x="12" width="2" height="20" fill="#76265f"/><rect x="16" width="2" height="20" fill="#76265f"/></g><g transform="translate(303.71,334.09) scale(1.5185) rotate(0)"><rect width="20" height="2" fill="#8f1062"/><rect y="4" width="20" height="2" fill="#8f1062"/><rect y="8" width="20" height="2" fill="#8f1062"/><rect y="12" width="20" height="2" fill="#8f1062"/><rect y="16" width="20" height="2" fill="#8f1062"/></g><g transform="translate(334.09,334.09) scale(1.5185) rotate(0)"><path d="M10 5L5 0L0 5L5 10L0 15L5 20L10 15L15 20L20 15L15 10L20 5L15 0L10 5Z" fill="#8c4a5d"/></g><g transform="translate(364.46,303.71) scale(3.037) rotate(0)"><rect width="2" height="20" fill="#454a94"/><rect x="4" width="2" height="20" fill="#454a94"/><rect x="8" width="2" height="20" fill="#454a94"/><rect x="12" width="2" height="20" fill="#454a94"/><rect x="16" width="2" height="20" fill="#454a94"/></g><rect x="425.20000000000005" y="303.7142857142857" width="60.74285714285715" height="60.74285714285715" fill="#5e0061"/><g transform="translate(425.2,303.71) scale(1.5185) rotate(0)"><rect width="20" height="2" fill="#551a73"/><rect y="4" width="20" height="2" fill="#551a73"/><rect y="8" width="20" height="2" fill="#551a73"/><rect y="12" width="20" height="2" fill="#551a73"/><rect y="16" width="20" height="2" fill="#551a73"/></g><g transform="translate(455.57,303.71) scale(1.5185) rotate(0)"><path d="M10 5L5 0L0 5L5 10L0 15L5 20L10 15L15 20L20 15L15 10L20 5L15 0L10 5Z" fill="#730762"/></g><g transform="translate(425.2,334.09) scale(1.5185) rotate(0)"><rect width="2" height="20" fill="#d22664"/><rect x="4" width="2" height="20" fill="#d22664"/><rect x="8" width="2" height="20" fill="#d22664"/><rect x="12" width="2" height="20" fill="#d22664"/><rect x="16" width="2" height="20" fill="#d22664"/></g><g transform="translate(455.57,334.09) scale(1.5185) rotate(0)"><path d="M10 5L5 0L0 5L5 10L0 15L5 20L10 15L15 20L20 15L15 10L20 5L15 0L10 5Z" fill="#bf9c58"/></g><g transform="translate(485.94,303.71) scale(3.037) rotate(0)"><path d="M10 5L5 0L0 5L5 10L0 15L5 20L10 15L15 20L20 15L15 10L20 5L15 0L10 5Z" fill="#be9958"/></g><g transform="translate(546.69,303.71) scale(3.037) rotate(0)"><rect width="2" height="20" fill="#eae054"/><rect x="4" width="2" height="20" fill="#eae054"/><rect x="8" width="2" height="20" fill="#eae054"/><rect x="12" width="2" height="20" fill="#eae054"/><rect x="16" width="2" height="20" fill="#eae054"/></g><rect x="607.4285714285714" y="303.7142857142857" width="60.74285714285715" height="60.74285714285715" fill="#5e0061"/><g transform="translate(607.43,303.71) scale(1.5185) rotate(0)"><path d="M10 5L5 0L0 5L5 10L0 15L5 20L10 15L15 20L20 15L15 10L20 5L15 0L10 5Z" fill="#7d0a62"/></g><rect x="637.8" y="303.71" width="30.37" height="30.37" fill="#c72364"/><g transform="translate(607.43,334.09) scale(1.5185) rotate(0)"><rect width="2" height="20" fill="#782a5f"/><rect x="4" width="2" height="20" fill="#782a5f"/><rect x="8" width="2" height="20" fill="#782a5f"/><rect x="12" width="2" height="20" fill="#782a5f"/><rect x="16" width="2" height="20" fill="#782a5f"/></g><g transform="translate(637.8,334.09) scale(1.5185) rotate(0)"><rect width="20" height="2" fill="#b88f59"/><rect y="4" width="20" height="2" fill="#b88f59"/><rect y="8" width="20" height="2" fill="#b88f59"/><rect y="12" width="20" height="2" fill="#b88f59"/><rect y="16" width="20" height="2" fill="#b88f59"/></g><g transform="translate(668.17,303.71) scale(3.037) rotate(0)"><path d="M10 5L5 0L0 5L5 10L0 15L5 20L10 15L15 20L20 15L15 10L20 5L15 0L10 5Z" fill="#7c305e"/></g><rect x="728.91" y="303.71" width="60.74" height="60.74" fill="#7b2f5e"/><g transform="translate(0,364.46) scale(3.037) rotate(0)"><rect width="2" height="20" fill="#3f5ca0"/><rect x="4" width="2" height="20" fill="#3f5ca0"/><rect x="8" width="2" height="20" fill="#3f5ca0"/><rect x="12" width="2" height="20" fill="#3f5ca0"/><rect x="16" width="2" height="20" fill="#3f5ca0"/></g><rect x="60.74285714285715" y="364.4571428571429" width="60.74285714285715" height="60.74285714285715" fill="#5e0061"/><g transform="translate(60.74,364.46) scale(1.5185) rotate(0)"><rect width="20" height="2" fill="#299ece"/><rect y="4" width="20" height="2" fill="#299ece"/><rect y="8" width="20" height="2" fill="#299ece"/><rect y="12" width="20" height="2" fill="#299ece"/><rect y="16" width="20" height="2" fill="#299ece"/></g><g transform="translate(91.11,364.46) scale(1.5185) rotate(0)"><rect width="2" height="20" fill="#3d63a5"/><rect x="4" width="2" height="20" fill="#3d63a5"/><rect x="8" width="2" height="20" fill="#3d63a5"/><rect x="12" width="2" height="20" fill="#3d63a5"/><rect x="16" width="2" height="20" fill="#3d63a5"/></g><g transform="translate(60.74,394.83) scale(1.5185) rotate(0)"><rect width="20" height="2" fill="#a8765a"/><rect y="4" width="20" height="2" fill="#a8765a"/><rect y="8" width="20" height="2" fill="#a8765a"/><rect y="12" width="20" height="2" fill="#a8765a"/><rect y="16" width="20" height="2" fill="#a8765a"/></g><g transform="translate(91.11,394.83) scale(1.5185) rotate(0)"><path d="M10 5L5 0L0 5L5 10L0 15L5 20L10 15L15 20L20 15L15 10L20 5L15 0L10 5Z" fill="#9d655b"/></g><g transform="translate(121.49,364.46) scale(3.037) rotate(0)"><path d="M10 5L5 0L0 5L5 10L0 15L5 20L10 15L15 20L20 15L15 10L20 5L15 0L10 5Z" fill="#81395e"/></g><g transform="translate(182.23,364.46) scale(3.037) rotate(0)"><rect width="2" height="20" fill="#26a6d4"/><rect x="4" width="2" height="20" fill="#26a6d4"/><rect x="8" width="2" height="20" fill="#26a6d4"/><rect x="12" width="2" height="20" fill="#26a6d4"/><rect x="16" width="2" height="20" fill="#26a6d4"/></g><g transform="translate(242.97,364.46) scale(3.037) rotate(0)"><rect width="2" height="20" fill="#92545c"/><rect x="4" width="2" height="20" fill="#92545c"/><rect x="8" width="2" height="20" fill="#92545c"/><rect x="12" width="2" height="20" fill="#92545c"/><rect x="16" width="2" height="20" fill="#92545c"/></g><rect x="303.7142857142857" y="364.4571428571429" width="60.74285714285715" height="60.74285714285715" fill="#5e0061"/><g transform="translate(303.71,364.46) scale(1.5185) rotate(0)"><path d="M10 5L5 0L0 5L5 10L0 15L5 20L10 15L15 20L20 15L15 10L20 5L15 0L10 5Z" fill="#fd3465"/></g><g transform="translate(334.09,364.46) scale(1.5185) rotate(0)"><path d="M10 5L5 0L0 5L5 10L0 15L5 20L10 15L15 20L20 15L15 10L20 5L15 0L10 5Z" fill="#9e665b"/></g><g transform="translate(303.71,394.83) scale(1.5185) rotate(0)"><path d="M10 5L5 0L0 5L5 10L0 15L5 20L10 15L15 20L20 15L15 10L20 5L15 0L10 5Z" fill="#a5725b"/></g><g transform="translate(334.09,394.83) scale(1.5185) rotate(0)"><rect width="2" height="20" fill="#6e0561"/><rect x="4" width="2" height="20" fill="#6e0561"/><rect x="8" width="2" height="20" fill="#6e0561"/><rect x="12" width="2" height="20" fill="#6e0561"/><rect x="16" width="2" height="20" fill="#6e0561"/></g><rect x="364.4571428571429" y="364.4571428571429" width="60.74285714285715" height="60.74285714285715" fill="#5e0061"/><g transform="translate(364.46,364.46) scale(1.5185) rotate(0)"><rect width="2" height="20" fill="#82395e"/><rect x="4" width="2" height="20" fill="#82395e"/><rect x="8" width="2" height="20" fill="#82395e"/><rect x="12" width="2" height="20" fill="#82395e"/><rect x="16" width="2" height="20" fill="#82395e"/></g><g transform="translate(394.83,364.46) scale(1.5185) rotate(0)"><path d="M10 5L5 0L0 5L5 10L0 15L5 20L10 15L15 20L20 15L15 10L20 5L15 0L10 5Z" fill="#42549b"/></g><rect x="364.46" y="394.83" width="30.37" height="30.37" fill="#691260"/><g transform="translate(394.83,394.83) scale(1.5185) rotate(0)"><path d="M10 5L5 0L0 5L5 10L0 15L5 20L10 15L15 20L20 15L15 10L20 5L15 0L10 5Z" fill="#650261"/></g><g transform="translate(425.2,364.46) scale(3.037) rotate(0)"><rect width="20" height="2" fill="#4c3687"/><rect y="4" width="20" height="2" fill="#4c3687"/><rect y="8" width="20" height="2" fill="#4c3687"/><rect y="12" width="20" height="2" fill="#4c3687"/><rect y="16" width="20" height="2" fill="#4c3687"/></g><g transform="translate(485.94,364.46) scale(3.037) rotate(0)"><rect width="20" height="2" fill="#561972"/><rect y="4" width="20" height="2" fill="#561972"/><rect y="8" width="20" height="2" fill="#561972"/><rect y="12" width="20" height="2" fill="#561972"/><rect y="16" width="20" height="2" fill="#561972"/></g><rect x="546.69" y="364.46" width="60.74" height="60.74" fill="#c5a558"/><g transform="translate(607.43,364.46) scale(3.037) rotate(0)"><rect width="20" height="2" fill="#ef3065"/><rect y="4" width="20" height="2" fill="#ef3065"/><rect y="8" width="20" height="2" fill="#ef3065"/><rect y="12" width="20" height="2" fill="#ef3065"/><rect y="16" width="20" height="2" fill="#ef3065"/></g><g transform="translate(668.17,364.46) scale(3.037) rotate(0)"><rect width="20" height="2" fill="#4d3283"/><rect y="4" width="20" height="2" fill="#4d3283"/><rect y="8" width="20" height="2" fill="#4d3283"/><rect y="12" width="20" height="2" fill="#4d3283"/><rect y="16" width="20" height="2" fill="#4d3283"/></g><rect x="728.91" y="364.46" width="60.74" height="60.74" fill="#f53265"/></g></svg>