<?xml version="1.0" standalone="no"?><svg xmlns:xlink="http://www.w3.org/1999/xlink" xmlns="http://www.w3.org/2000/svg" viewBox="0 0 1000 583.3351625436266" preserveAspectRatio="xMaxYMax slice"><g transform="scale(1.3719077199991219)"><rect x="0" y="0" width="728.9142857142858" height="425.20000000000005" fill="#dabd01"/><rect x="0" y="0" width="60.74285714285715" height="60.74285714285715" fill="#dabd01"/><rect x="0" y="0" width="30.37" height="30.37" fill="#c6cb39"/><g transform="translate(0,0) scale(1.5185) rotate(0)"><rect width="2" height="20" fill="#a5e294"/><rect x="4" width="2" height="20" fill="#a5e294"/><rect x="8" width="2" height="20" fill="#a5e294"/><rect x="12" width="2" height="20" fill="#a5e294"/><rect x="16" width="2" height="20" fill="#a5e294"/></g><rect x="30.37" y="0" width="30.37" height="30.37" fill="#dabd02"/><g transform="translate(30.37,0) scale(1.5185) rotate(0)"><rect width="20" height="2" fill="#e2c90e"/><rect y="4" width="20" height="2" fill="#e2c90e"/><rect y="8" width="20" height="2" fill="#e2c90e"/><rect y="12" width="20" height="2" fill="#e2c90e"/><rect y="16" width="20" height="2" fill="#e2c90e"/></g><rect x="0" y="30.37" width="30.37" height="30.37" fill="#c1ce46"/><circle cx="15.185" cy="45.555" r="15.185" fill="#75ba00"/><rect x="30.37" y="30.37" width="30.37" height="30.37" fill="#f6e831"/><g transform="translate(30.37,30.37) scale(1.5185) rotate(0)"><path d="M10 1L12.2451 7.90983H19.5106L13.6327 12.1803L15.8779 19.0902L10 14.8197L4.12215 19.0902L6.36729 12.1803L0.489441 7.90983H7.75487L10 1Z" fill="#97ebb9"/></g><rect x="60.74" y="0" width="60.74" height="60.74" fill="#fbf03a"/><g transform="translate(60.74,0) scale(3.037) rotate(0)"><rect width="20" height="2" fill="#cbc82b"/><rect y="4" width="20" height="2" fill="#cbc82b"/><rect y="8" width="20" height="2" fill="#cbc82b"/><rect y="12" width="20" height="2" fill="#cbc82b"/><rect y="16" width="20" height="2" fill="#cbc82b"/></g><rect x="121.4857142857143" y="0" width="60.74285714285715" height="60.74285714285715" fill="#dabd01"/><rect x="121.49" y="0" width="30.37" height="30.37" fill="#addc7c"/><g transform="translate(121.49,0) scale(1.5185) rotate(0)"><path d="M10 5L5 0L0 5L5 10L0 15L5 20L10 15L15 20L20 15L15 10L20 5L15 0L10 5Z" fill="#bebc01"/></g><rect x="151.86" y="0" width="30.37" height="30.37" fill="#dcc004"/><polygon points="182.23000000000002,0 182.23000000000002,30.37 151.86,30.37" fill="#e0c60b"/><rect x="121.49" y="30.37" width="30.37" height="30.37" fill="#bcd255"/><g transform="translate(121.49,30.37) scale(1.5185) rotate(0)"><path d="M10 1L12.2451 7.90983H19.5106L13.6327 12.1803L15.8779 19.0902L10 14.8197L4.12215 19.0902L6.36729 12.1803L0.489441 7.90983H7.75487L10 1Z" fill="#c5bc01"/></g><rect x="151.86" y="30.37" width="30.37" height="30.37" fill="#c4cd3f"/><g transform="translate(151.86,30.37) scale(1.5185) rotate(0)"><path d="M10 5L5 0L0 5L5 10L0 15L5 20L10 15L15 20L20 15L15 10L20 5L15 0L10 5Z" fill="#a5e192"/></g><rect x="182.22857142857146" y="0" width="60.74285714285715" height="60.74285714285715" fill="#dabd01"/><rect x="182.23" y="0" width="30.37" height="30.37" fill="#aade85"/><polygon points="182.23,0 212.6,0 182.23,30.37" fill="#c3cd42"/><rect x="212.6" y="0" width="30.37" height="30.37" fill="#e8d319"/><polygon points="212.6,0 242.97,0 242.97,30.37" fill="#1eb800"/><rect x="182.23" y="30.37" width="30.37" height="30.37" fill="#e3cb10"/><circle cx="197.415" cy="45.555" r="15.185" fill="#aade85"/><rect x="212.6" y="30.37" width="30.37" height="30.37" fill="#ddc106"/><circle cx="227.785" cy="45.555" r="15.185" fill="#e8d218"/><rect x="242.97" y="0" width="60.74" height="60.74" fill="#b3d86d"/><g transform="translate(242.97,0) scale(3.037) rotate(0)"><path d="M10 1L12.2451 7.90983H19.5106L13.6327 12.1803L15.8779 19.0902L10 14.8197L4.12215 19.0902L6.36729 12.1803L0.489441 7.90983H7.75487L10 1Z" fill="#6eba00"/></g><rect x="303.71" y="0" width="60.74" height="60.74" fill="#fbef39"/><circle cx="334.08" cy="30.37" r="30.37" fill="#93eec4"/><rect x="364.4571428571429" y="0" width="60.74285714285715" height="60.74285714285715" fill="#dabd01"/><rect x="364.46" y="0" width="30.37" height="30.37" fill="#8ebb01"/><rect x="364.46" y="0" width="30.37" height="30.37" fill="#cbc72a"/><rect x="394.83" y="0" width="30.37" height="30.37" fill="#7cbb01"/><g transform="translate(394.83,0) scale(1.5185) rotate(0)"><path d="M10 5L5 0L0 5L5 10L0 15L5 20L10 15L15 20L20 15L15 10L20 5L15 0L10 5Z" fill="#6cba00"/></g><rect x="364.46" y="30.37" width="30.37" height="30.37" fill="#e1c80d"/><g transform="translate(364.46,30.37) scale(1.5185) rotate(0)"><path d="M10 5L5 0L0 5L5 10L0 15L5 20L10 15L15 20L20 15L15 10L20 5L15 0L10 5Z" fill="#98eab6"/></g><rect x="394.83" y="30.37" width="30.37" height="30.37" fill="#bfcf4a"/><rect x="394.83" y="30.37" width="30.37" height="30.37" fill="#e9d41a"/><rect x="425.20000000000005" y="0" width="60.74285714285715" height="60.74285714285715" fill="#dabd01"/><rect x="425.2" y="0" width="30.37" height="30.37" fill="#e4cc12"/><rect x="425.2" y="0" width="30.37" height="30.37" fill="#a1e59f"/><rect x="455.57" y="0" width="30.37" height="30.37" fill="#e3cb10"/><g transform="translate(455.57,0) scale(1.5185) rotate(0)"><rect width="20" height="2" fill="#f3e32b"/><rect y="4" width="20" height="2" fill="#f3e32b"/><rect y="8" width="20" height="2" fill="#f3e32b"/><rect y="12" width="20" height="2" fill="#f3e32b"/><rect y="16" width="20" height="2" fill="#f3e32b"/></g><rect x="425.2" y="30.37" width="30.37" height="30.37" fill="#faef38"/><g transform="translate(425.2,30.37) scale(1.5185) rotate(0)"><rect width="2" height="20" fill="#a1e59f"/><rect x="4" width="2" height="20" fill="#a1e59f"/><rect x="8" width="2" height="20" fill="#a1e59f"/><rect x="12" width="2" height="20" fill="#a1e59f"/><rect x="16" width="2" height="20" fill="#a1e59f"/></g><rect x="455.57" y="30.37" width="30.37" height="30.37" fill="#c3cd3f"/><g transform="translate(455.57,30.37) scale(1.5185) rotate(0)"><rect width="20" height="2" fill="#29b900"/><rect y="4" width="20" height="2" fill="#29b900"/><rect y="8" width="20" height="2" fill="#29b900"/><rect y="12" width="20" height="2" fill="#29b900"/><rect y="16" width="20" height="2" fill="#29b900"/></g><rect x="485.9428571428572" y="0" width="60.74285714285715" height="60.74285714285715" fill="#dabd01"/><rect x="485.94" y="0" width="30.37" height="30.37" fill="#a9bc01"/><g transform="translate(485.94,0) scale(1.5185) rotate(0)"><rect width="2" height="20" fill="#a2e49c"/><rect x="4" width="2" height="20" fill="#a2e49c"/><rect x="8" width="2" height="20" fill="#a2e49c"/><rect x="12" width="2" height="20" fill="#a2e49c"/><rect x="16" width="2" height="20" fill="#a2e49c"/></g><rect x="516.31" y="0" width="30.37" height="30.37" fill="#81bb01"/><g transform="translate(516.31,0) scale(1.5185) rotate(0)"><path d="M10 5L5 0L0 5L5 10L0 15L5 20L10 15L15 20L20 15L15 10L20 5L15 0L10 5Z" fill="#a9df87"/></g><rect x="485.94" y="30.37" width="30.37" height="30.37" fill="#f9ec36"/><g transform="translate(485.94,30.37) scale(1.5185) rotate(0)"><rect width="20" height="2" fill="#cac82d"/><rect y="4" width="20" height="2" fill="#cac82d"/><rect y="8" width="20" height="2" fill="#cac82d"/><rect y="12" width="20" height="2" fill="#cac82d"/><rect y="16" width="20" height="2" fill="#cac82d"/></g><rect x="516.31" y="30.37" width="30.37" height="30.37" fill="#cbc82b"/><g transform="translate(516.31,30.37) scale(1.5185) rotate(0)"><path d="M10 5L5 0L0 5L5 10L0 15L5 20L10 15L15 20L20 15L15 10L20 5L15 0L10 5Z" fill="#2db900"/></g><rect x="546.69" y="0" width="60.74" height="60.74" fill="#d7bf0a"/><g transform="translate(546.69,0) scale(3.037) rotate(0)"><path d="M10 1L12.2451 7.90983H19.5106L13.6327 12.1803L15.8779 19.0902L10 14.8197L4.12215 19.0902L6.36729 12.1803L0.489441 7.90983H7.75487L10 1Z" fill="#efdd24"/></g><rect x="607.4285714285714" y="0" width="60.74285714285715" height="60.74285714285715" fill="#dabd01"/><rect x="607.43" y="0" width="30.37" height="30.37" fill="#51ba00"/><polygon points="637.8,0 637.8,30.37 607.43,30.37" fill="#9bbb01"/><rect x="637.8" y="0" width="30.37" height="30.37" fill="#98bb01"/><g transform="translate(637.8,0) scale(1.5185) rotate(0)"><path d="M10 5L5 0L0 5L5 10L0 15L5 20L10 15L15 20L20 15L15 10L20 5L15 0L10 5Z" fill="#c1ce47"/></g><rect x="607.43" y="30.37" width="30.37" height="30.37" fill="#94eec2"/><g transform="translate(607.43,30.37) scale(1.5185) rotate(0)"><path d="M10 5L5 0L0 5L5 10L0 15L5 20L10 15L15 20L20 15L15 10L20 5L15 0L10 5Z" fill="#d7bf0a"/></g><rect x="637.8" y="30.37" width="30.37" height="30.37" fill="#c9c92f"/><rect x="637.8" y="30.37" width="30.37" height="30.37" fill="#b7d562"/><rect x="668.17" y="0" width="60.74" height="60.74" fill="#32b900"/><g transform="translate(668.17,0) scale(3.037) rotate(0)"><rect width="2" height="20" fill="#a9df88"/><rect x="4" width="2" height="20" fill="#a9df88"/><rect x="8" width="2" height="20" fill="#a9df88"/><rect x="12" width="2" height="20" fill="#a9df88"/><rect x="16" width="2" height="20" fill="#a9df88"/></g><rect x="0" y="60.74285714285715" width="60.74285714285715" height="60.74285714285715" fill="#dabd01"/><rect x="0" y="60.74" width="30.37" height="30.37" fill="#93bb01"/><g transform="translate(0,60.74) scale(1.5185) rotate(0)"><path d="M10 5L5 0L0 5L5 10L0 15L5 20L10 15L15 20L20 15L15 10L20 5L15 0L10 5Z" fill="#fef43e"/></g><rect x="30.37" y="60.74" width="30.37" height="30.37" fill="#f7ea33"/><g transform="translate(30.37,60.74) scale(1.5185) rotate(0)"><path d="M10 5L5 0L0 5L5 10L0 15L5 20L10 15L15 20L20 15L15 10L20 5L15 0L10 5Z" fill="#c4cc3d"/></g><rect x="0" y="91.11" width="30.37" height="30.37" fill="#d3bd01"/><polygon points="0,91.11 30.37,91.11 30.37,121.48" fill="#c0cf4a"/><rect x="30.37" y="91.11" width="30.37" height="30.37" fill="#8df2d5"/><g transform="translate(30.37,91.11) scale(1.5185) rotate(0)"><rect width="2" height="20" fill="#d2c216"/><rect x="4" width="2" height="20" fill="#d2c216"/><rect x="8" width="2" height="20" fill="#d2c216"/><rect x="12" width="2" height="20" fill="#d2c216"/><rect x="16" width="2" height="20" fill="#d2c216"/></g><rect x="60.74" y="60.74" width="60.74" height="60.74" fill="#ddc207"/><polygon points="121.48,60.74 121.48,121.48 60.74,121.48" fill="#f2e22a"/><rect x="121.49" y="60.74" width="60.74" height="60.74" fill="#7ebb01"/><g transform="translate(121.49,60.74) scale(3.037) rotate(0)"><path d="M10 1L12.2451 7.90983H19.5106L13.6327 12.1803L15.8779 19.0902L10 14.8197L4.12215 19.0902L6.36729 12.1803L0.489441 7.90983H7.75487L10 1Z" fill="#73ba00"/></g><rect x="182.22857142857146" y="60.74285714285715" width="60.74285714285715" height="60.74285714285715" fill="#dabd01"/><rect x="182.23" y="60.74" width="30.37" height="30.37" fill="#f4e52e"/><circle cx="197.415" cy="75.925" r="15.185" fill="#b8d55f"/><rect x="212.6" y="60.74" width="30.37" height="30.37" fill="#addc7e"/><g transform="translate(212.6,60.74) scale(1.5185) rotate(0)"><path d="M10 5L5 0L0 5L5 10L0 15L5 20L10 15L15 20L20 15L15 10L20 5L15 0L10 5Z" fill="#e8d218"/></g><rect x="182.23" y="91.11" width="30.37" height="30.37" fill="#73ba00"/><g transform="translate(182.23,91.11) scale(1.5185) rotate(0)"><path d="M10 1L12.2451 7.90983H19.5106L13.6327 12.1803L15.8779 19.0902L10 14.8197L4.12215 19.0902L6.36729 12.1803L0.489441 7.90983H7.75487L10 1Z" fill="#ead61d"/></g><rect x="212.6" y="91.11" width="30.37" height="30.37" fill="#ead61d"/><polygon points="242.97,91.11 242.97,121.48 212.6,121.48" fill="#9ebb01"/><rect x="242.9714285714286" y="60.74285714285715" width="60.74285714285715" height="60.74285714285715" fill="#dabd01"/><rect x="242.97" y="60.74" width="30.37" height="30.37" fill="#96ecbd"/><circle cx="258.155" cy="75.925" r="15.185" fill="#d0bd01"/><rect x="273.34" y="60.74" width="30.37" height="30.37" fill="#f3e42c"/><g transform="translate(273.34,60.74) scale(1.5185) rotate(0)"><path d="M10 5L5 0L0 5L5 10L0 15L5 20L10 15L15 20L20 15L15 10L20 5L15 0L10 5Z" fill="#b6d665"/></g><rect x="242.97" y="91.11" width="30.37" height="30.37" fill="#b5d767"/><polygon points="242.97,91.11 273.34,91.11 273.34,121.48" fill="#9dbb01"/><rect x="273.34" y="91.11" width="30.37" height="30.37" fill="#6eba00"/><g transform="translate(273.34,91.11) scale(1.5185) rotate(0)"><rect width="2" height="20" fill="#c5bc01"/><rect x="4" width="2" height="20" fill="#c5bc01"/><rect x="8" width="2" height="20" fill="#c5bc01"/><rect x="12" width="2" height="20" fill="#c5bc01"/><rect x="16" width="2" height="20" fill="#c5bc01"/></g><rect x="303.71" y="60.74" width="60.74" height="60.74" fill="#9ebb01"/><g transform="translate(303.71,60.74) scale(3.037) rotate(0)"><path d="M10 1L12.2451 7.90983H19.5106L13.6327 12.1803L15.8779 19.0902L10 14.8197L4.12215 19.0902L6.36729 12.1803L0.489441 7.90983H7.75487L10 1Z" fill="#fef33d"/></g><rect x="364.46" y="60.74" width="60.74" height="60.74" fill="#52ba00"/><g transform="translate(364.46,60.74) scale(3.037) rotate(0)"><rect width="2" height="20" fill="#42b900"/><rect x="4" width="2" height="20" fill="#42b900"/><rect x="8" width="2" height="20" fill="#42b900"/><rect x="12" width="2" height="20" fill="#42b900"/><rect x="16" width="2" height="20" fill="#42b900"/></g><rect x="425.20000000000005" y="60.74285714285715" width="60.74285714285715" height="60.74285714285715" fill="#dabd01"/><rect x="425.2" y="60.74" width="30.37" height="30.37" fill="#ccbd01"/><rect x="425.2" y="60.74" width="30.37" height="30.37" fill="#e0c70c"/><rect x="455.57" y="60.74" width="30.37" height="30.37" fill="#9be8ae"/><g transform="translate(455.57,60.74) scale(1.5185) rotate(0)"><path d="M10 5L5 0L0 5L5 10L0 15L5 20L10 15L15 20L20 15L15 10L20 5L15 0L10 5Z" fill="#f9ed36"/></g><rect x="425.2" y="91.11" width="30.37" height="30.37" fill="#d4c111"/><g transform="translate(425.2,91.11) scale(1.5185) rotate(0)"><rect width="2" height="20" fill="#e8d218"/><rect x="4" width="2" height="20" fill="#e8d218"/><rect x="8" width="2" height="20" fill="#e8d218"/><rect x="12" width="2" height="20" fill="#e8d218"/><rect x="16" width="2" height="20" fill="#e8d218"/></g><rect x="455.57" y="91.11" width="30.37" height="30.37" fill="#ecd920"/><g transform="translate(455.57,91.11) scale(1.5185) rotate(0)"><path d="M10 1L12.2451 7.90983H19.5106L13.6327 12.1803L15.8779 19.0902L10 14.8197L4.12215 19.0902L6.36729 12.1803L0.489441 7.90983H7.75487L10 1Z" fill="#e6d016"/></g><rect x="485.9428571428572" y="60.74285714285715" width="60.74285714285715" height="60.74285714285715" fill="#dabd01"/><rect x="485.94" y="60.74" width="30.37" height="30.37" fill="#dec207"/><rect x="485.94" y="60.74" width="30.37" height="30.37" fill="#e7d117"/><rect x="516.31" y="60.74" width="30.37" height="30.37" fill="#61ba00"/><circle cx="531.4949999999999" cy="75.925" r="15.185" fill="#49b900"/><rect x="485.94" y="91.11" width="30.37" height="30.37" fill="#efde25"/><g transform="translate(485.94,91.11) scale(1.5185) rotate(0)"><rect width="2" height="20" fill="#94edc2"/><rect x="4" width="2" height="20" fill="#94edc2"/><rect x="8" width="2" height="20" fill="#94edc2"/><rect x="12" width="2" height="20" fill="#94edc2"/><rect x="16" width="2" height="20" fill="#94edc2"/></g><rect x="516.31" y="91.11" width="30.37" height="30.37" fill="#d0c41c"/><g transform="translate(516.31,91.11) scale(1.5185) rotate(0)"><path d="M10 5L5 0L0 5L5 10L0 15L5 20L10 15L15 20L20 15L15 10L20 5L15 0L10 5Z" fill="#1cb800"/></g><rect x="546.6857142857143" y="60.74285714285715" width="60.74285714285715" height="60.74285714285715" fill="#dabd01"/><rect x="546.69" y="60.74" width="30.37" height="30.37" fill="#9fe5a2"/><g transform="translate(546.69,60.74) scale(1.5185) rotate(0)"><rect width="2" height="20" fill="#eedc23"/><rect x="4" width="2" height="20" fill="#eedc23"/><rect x="8" width="2" height="20" fill="#eedc23"/><rect x="12" width="2" height="20" fill="#eedc23"/><rect x="16" width="2" height="20" fill="#eedc23"/></g><rect x="577.06" y="60.74" width="30.37" height="30.37" fill="#f9ec35"/><g transform="translate(577.06,60.74) scale(1.5185) rotate(0)"><rect width="2" height="20" fill="#99eab3"/><rect x="4" width="2" height="20" fill="#99eab3"/><rect x="8" width="2" height="20" fill="#99eab3"/><rect x="12" width="2" height="20" fill="#99eab3"/><rect x="16" width="2" height="20" fill="#99eab3"/></g><rect x="546.69" y="91.11" width="30.37" height="30.37" fill="#c6cb38"/><g transform="translate(546.69,91.11) scale(1.5185) rotate(0)"><rect width="20" height="2" fill="#96ecbc"/><rect y="4" width="20" height="2" fill="#96ecbc"/><rect y="8" width="20" height="2" fill="#96ecbc"/><rect y="12" width="20" height="2" fill="#96ecbc"/><rect y="16" width="20" height="2" fill="#96ecbc"/></g><rect x="577.06" y="91.11" width="30.37" height="30.37" fill="#c6bd01"/><circle cx="592.2449999999999" cy="106.295" r="15.185" fill="#98eab5"/><rect x="607.4285714285714" y="60.74285714285715" width="60.74285714285715" height="60.74285714285715" fill="#dabd01"/><rect x="607.43" y="60.74" width="30.37" height="30.37" fill="#d4c112"/><polygon points="637.8,60.74 637.8,91.11 607.43,91.11" fill="#bbd255"/><rect x="637.8" y="60.74" width="30.37" height="30.37" fill="#ccc729"/><rect x="637.8" y="60.74" width="30.37" height="30.37" fill="#bcbc01"/><rect x="607.43" y="91.11" width="30.37" height="30.37" fill="#c7bd01"/><g transform="translate(607.43,91.11) scale(1.5185) rotate(0)"><path d="M10 5L5 0L0 5L5 10L0 15L5 20L10 15L15 20L20 15L15 10L20 5L15 0L10 5Z" fill="#79bb01"/></g><rect x="637.8" y="91.11" width="30.37" height="30.37" fill="#e9d31a"/><circle cx="652.9849999999999" cy="106.295" r="15.185" fill="#dcc105"/><rect x="668.17" y="60.74" width="60.74" height="60.74" fill="#97ebb9"/><g transform="translate(668.17,60.74) scale(3.037) rotate(0)"><rect width="20" height="2" fill="#53ba00"/><rect y="4" width="20" height="2" fill="#53ba00"/><rect y="8" width="20" height="2" fill="#53ba00"/><rect y="12" width="20" height="2" fill="#53ba00"/><rect y="16" width="20" height="2" fill="#53ba00"/></g><rect x="0" y="121.4857142857143" width="60.74285714285715" height="60.74285714285715" fill="#dabd01"/><rect x="0" y="121.49" width="30.37" height="30.37" fill="#ecd81f"/><g transform="translate(0,121.49) scale(1.5185) rotate(0)"><path d="M10 1L12.2451 7.90983H19.5106L13.6327 12.1803L15.8779 19.0902L10 14.8197L4.12215 19.0902L6.36729 12.1803L0.489441 7.90983H7.75487L10 1Z" fill="#2eb900"/></g><rect x="30.37" y="121.49" width="30.37" height="30.37" fill="#faed37"/><circle cx="45.555" cy="136.67499999999998" r="15.185" fill="#c3cd3f"/><rect x="0" y="151.86" width="30.37" height="30.37" fill="#8ef1d2"/><g transform="translate(0,151.86) scale(1.5185) rotate(0)"><path d="M10 5L5 0L0 5L5 10L0 15L5 20L10 15L15 20L20 15L15 10L20 5L15 0L10 5Z" fill="#8cf3d9"/></g><rect x="30.37" y="151.86" width="30.37" height="30.37" fill="#dbbf03"/><g transform="translate(30.37,151.86) scale(1.5185) rotate(0)"><path d="M10 5L5 0L0 5L5 10L0 15L5 20L10 15L15 20L20 15L15 10L20 5L15 0L10 5Z" fill="#aebc01"/></g><rect x="60.74" y="121.49" width="60.74" height="60.74" fill="#f7e932"/><g transform="translate(60.74,121.49) scale(3.037) rotate(0)"><path d="M10 5L5 0L0 5L5 10L0 15L5 20L10 15L15 20L20 15L15 10L20 5L15 0L10 5Z" fill="#8ff1cf"/></g><rect x="121.4857142857143" y="121.4857142857143" width="60.74285714285715" height="60.74285714285715" fill="#dabd01"/><rect x="121.49" y="121.49" width="30.37" height="30.37" fill="#bbd255"/><g transform="translate(121.49,121.49) scale(1.5185) rotate(0)"><rect width="2" height="20" fill="#a8e08b"/><rect x="4" width="2" height="20" fill="#a8e08b"/><rect x="8" width="2" height="20" fill="#a8e08b"/><rect x="12" width="2" height="20" fill="#a8e08b"/><rect x="16" width="2" height="20" fill="#a8e08b"/></g><rect x="151.86" y="121.49" width="30.37" height="30.37" fill="#41b900"/><g transform="translate(151.86,121.49) scale(1.5185) rotate(0)"><path d="M10 5L5 0L0 5L5 10L0 15L5 20L10 15L15 20L20 15L15 10L20 5L15 0L10 5Z" fill="#efdd25"/></g><rect x="121.49" y="151.86" width="30.37" height="30.37" fill="#acdd81"/><rect x="121.49" y="151.86" width="30.37" height="30.37" fill="#f5e72f"/><rect x="151.86" y="151.86" width="30.37" height="30.37" fill="#3bb900"/><g transform="translate(151.86,151.86) scale(1.5185) rotate(0)"><rect width="20" height="2" fill="#c0cf47"/><rect y="4" width="20" height="2" fill="#c0cf47"/><rect y="8" width="20" height="2" fill="#c0cf47"/><rect y="12" width="20" height="2" fill="#c0cf47"/><rect y="16" width="20" height="2" fill="#c0cf47"/></g><rect x="182.22857142857146" y="121.4857142857143" width="60.74285714285715" height="60.74285714285715" fill="#dabd01"/><rect x="182.23" y="121.49" width="30.37" height="30.37" fill="#bbd255"/><g transform="translate(182.23,121.49) scale(1.5185) rotate(0)"><rect width="20" height="2" fill="#b8bc01"/><rect y="4" width="20" height="2" fill="#b8bc01"/><rect y="8" width="20" height="2" fill="#b8bc01"/><rect y="12" width="20" height="2" fill="#b8bc01"/><rect y="16" width="20" height="2" fill="#b8bc01"/></g><rect x="212.6" y="121.49" width="30.37" height="30.37" fill="#b0da75"/><polygon points="212.6,121.49 242.97,151.85999999999999 212.6,151.85999999999999" fill="#c9c930"/><rect x="182.23" y="151.86" width="30.37" height="30.37" fill="#d2c217"/><circle cx="197.415" cy="167.04500000000002" r="15.185" fill="#dcc004"/><rect x="212.6" y="151.86" width="30.37" height="30.37" fill="#f7ea33"/><rect x="212.6" y="151.86" width="30.37" height="30.37" fill="#acdd81"/><rect x="242.97" y="121.49" width="60.74" height="60.74" fill="#ebd71e"/><g transform="translate(242.97,121.49) scale(3.037) rotate(0)"><path d="M10 5L5 0L0 5L5 10L0 15L5 20L10 15L15 20L20 15L15 10L20 5L15 0L10 5Z" fill="#68ba00"/></g><rect x="303.71" y="121.49" width="60.74" height="60.74" fill="#3db900"/><rect x="303.71" y="121.49" width="60.74" height="60.74" fill="#f6e730"/><rect x="364.4571428571429" y="121.4857142857143" width="60.74285714285715" height="60.74285714285715" fill="#dabd01"/><rect x="364.46" y="121.49" width="30.37" height="30.37" fill="#e4cd12"/><g transform="translate(364.46,121.49) scale(1.5185) rotate(0)"><rect width="2" height="20" fill="#c2ce44"/><rect x="4" width="2" height="20" fill="#c2ce44"/><rect x="8" width="2" height="20" fill="#c2ce44"/><rect x="12" width="2" height="20" fill="#c2ce44"/><rect x="16" width="2" height="20" fill="#c2ce44"/></g><rect x="394.83" y="121.49" width="30.37" height="30.37" fill="#e9d41b"/><circle cx="410.015" cy="136.67499999999998" r="15.185" fill="#8dbb01"/><rect x="364.46" y="151.86" width="30.37" height="30.37" fill="#a5bc01"/><g transform="translate(364.46,151.86) scale(1.5185) rotate(0)"><rect width="20" height="2" fill="#30b900"/><rect y="4" width="20" height="2" fill="#30b900"/><rect y="8" width="20" height="2" fill="#30b900"/><rect y="12" width="20" height="2" fill="#30b900"/><rect y="16" width="20" height="2" fill="#30b900"/></g><rect x="394.83" y="151.86" width="30.37" height="30.37" fill="#f1e028"/><circle cx="410.015" cy="167.04500000000002" r="15.185" fill="#8bf4dc"/><rect x="425.2" y="121.49" width="60.74" height="60.74" fill="#f8eb34"/><g transform="translate(425.2,121.49) scale(3.037) rotate(0)"><path d="M10 5L5 0L0 5L5 10L0 15L5 20L10 15L15 20L20 15L15 10L20 5L15 0L10 5Z" fill="#93eec6"/></g><rect x="485.94" y="121.49" width="60.74" height="60.74" fill="#f6e730"/><circle cx="516.31" cy="151.85999999999999" r="30.37" fill="#9de7a9"/><rect x="546.69" y="121.49" width="60.74" height="60.74" fill="#d7bf0a"/><g transform="translate(546.69,121.49) scale(3.037) rotate(0)"><path d="M10 5L5 0L0 5L5 10L0 15L5 20L10 15L15 20L20 15L15 10L20 5L15 0L10 5Z" fill="#19b800"/></g><rect x="607.43" y="121.49" width="60.74" height="60.74" fill="#ebd71e"/><g transform="translate(607.43,121.49) scale(3.037) rotate(0)"><rect width="2" height="20" fill="#71ba00"/><rect x="4" width="2" height="20" fill="#71ba00"/><rect x="8" width="2" height="20" fill="#71ba00"/><rect x="12" width="2" height="20" fill="#71ba00"/><rect x="16" width="2" height="20" fill="#71ba00"/></g><rect x="668.17" y="121.49" width="60.74" height="60.74" fill="#dabd02"/><polygon points="668.17,121.49 728.91,121.49 668.17,182.23" fill="#acdd80"/><rect x="0" y="182.22857142857146" width="60.74285714285715" height="60.74285714285715" fill="#dabd01"/><rect x="0" y="182.23" width="30.37" height="30.37" fill="#f5e72f"/><rect x="0" y="182.23" width="30.37" height="30.37" fill="#a3e39a"/><rect x="30.37" y="182.23" width="30.37" height="30.37" fill="#f8eb34"/><g transform="translate(30.37,182.23) scale(1.5185) rotate(0)"><rect width="2" height="20" fill="#dbbe02"/><rect x="4" width="2" height="20" fill="#dbbe02"/><rect x="8" width="2" height="20" fill="#dbbe02"/><rect x="12" width="2" height="20" fill="#dbbe02"/><rect x="16" width="2" height="20" fill="#dbbe02"/></g><rect x="0" y="212.6" width="30.37" height="30.37" fill="#bed04e"/><circle cx="15.185" cy="227.785" r="15.185" fill="#fdf33d"/><rect x="30.37" y="212.6" width="30.37" height="30.37" fill="#c3bc01"/><g transform="translate(30.37,212.6) scale(1.5185) rotate(0)"><path d="M10 1L12.2451 7.90983H19.5106L13.6327 12.1803L15.8779 19.0902L10 14.8197L4.12215 19.0902L6.36729 12.1803L0.489441 7.90983H7.75487L10 1Z" fill="#7fbb01"/></g><rect x="60.74" y="182.23" width="60.74" height="60.74" fill="#e6d016"/><g transform="translate(60.74,182.23) scale(3.037) rotate(0)"><rect width="2" height="20" fill="#6bba00"/><rect x="4" width="2" height="20" fill="#6bba00"/><rect x="8" width="2" height="20" fill="#6bba00"/><rect x="12" width="2" height="20" fill="#6bba00"/><rect x="16" width="2" height="20" fill="#6bba00"/></g><rect x="121.49" y="182.23" width="60.74" height="60.74" fill="#c3bc01"/><g transform="translate(121.49,182.23) scale(3.037) rotate(0)"><rect width="2" height="20" fill="#4db900"/><rect x="4" width="2" height="20" fill="#4db900"/><rect x="8" width="2" height="20" fill="#4db900"/><rect x="12" width="2" height="20" fill="#4db900"/><rect x="16" width="2" height="20" fill="#4db900"/></g><rect x="182.23" y="182.23" width="60.74" height="60.74" fill="#e7d017"/><g transform="translate(182.23,182.23) scale(3.037) rotate(0)"><path d="M10 5L5 0L0 5L5 10L0 15L5 20L10 15L15 20L20 15L15 10L20 5L15 0L10 5Z" fill="#9de7a8"/></g><rect x="242.97" y="182.23" width="60.74" height="60.74" fill="#fef33d"/><g transform="translate(242.97,182.23) scale(3.037) rotate(0)"><rect width="20" height="2" fill="#ebd81e"/><rect y="4" width="20" height="2" fill="#ebd81e"/><rect y="8" width="20" height="2" fill="#ebd81e"/><rect y="12" width="20" height="2" fill="#ebd81e"/><rect y="16" width="20" height="2" fill="#ebd81e"/></g><rect x="303.7142857142857" y="182.22857142857146" width="60.74285714285715" height="60.74285714285715" fill="#dabd01"/><rect x="303.71" y="182.23" width="30.37" height="30.37" fill="#c7bd01"/><g transform="translate(303.71,182.23) scale(1.5185) rotate(0)"><rect width="20" height="2" fill="#fcf23b"/><rect y="4" width="20" height="2" fill="#fcf23b"/><rect y="8" width="20" height="2" fill="#fcf23b"/><rect y="12" width="20" height="2" fill="#fcf23b"/><rect y="16" width="20" height="2" fill="#fcf23b"/></g><rect x="334.09" y="182.23" width="30.37" height="30.37" fill="#8df2d6"/><g transform="translate(334.09,182.23) scale(1.5185) rotate(0)"><path d="M10 5L5 0L0 5L5 10L0 15L5 20L10 15L15 20L20 15L15 10L20 5L15 0L10 5Z" fill="#a6e190"/></g><rect x="303.71" y="212.6" width="30.37" height="30.37" fill="#8af5de"/><circle cx="318.895" cy="227.785" r="15.185" fill="#e2c90e"/><rect x="334.09" y="212.6" width="30.37" height="30.37" fill="#cebd01"/><g transform="translate(334.09,212.6) scale(1.5185) rotate(0)"><rect width="2" height="20" fill="#cabd01"/><rect x="4" width="2" height="20" fill="#cabd01"/><rect x="8" width="2" height="20" fill="#cabd01"/><rect x="12" width="2" height="20" fill="#cabd01"/><rect x="16" width="2" height="20" fill="#cabd01"/></g><rect x="364.4571428571429" y="182.22857142857146" width="60.74285714285715" height="60.74285714285715" fill="#dabd01"/><rect x="364.46" y="182.23" width="30.37" height="30.37" fill="#f5e62f"/><polygon points="364.46,182.23 394.83,182.23 394.83,212.6" fill="#f8ea33"/><rect x="394.83" y="182.23" width="30.37" height="30.37" fill="#9de7aa"/><g transform="translate(394.83,182.23) scale(1.5185) rotate(0)"><rect width="20" height="2" fill="#f3e42c"/><rect y="4" width="20" height="2" fill="#f3e42c"/><rect y="8" width="20" height="2" fill="#f3e42c"/><rect y="12" width="20" height="2" fill="#f3e42c"/><rect y="16" width="20" height="2" fill="#f3e42c"/></g><rect x="364.46" y="212.6" width="30.37" height="30.37" fill="#fef33d"/><g transform="translate(364.46,212.6) scale(1.5185) rotate(0)"><rect width="20" height="2" fill="#92efc6"/><rect y="4" width="20" height="2" fill="#92efc6"/><rect y="8" width="20" height="2" fill="#92efc6"/><rect y="12" width="20" height="2" fill="#92efc6"/><rect y="16" width="20" height="2" fill="#92efc6"/></g><rect x="394.83" y="212.6" width="30.37" height="30.37" fill="#6fba00"/><g transform="translate(394.83,212.6) scale(1.5185) rotate(0)"><rect width="20" height="2" fill="#f9ed36"/><rect y="4" width="20" height="2" fill="#f9ed36"/><rect y="8" width="20" height="2" fill="#f9ed36"/><rect y="12" width="20" height="2" fill="#f9ed36"/><rect y="16" width="20" height="2" fill="#f9ed36"/></g><rect x="425.20000000000005" y="182.22857142857146" width="60.74285714285715" height="60.74285714285715" fill="#dabd01"/><rect x="425.2" y="182.23" width="30.37" height="30.37" fill="#b3d86c"/><rect x="425.2" y="182.23" width="30.37" height="30.37" fill="#a5e293"/><rect x="455.57" y="182.23" width="30.37" height="30.37" fill="#afda76"/><g transform="translate(455.57,182.23) scale(1.5185) rotate(0)"><rect width="2" height="20" fill="#e5ce13"/><rect x="4" width="2" height="20" fill="#e5ce13"/><rect x="8" width="2" height="20" fill="#e5ce13"/><rect x="12" width="2" height="20" fill="#e5ce13"/><rect x="16" width="2" height="20" fill="#e5ce13"/></g><rect x="425.2" y="212.6" width="30.37" height="30.37" fill="#e0c60a"/><g transform="translate(425.2,212.6) scale(1.5185) rotate(0)"><rect width="20" height="2" fill="#9ee7a7"/><rect y="4" width="20" height="2" fill="#9ee7a7"/><rect y="8" width="20" height="2" fill="#9ee7a7"/><rect y="12" width="20" height="2" fill="#9ee7a7"/><rect y="16" width="20" height="2" fill="#9ee7a7"/></g><rect x="455.57" y="212.6" width="30.37" height="30.37" fill="#8df3d6"/><g transform="translate(455.57,212.6) scale(1.5185) rotate(0)"><path d="M10 5L5 0L0 5L5 10L0 15L5 20L10 15L15 20L20 15L15 10L20 5L15 0L10 5Z" fill="#e3ca10"/></g><rect x="485.9428571428572" y="182.22857142857146" width="60.74285714285715" height="60.74285714285715" fill="#dabd01"/><rect x="485.94" y="182.23" width="30.37" height="30.37" fill="#89bb01"/><g transform="translate(485.94,182.23) scale(1.5185) rotate(0)"><path d="M10 1L12.2451 7.90983H19.5106L13.6327 12.1803L15.8779 19.0902L10 14.8197L4.12215 19.0902L6.36729 12.1803L0.489441 7.90983H7.75487L10 1Z" fill="#d9bd01"/></g><rect x="516.31" y="182.23" width="30.37" height="30.37" fill="#f7e932"/><g transform="translate(516.31,182.23) scale(1.5185) rotate(0)"><rect width="20" height="2" fill="#5bba00"/><rect y="4" width="20" height="2" fill="#5bba00"/><rect y="8" width="20" height="2" fill="#5bba00"/><rect y="12" width="20" height="2" fill="#5bba00"/><rect y="16" width="20" height="2" fill="#5bba00"/></g><rect x="485.94" y="212.6" width="30.37" height="30.37" fill="#6aba00"/><g transform="translate(485.94,212.6) scale(1.5185) rotate(0)"><rect width="2" height="20" fill="#25b800"/><rect x="4" width="2" height="20" fill="#25b800"/><rect x="8" width="2" height="20" fill="#25b800"/><rect x="12" width="2" height="20" fill="#25b800"/><rect x="16" width="2" height="20" fill="#25b800"/></g><rect x="516.31" y="212.6" width="30.37" height="30.37" fill="#d2bd01"/><g transform="translate(516.31,212.6) scale(1.5185) rotate(0)"><rect width="2" height="20" fill="#abde83"/><rect x="4" width="2" height="20" fill="#abde83"/><rect x="8" width="2" height="20" fill="#abde83"/><rect x="12" width="2" height="20" fill="#abde83"/><rect x="16" width="2" height="20" fill="#abde83"/></g><rect x="546.6857142857143" y="182.22857142857146" width="60.74285714285715" height="60.74285714285715" fill="#dabd01"/><rect x="546.69" y="182.23" width="30.37" height="30.37" fill="#d3c214"/><rect x="546.69" y="182.23" width="30.37" height="30.37" fill="#b4bc01"/><rect x="577.06" y="182.23" width="30.37" height="30.37" fill="#dfc409"/><g transform="translate(577.06,182.23) scale(1.5185) rotate(0)"><path d="M10 1L12.2451 7.90983H19.5106L13.6327 12.1803L15.8779 19.0902L10 14.8197L4.12215 19.0902L6.36729 12.1803L0.489441 7.90983H7.75487L10 1Z" fill="#eedb22"/></g><rect x="546.69" y="212.6" width="30.37" height="30.37" fill="#b0bc01"/><g transform="translate(546.69,212.6) scale(1.5185) rotate(0)"><path d="M10 1L12.2451 7.90983H19.5106L13.6327 12.1803L15.8779 19.0902L10 14.8197L4.12215 19.0902L6.36729 12.1803L0.489441 7.90983H7.75487L10 1Z" fill="#fbef39"/></g><rect x="577.06" y="212.6" width="30.37" height="30.37" fill="#9de7a9"/><g transform="translate(577.06,212.6) scale(1.5185) rotate(0)"><rect width="20" height="2" fill="#94eec3"/><rect y="4" width="20" height="2" fill="#94eec3"/><rect y="8" width="20" height="2" fill="#94eec3"/><rect y="12" width="20" height="2" fill="#94eec3"/><rect y="16" width="20" height="2" fill="#94eec3"/></g><rect x="607.43" y="182.23" width="60.74" height="60.74" fill="#a3e399"/><g transform="translate(607.43,182.23) scale(3.037) rotate(0)"><path d="M10 1L12.2451 7.90983H19.5106L13.6327 12.1803L15.8779 19.0902L10 14.8197L4.12215 19.0902L6.36729 12.1803L0.489441 7.90983H7.75487L10 1Z" fill="#e9d51b"/></g><rect x="668.17" y="182.23" width="60.74" height="60.74" fill="#54ba00"/><g transform="translate(668.17,182.23) scale(3.037) rotate(0)"><path d="M10 1L12.2451 7.90983H19.5106L13.6327 12.1803L15.8779 19.0902L10 14.8197L4.12215 19.0902L6.36729 12.1803L0.489441 7.90983H7.75487L10 1Z" fill="#e4cd12"/></g><rect x="0" y="242.9714285714286" width="60.74285714285715" height="60.74285714285715" fill="#dabd01"/><rect x="0" y="242.97" width="30.37" height="30.37" fill="#cfc520"/><g transform="translate(0,242.97) scale(1.5185) rotate(0)"><path d="M10 1L12.2451 7.90983H19.5106L13.6327 12.1803L15.8779 19.0902L10 14.8197L4.12215 19.0902L6.36729 12.1803L0.489441 7.90983H7.75487L10 1Z" fill="#98ebb8"/></g><rect x="30.37" y="242.97" width="30.37" height="30.37" fill="#7cbb01"/><rect x="30.37" y="242.97" width="30.37" height="30.37" fill="#29b900"/><rect x="0" y="273.34" width="30.37" height="30.37" fill="#acdd80"/><g transform="translate(0,273.34) scale(1.5185) rotate(0)"><rect width="2" height="20" fill="#c5cb3b"/><rect x="4" width="2" height="20" fill="#c5cb3b"/><rect x="8" width="2" height="20" fill="#c5cb3b"/><rect x="12" width="2" height="20" fill="#c5cb3b"/><rect x="16" width="2" height="20" fill="#c5cb3b"/></g><rect x="30.37" y="273.34" width="30.37" height="30.37" fill="#55ba00"/><circle cx="45.555" cy="288.525" r="15.185" fill="#c6cb39"/><rect x="60.74" y="242.97" width="60.74" height="60.74" fill="#4fb900"/><g transform="translate(60.74,242.97) scale(3.037) rotate(0)"><rect width="20" height="2" fill="#99bb01"/><rect y="4" width="20" height="2" fill="#99bb01"/><rect y="8" width="20" height="2" fill="#99bb01"/><rect y="12" width="20" height="2" fill="#99bb01"/><rect y="16" width="20" height="2" fill="#99bb01"/></g><rect x="121.49" y="242.97" width="60.74" height="60.74" fill="#f2e22a"/><circle cx="151.85999999999999" cy="273.34" r="30.37" fill="#f4e42d"/><rect x="182.23" y="242.97" width="60.74" height="60.74" fill="#b5d768"/><rect x="182.23" y="242.97" width="60.74" height="60.74" fill="#b5bc01"/><rect x="242.97" y="242.97" width="60.74" height="60.74" fill="#f0de26"/><g transform="translate(242.97,242.97) scale(3.037) rotate(0)"><rect width="2" height="20" fill="#8ff1d1"/><rect x="4" width="2" height="20" fill="#8ff1d1"/><rect x="8" width="2" height="20" fill="#8ff1d1"/><rect x="12" width="2" height="20" fill="#8ff1d1"/><rect x="16" width="2" height="20" fill="#8ff1d1"/></g><rect x="303.7142857142857" y="242.9714285714286" width="60.74285714285715" height="60.74285714285715" fill="#dabd01"/><rect x="303.71" y="242.97" width="30.37" height="30.37" fill="#19b800"/><polygon points="334.08,242.97 334.08,273.34 303.71,273.34" fill="#83bb01"/><rect x="334.09" y="242.97" width="30.37" height="30.37" fill="#bdbc01"/><g transform="translate(334.09,242.97) scale(1.5185) rotate(0)"><rect width="2" height="20" fill="#9ebb01"/><rect x="4" width="2" height="20" fill="#9ebb01"/><rect x="8" width="2" height="20" fill="#9ebb01"/><rect x="12" width="2" height="20" fill="#9ebb01"/><rect x="16" width="2" height="20" fill="#9ebb01"/></g><rect x="303.71" y="273.34" width="30.37" height="30.37" fill="#8ebb01"/><circle cx="318.895" cy="288.525" r="15.185" fill="#efde25"/><rect x="334.09" y="273.34" width="30.37" height="30.37" fill="#dec308"/><circle cx="349.275" cy="288.525" r="15.185" fill="#c4cc3e"/><rect x="364.4571428571429" y="242.9714285714286" width="60.74285714285715" height="60.74285714285715" fill="#dabd01"/><rect x="364.46" y="242.97" width="30.37" height="30.37" fill="#c8bd01"/><g transform="translate(364.46,242.97) scale(1.5185) rotate(0)"><rect width="2" height="20" fill="#c2ce43"/><rect x="4" width="2" height="20" fill="#c2ce43"/><rect x="8" width="2" height="20" fill="#c2ce43"/><rect x="12" width="2" height="20" fill="#c2ce43"/><rect x="16" width="2" height="20" fill="#c2ce43"/></g><rect x="394.83" y="242.97" width="30.37" height="30.37" fill="#afda76"/><polygon points="425.2,242.97 425.2,273.34 394.83,273.34" fill="#c3bc01"/><rect x="364.46" y="273.34" width="30.37" height="30.37" fill="#21b800"/><rect x="364.46" y="273.34" width="30.37" height="30.37" fill="#a6e18f"/><rect x="394.83" y="273.34" width="30.37" height="30.37" fill="#8ff1cf"/><g transform="translate(394.83,273.34) scale(1.5185) rotate(0)"><rect width="2" height="20" fill="#f2e129"/><rect x="4" width="2" height="20" fill="#f2e129"/><rect x="8" width="2" height="20" fill="#f2e129"/><rect x="12" width="2" height="20" fill="#f2e129"/><rect x="16" width="2" height="20" fill="#f2e129"/></g><rect x="425.2" y="242.97" width="60.74" height="60.74" fill="#edd920"/><g transform="translate(425.2,242.97) scale(3.037) rotate(0)"><path d="M10 1L12.2451 7.90983H19.5106L13.6327 12.1803L15.8779 19.0902L10 14.8197L4.12215 19.0902L6.36729 12.1803L0.489441 7.90983H7.75487L10 1Z" fill="#bad359"/></g><rect x="485.9428571428572" y="242.9714285714286" width="60.74285714285715" height="60.74285714285715" fill="#dabd01"/><rect x="485.94" y="242.97" width="30.37" height="30.37" fill="#16b800"/><rect x="485.94" y="242.97" width="30.37" height="30.37" fill="#9ce8ac"/><rect x="516.31" y="242.97" width="30.37" height="30.37" fill="#9ce8ab"/><circle cx="531.4949999999999" cy="258.155" r="15.185" fill="#dec408"/><rect x="485.94" y="273.34" width="30.37" height="30.37" fill="#8bf4dc"/><g transform="translate(485.94,273.34) scale(1.5185) rotate(0)"><rect width="2" height="20" fill="#e0c60b"/><rect x="4" width="2" height="20" fill="#e0c60b"/><rect x="8" width="2" height="20" fill="#e0c60b"/><rect x="12" width="2" height="20" fill="#e0c60b"/><rect x="16" width="2" height="20" fill="#e0c60b"/></g><rect x="516.31" y="273.34" width="30.37" height="30.37" fill="#f2e22a"/><g transform="translate(516.31,273.34) scale(1.5185) rotate(0)"><rect width="20" height="2" fill="#39b900"/><rect y="4" width="20" height="2" fill="#39b900"/><rect y="8" width="20" height="2" fill="#39b900"/><rect y="12" width="20" height="2" fill="#39b900"/><rect y="16" width="20" height="2" fill="#39b900"/></g><rect x="546.69" y="242.97" width="60.74" height="60.74" fill="#e5ce14"/><g transform="translate(546.69,242.97) scale(3.037) rotate(0)"><path d="M10 1L12.2451 7.90983H19.5106L13.6327 12.1803L15.8779 19.0902L10 14.8197L4.12215 19.0902L6.36729 12.1803L0.489441 7.90983H7.75487L10 1Z" fill="#8df2d4"/></g><rect x="607.4285714285714" y="242.9714285714286" width="60.74285714285715" height="60.74285714285715" fill="#dabd01"/><rect x="607.43" y="242.97" width="30.37" height="30.37" fill="#d4c110"/><rect x="607.43" y="242.97" width="30.37" height="30.37" fill="#a1bc01"/><rect x="637.8" y="242.97" width="30.37" height="30.37" fill="#f3e32b"/><g transform="translate(637.8,242.97) scale(1.5185) rotate(0)"><path d="M10 1L12.2451 7.90983H19.5106L13.6327 12.1803L15.8779 19.0902L10 14.8197L4.12215 19.0902L6.36729 12.1803L0.489441 7.90983H7.75487L10 1Z" fill="#2ab900"/></g><rect x="607.43" y="273.34" width="30.37" height="30.37" fill="#d5c00e"/><circle cx="622.6149999999999" cy="288.525" r="15.185" fill="#65ba00"/><rect x="637.8" y="273.34" width="30.37" height="30.37" fill="#d5c10f"/><g transform="translate(637.8,273.34) scale(1.5185) rotate(0)"><rect width="20" height="2" fill="#f1e028"/><rect y="4" width="20" height="2" fill="#f1e028"/><rect y="8" width="20" height="2" fill="#f1e028"/><rect y="12" width="20" height="2" fill="#f1e028"/><rect y="16" width="20" height="2" fill="#f1e028"/></g><rect x="668.1714285714286" y="242.9714285714286" width="60.74285714285715" height="60.74285714285715" fill="#dabd01"/><rect x="668.17" y="242.97" width="30.37" height="30.37" fill="#48b900"/><g transform="translate(668.17,242.97) scale(1.5185) rotate(0)"><path d="M10 1L12.2451 7.90983H19.5106L13.6327 12.1803L15.8779 19.0902L10 14.8197L4.12215 19.0902L6.36729 12.1803L0.489441 7.90983H7.75487L10 1Z" fill="#d5c00e"/></g><rect x="698.54" y="242.97" width="30.37" height="30.37" fill="#7ebb01"/><g transform="translate(698.54,242.97) scale(1.5185) rotate(0)"><rect width="2" height="20" fill="#e5cd13"/><rect x="4" width="2" height="20" fill="#e5cd13"/><rect x="8" width="2" height="20" fill="#e5cd13"/><rect x="12" width="2" height="20" fill="#e5cd13"/><rect x="16" width="2" height="20" fill="#e5cd13"/></g><rect x="668.17" y="273.34" width="30.37" height="30.37" fill="#95bb01"/><polygon points="668.17,273.34 698.54,303.71 668.17,303.71" fill="#95edbf"/><rect x="698.54" y="273.34" width="30.37" height="30.37" fill="#a9bc01"/><g transform="translate(698.54,273.34) scale(1.5185) rotate(0)"><path d="M10 1L12.2451 7.90983H19.5106L13.6327 12.1803L15.8779 19.0902L10 14.8197L4.12215 19.0902L6.36729 12.1803L0.489441 7.90983H7.75487L10 1Z" fill="#bcd253"/></g><rect x="0" y="303.71" width="60.74" height="60.74" fill="#86bb01"/><g transform="translate(0,303.71) scale(3.037) rotate(0)"><path d="M10 5L5 0L0 5L5 10L0 15L5 20L10 15L15 20L20 15L15 10L20 5L15 0L10 5Z" fill="#e3ca10"/></g><rect x="60.74" y="303.71" width="60.74" height="60.74" fill="#cac82d"/><rect x="60.74" y="303.71" width="60.74" height="60.74" fill="#eedb23"/><rect x="121.4857142857143" y="303.7142857142857" width="60.74285714285715" height="60.74285714285715" fill="#dabd01"/><rect x="121.49" y="303.71" width="30.37" height="30.37" fill="#92bb01"/><rect x="121.49" y="303.71" width="30.37" height="30.37" fill="#f6e831"/><rect x="151.86" y="303.71" width="30.37" height="30.37" fill="#b1d972"/><g transform="translate(151.86,303.71) scale(1.5185) rotate(0)"><path d="M10 1L12.2451 7.90983H19.5106L13.6327 12.1803L15.8779 19.0902L10 14.8197L4.12215 19.0902L6.36729 12.1803L0.489441 7.90983H7.75487L10 1Z" fill="#21b800"/></g><rect x="121.49" y="334.09" width="30.37" height="30.37" fill="#78bb01"/><polygon points="121.49,334.09 151.85999999999999,334.09 151.85999999999999,364.46" fill="#edda21"/><rect x="151.86" y="334.09" width="30.37" height="30.37" fill="#88bb01"/><polygon points="182.23000000000002,334.09 182.23000000000002,364.46 151.86,364.46" fill="#fdf33d"/><rect x="182.22857142857146" y="303.7142857142857" width="60.74285714285715" height="60.74285714285715" fill="#dabd01"/><rect x="182.23" y="303.71" width="30.37" height="30.37" fill="#f5e72f"/><rect x="182.23" y="303.71" width="30.37" height="30.37" fill="#9ee6a6"/><rect x="212.6" y="303.71" width="30.37" height="30.37" fill="#f9ec35"/><polygon points="212.6,303.71 242.97,303.71 212.6,334.08" fill="#a6e18f"/><rect x="182.23" y="334.09" width="30.37" height="30.37" fill="#c8ca34"/><polygon points="212.6,334.09 212.6,364.46 182.23,364.46" fill="#cfc51f"/><rect x="212.6" y="334.09" width="30.37" height="30.37" fill="#f0de26"/><g transform="translate(212.6,334.09) scale(1.5185) rotate(0)"><path d="M10 5L5 0L0 5L5 10L0 15L5 20L10 15L15 20L20 15L15 10L20 5L15 0L10 5Z" fill="#6fba00"/></g><rect x="242.9714285714286" y="303.7142857142857" width="60.74285714285715" height="60.74285714285715" fill="#dabd01"/><rect x="242.97" y="303.71" width="30.37" height="30.37" fill="#d1c31a"/><circle cx="258.155" cy="318.895" r="15.185" fill="#a8e08b"/><rect x="273.34" y="303.71" width="30.37" height="30.37" fill="#72ba00"/><rect x="273.34" y="303.71" width="30.37" height="30.37" fill="#41b900"/><rect x="242.97" y="334.09" width="30.37" height="30.37" fill="#fbef38"/><g transform="translate(242.97,334.09) scale(1.5185) rotate(0)"><rect width="20" height="2" fill="#c7ca35"/><rect y="4" width="20" height="2" fill="#c7ca35"/><rect y="8" width="20" height="2" fill="#c7ca35"/><rect y="12" width="20" height="2" fill="#c7ca35"/><rect y="16" width="20" height="2" fill="#c7ca35"/></g><rect x="273.34" y="334.09" width="30.37" height="30.37" fill="#91efca"/><polygon points="273.34,334.09 303.71,334.09 273.34,364.46" fill="#68ba00"/><rect x="303.71" y="303.71" width="60.74" height="60.74" fill="#ead51c"/><g transform="translate(303.71,303.71) scale(3.037) rotate(0)"><rect width="2" height="20" fill="#e0c70c"/><rect x="4" width="2" height="20" fill="#e0c70c"/><rect x="8" width="2" height="20" fill="#e0c70c"/><rect x="12" width="2" height="20" fill="#e0c70c"/><rect x="16" width="2" height="20" fill="#e0c70c"/></g><rect x="364.46" y="303.71" width="60.74" height="60.74" fill="#cec522"/><rect x="364.46" y="303.71" width="60.74" height="60.74" fill="#9ce8ac"/><rect x="425.20000000000005" y="303.7142857142857" width="60.74285714285715" height="60.74285714285715" fill="#dabd01"/><rect x="425.2" y="303.71" width="30.37" height="30.37" fill="#ebd71e"/><polygon points="425.2,303.71 455.57,303.71 425.2,334.08" fill="#abde83"/><rect x="455.57" y="303.71" width="30.37" height="30.37" fill="#b5d666"/><g transform="translate(455.57,303.71) scale(1.5185) rotate(0)"><rect width="2" height="20" fill="#94bb01"/><rect x="4" width="2" height="20" fill="#94bb01"/><rect x="8" width="2" height="20" fill="#94bb01"/><rect x="12" width="2" height="20" fill="#94bb01"/><rect x="16" width="2" height="20" fill="#94bb01"/></g><rect x="425.2" y="334.09" width="30.37" height="30.37" fill="#a5bc01"/><g transform="translate(425.2,334.09) scale(1.5185) rotate(0)"><path d="M10 5L5 0L0 5L5 10L0 15L5 20L10 15L15 20L20 15L15 10L20 5L15 0L10 5Z" fill="#a2e39a"/></g><rect x="455.57" y="334.09" width="30.37" height="30.37" fill="#9ce8ab"/><rect x="455.57" y="334.09" width="30.37" height="30.37" fill="#36b900"/><rect x="485.94" y="303.71" width="60.74" height="60.74" fill="#faee38"/><rect x="485.94" y="303.71" width="60.74" height="60.74" fill="#e6cf15"/><rect x="546.6857142857143" y="303.7142857142857" width="60.74285714285715" height="60.74285714285715" fill="#dabd01"/><rect x="546.69" y="303.71" width="30.37" height="30.37" fill="#f4e52d"/><g transform="translate(546.69,303.71) scale(1.5185) rotate(0)"><path d="M10 5L5 0L0 5L5 10L0 15L5 20L10 15L15 20L20 15L15 10L20 5L15 0L10 5Z" fill="#bad359"/></g><rect x="577.06" y="303.71" width="30.37" height="30.37" fill="#afdb78"/><g transform="translate(577.06,303.71) scale(1.5185) rotate(0)"><rect width="20" height="2" fill="#65ba00"/><rect y="4" width="20" height="2" fill="#65ba00"/><rect y="8" width="20" height="2" fill="#65ba00"/><rect y="12" width="20" height="2" fill="#65ba00"/><rect y="16" width="20" height="2" fill="#65ba00"/></g><rect x="546.69" y="334.09" width="30.37" height="30.37" fill="#eedb22"/><circle cx="561.875" cy="349.275" r="15.185" fill="#c2cd43"/><rect x="577.06" y="334.09" width="30.37" height="30.37" fill="#97ebb9"/><g transform="translate(577.06,334.09) scale(1.5185) rotate(0)"><rect width="20" height="2" fill="#b2bc01"/><rect y="4" width="20" height="2" fill="#b2bc01"/><rect y="8" width="20" height="2" fill="#b2bc01"/><rect y="12" width="20" height="2" fill="#b2bc01"/><rect y="16" width="20" height="2" fill="#b2bc01"/></g><rect x="607.4285714285714" y="303.7142857142857" width="60.74285714285715" height="60.74285714285715" fill="#dabd01"/><rect x="607.43" y="303.71" width="30.37" height="30.37" fill="#efdd25"/><g transform="translate(607.43,303.71) scale(1.5185) rotate(0)"><rect width="2" height="20" fill="#eedc23"/><rect x="4" width="2" height="20" fill="#eedc23"/><rect x="8" width="2" height="20" fill="#eedc23"/><rect x="12" width="2" height="20" fill="#eedc23"/><rect x="16" width="2" height="20" fill="#eedc23"/></g><rect x="637.8" y="303.71" width="30.37" height="30.37" fill="#fdf33d"/><g transform="translate(637.8,303.71) scale(1.5185) rotate(0)"><path d="M10 5L5 0L0 5L5 10L0 15L5 20L10 15L15 20L20 15L15 10L20 5L15 0L10 5Z" fill="#8bf4db"/></g><rect x="607.43" y="334.09" width="30.37" height="30.37" fill="#9ce8ab"/><circle cx="622.6149999999999" cy="349.275" r="15.185" fill="#3db900"/><rect x="637.8" y="334.09" width="30.37" height="30.37" fill="#5dba00"/><g transform="translate(637.8,334.09) scale(1.5185) rotate(0)"><rect width="20" height="2" fill="#36b900"/><rect y="4" width="20" height="2" fill="#36b900"/><rect y="8" width="20" height="2" fill="#36b900"/><rect y="12" width="20" height="2" fill="#36b900"/><rect y="16" width="20" height="2" fill="#36b900"/></g><rect x="668.1714285714286" y="303.7142857142857" width="60.74285714285715" height="60.74285714285715" fill="#dabd01"/><rect x="668.17" y="303.71" width="30.37" height="30.37" fill="#a0bc01"/><g transform="translate(668.17,303.71) scale(1.5185) rotate(0)"><path d="M10 1L12.2451 7.90983H19.5106L13.6327 12.1803L15.8779 19.0902L10 14.8197L4.12215 19.0902L6.36729 12.1803L0.489441 7.90983H7.75487L10 1Z" fill="#ead51c"/></g><rect x="698.54" y="303.71" width="30.37" height="30.37" fill="#ead61c"/><polygon points="698.54,303.71 728.91,334.08 698.54,334.08" fill="#8af4dd"/><rect x="668.17" y="334.09" width="30.37" height="30.37" fill="#c8ca33"/><g transform="translate(668.17,334.09) scale(1.5185) rotate(0)"><rect width="2" height="20" fill="#b8d55f"/><rect x="4" width="2" height="20" fill="#b8d55f"/><rect x="8" width="2" height="20" fill="#b8d55f"/><rect x="12" width="2" height="20" fill="#b8d55f"/><rect x="16" width="2" height="20" fill="#b8d55f"/></g><rect x="698.54" y="334.09" width="30.37" height="30.37" fill="#fef43e"/><g transform="translate(698.54,334.09) scale(1.5185) rotate(0)"><rect width="2" height="20" fill="#afdb78"/><rect x="4" width="2" height="20" fill="#afdb78"/><rect x="8" width="2" height="20" fill="#afdb78"/><rect x="12" width="2" height="20" fill="#afdb78"/><rect x="16" width="2" height="20" fill="#afdb78"/></g><rect x="0" y="364.46" width="60.74" height="60.74" fill="#cbc729"/><polygon points="0,364.46 60.74,364.46 60.74,425.2" fill="#b7bc01"/><rect x="60.74285714285715" y="364.4571428571429" width="60.74285714285715" height="60.74285714285715" fill="#dabd01"/><rect x="60.74" y="364.46" width="30.37" height="30.37" fill="#31b900"/><g transform="translate(60.74,364.46) scale(1.5185) rotate(0)"><path d="M10 5L5 0L0 5L5 10L0 15L5 20L10 15L15 20L20 15L15 10L20 5L15 0L10 5Z" fill="#60ba00"/></g><rect x="91.11" y="364.46" width="30.37" height="30.37" fill="#efdd24"/><g transform="translate(91.11,364.46) scale(1.5185) rotate(0)"><rect width="2" height="20" fill="#77ba00"/><rect x="4" width="2" height="20" fill="#77ba00"/><rect x="8" width="2" height="20" fill="#77ba00"/><rect x="12" width="2" height="20" fill="#77ba00"/><rect x="16" width="2" height="20" fill="#77ba00"/></g><rect x="60.74" y="394.83" width="30.37" height="30.37" fill="#e4cd13"/><rect x="60.74" y="394.83" width="30.37" height="30.37" fill="#efdd25"/><rect x="91.11" y="394.83" width="30.37" height="30.37" fill="#aedb7a"/><g transform="translate(91.11,394.83) scale(1.5185) rotate(0)"><rect width="2" height="20" fill="#d9be04"/><rect x="4" width="2" height="20" fill="#d9be04"/><rect x="8" width="2" height="20" fill="#d9be04"/><rect x="12" width="2" height="20" fill="#d9be04"/><rect x="16" width="2" height="20" fill="#d9be04"/></g><rect x="121.49" y="364.46" width="60.74" height="60.74" fill="#94edc0"/><circle cx="151.85999999999999" cy="394.83" r="30.37" fill="#60ba00"/><rect x="182.23" y="364.46" width="60.74" height="60.74" fill="#d8be05"/><rect x="182.23" y="364.46" width="60.74" height="60.74" fill="#7abb01"/><rect x="242.97" y="364.46" width="60.74" height="60.74" fill="#efde25"/><g transform="translate(242.97,364.46) scale(3.037) rotate(0)"><rect width="2" height="20" fill="#f2e129"/><rect x="4" width="2" height="20" fill="#f2e129"/><rect x="8" width="2" height="20" fill="#f2e129"/><rect x="12" width="2" height="20" fill="#f2e129"/><rect x="16" width="2" height="20" fill="#f2e129"/></g><rect x="303.71" y="364.46" width="60.74" height="60.74" fill="#d6bd01"/><polygon points="303.71,364.46 364.45,364.46 303.71,425.2" fill="#2cb900"/><rect x="364.46" y="364.46" width="60.74" height="60.74" fill="#bad359"/><polygon points="364.46,364.46 425.2,364.46 364.46,425.2" fill="#a5e192"/><rect x="425.2" y="364.46" width="60.74" height="60.74" fill="#d8bd01"/><polygon points="425.2,364.46 485.94,364.46 485.94,425.2" fill="#25b800"/><rect x="485.94" y="364.46" width="60.74" height="60.74" fill="#9be9af"/><g transform="translate(485.94,364.46) scale(3.037) rotate(0)"><rect width="2" height="20" fill="#d6c00d"/><rect x="4" width="2" height="20" fill="#d6c00d"/><rect x="8" width="2" height="20" fill="#d6c00d"/><rect x="12" width="2" height="20" fill="#d6c00d"/><rect x="16" width="2" height="20" fill="#d6c00d"/></g><rect x="546.6857142857143" y="364.4571428571429" width="60.74285714285715" height="60.74285714285715" fill="#dabd01"/><rect x="546.69" y="364.46" width="30.37" height="30.37" fill="#8ff1cf"/><circle cx="561.875" cy="379.645" r="15.185" fill="#f0df26"/><rect x="577.06" y="364.46" width="30.37" height="30.37" fill="#8ff1cf"/><polygon points="607.43,364.46 607.43,394.83 577.06,394.83" fill="#b5d767"/><rect x="546.69" y="394.83" width="30.37" height="30.37" fill="#8cf3d7"/><polygon points="546.69,394.83 577.0600000000001,394.83 546.69,425.2" fill="#b2bc01"/><rect x="577.06" y="394.83" width="30.37" height="30.37" fill="#dabe02"/><rect x="577.06" y="394.83" width="30.37" height="30.37" fill="#b8bc01"/><rect x="607.4285714285714" y="364.4571428571429" width="60.74285714285715" height="60.74285714285715" fill="#dabd01"/><rect x="607.43" y="364.46" width="30.37" height="30.37" fill="#ddc106"/><polygon points="637.8,364.46 637.8,394.83 607.43,394.83" fill="#78bb01"/><rect x="637.8" y="364.46" width="30.37" height="30.37" fill="#a3e398"/><g transform="translate(637.8,364.46) scale(1.5185) rotate(0)"><path d="M10 5L5 0L0 5L5 10L0 15L5 20L10 15L15 20L20 15L15 10L20 5L15 0L10 5Z" fill="#b0da74"/></g><rect x="607.43" y="394.83" width="30.37" height="30.37" fill="#f7e932"/><polygon points="637.8,394.83 637.8,425.2 607.43,425.2" fill="#dbbf03"/><rect x="637.8" y="394.83" width="30.37" height="30.37" fill="#f3e32b"/><rect x="637.8" y="394.83" width="30.37" height="30.37" fill="#15b800"/><rect x="668.17" y="364.46" width="60.74" height="60.74" fill="#eedc24"/><g transform="translate(668.17,364.46) scale(3.037) rotate(0)"><path d="M10 1L12.2451 7.90983H19.5106L13.6327 12.1803L15.8779 19.0902L10 14.8197L4.12215 19.0902L6.36729 12.1803L0.489441 7.90983H7.75487L10 1Z" fill="#d0c41d"/></g></g></svg>