<?xml version="1.0" standalone="no"?><svg xmlns:xlink="http://www.w3.org/1999/xlink" xmlns="http://www.w3.org/2000/svg" viewBox="0 0 1000 538.4664091686191" preserveAspectRatio="xMaxYMax slice"><g transform="scale(1.2663838409421897)"><rect x="0" y="0" width="789.657142857143" height="425.20000000000005" fill="#5e0061"/><rect x="0" y="0" width="60.74" height="60.74" fill="#22b3dd"/><g transform="translate(0,0) scale(3.037) rotate(0)"><rect width="2" height="20" fill="#42559b"/><rect x="4" width="2" height="20" fill="#42559b"/><rect x="8" width="2" height="20" fill="#42559b"/><rect x="12" width="2" height="20" fill="#42559b"/><rect x="16" width="2" height="20" fill="#42559b"/></g><rect x="60.74" y="0" width="60.74" height="60.74" fill="#49c440"/><g transform="translate(60.74,0) scale(3.037) rotate(0)"><rect width="2" height="20" fill="#8d4b5d"/><rect x="4" width="2" height="20" fill="#8d4b5d"/><rect x="8" width="2" height="20" fill="#8d4b5d"/><rect x="12" width="2" height="20" fill="#8d4b5d"/><rect x="16" width="2" height="20" fill="#8d4b5d"/></g><rect x="121.49" y="0" width="60.74" height="60.74" fill="#bd1f63"/><g transform="translate(121.49,0) scale(3.037) rotate(0)"><rect width="20" height="2" fill="#c82364"/><rect y="4" width="20" height="2" fill="#c82364"/><rect y="8" width="20" height="2" fill="#c82364"/><rect y="12" width="20" height="2" fill="#c82364"/><rect y="16" width="20" height="2" fill="#c82364"/></g><rect x="182.23" y="0" width="60.74" height="60.74" fill="#46e23b"/><g transform="translate(182.23,0) scale(3.037) rotate(0)"><path d="M10 5L5 0L0 5L5 10L0 15L5 20L10 15L15 20L20 15L15 10L20 5L15 0L10 5Z" fill="#517d4c"/></g><rect x="242.97" y="0" width="60.74" height="60.74" fill="#590e6b"/><rect x="242.97" y="0" width="60.74" height="60.74" fill="#c02063"/><rect x="303.71" y="0" width="60.74" height="60.74" fill="#f63265"/><g transform="translate(303.71,0) scale(3.037) rotate(0)"><rect width="20" height="10" fill="#58126e"/></g><rect x="364.4571428571429" y="0" width="60.74285714285715" height="60.74285714285715" fill="#5e0061"/><rect x="364.46" y="0" width="30.37" height="30.37" fill="#551c74"/><g transform="translate(364.46,0) scale(1.5185) rotate(0)"><path d="M10 5L5 0L0 5L5 10L0 15L5 20L10 15L15 20L20 15L15 10L20 5L15 0L10 5Z" fill="#26a6d3"/></g><rect x="394.83" y="0" width="30.37" height="30.37" fill="#600361"/><rect x="394.83" y="0" width="30.37" height="30.37" fill="#87425d"/><rect x="364.46" y="30.37" width="30.37" height="30.37" fill="#5c135e"/><rect x="364.46" y="30.37" width="30.37" height="30.37" fill="#551b74"/><rect x="394.83" y="30.37" width="30.37" height="30.37" fill="#564e54"/><g transform="translate(394.83,30.37) scale(1.5185) rotate(0)"><path d="M10 5L5 0L0 5L5 10L0 15L5 20L10 15L15 20L20 15L15 10L20 5L15 0L10 5Z" fill="#526d4f"/></g><rect x="425.20000000000005" y="0" width="60.74285714285715" height="60.74285714285715" fill="#5e0061"/><rect x="425.2" y="0" width="30.37" height="30.37" fill="#823a5e"/><g transform="translate(425.2,0) scale(1.5185) rotate(0)"><rect width="20" height="10" fill="#574555"/></g><rect x="455.57" y="0" width="30.37" height="30.37" fill="#435098"/><g transform="translate(455.57,0) scale(1.5185) rotate(0)"><rect width="20" height="2" fill="#5a285a"/><rect y="4" width="20" height="2" fill="#5a285a"/><rect y="8" width="20" height="2" fill="#5a285a"/><rect y="12" width="20" height="2" fill="#5a285a"/><rect y="16" width="20" height="2" fill="#5a285a"/></g><rect x="425.2" y="30.37" width="30.37" height="30.37" fill="#7f0b62"/><g transform="translate(425.2,30.37) scale(1.5185) rotate(0)"><rect width="2" height="20" fill="#526e4f"/><rect x="4" width="2" height="20" fill="#526e4f"/><rect x="8" width="2" height="20" fill="#526e4f"/><rect x="12" width="2" height="20" fill="#526e4f"/><rect x="16" width="2" height="20" fill="#526e4f"/></g><rect x="455.57" y="30.37" width="30.37" height="30.37" fill="#6d0561"/><g transform="translate(455.57,30.37) scale(1.5185) rotate(0)"><rect width="2" height="20" fill="#bf9c58"/><rect x="4" width="2" height="20" fill="#bf9c58"/><rect x="8" width="2" height="20" fill="#bf9c58"/><rect x="12" width="2" height="20" fill="#bf9c58"/><rect x="16" width="2" height="20" fill="#bf9c58"/></g><rect x="485.9428571428572" y="0" width="60.74285714285715" height="60.74285714285715" fill="#5e0061"/><rect x="485.94" y="0" width="30.37" height="30.37" fill="#47dd3c"/><g transform="translate(485.94,0) scale(1.5185) rotate(0)"><rect width="20" height="2" fill="#5b1f5c"/><rect y="4" width="20" height="2" fill="#5b1f5c"/><rect y="8" width="20" height="2" fill="#5b1f5c"/><rect y="12" width="20" height="2" fill="#5b1f5c"/><rect y="16" width="20" height="2" fill="#5b1f5c"/></g><rect x="516.31" y="0" width="30.37" height="30.37" fill="#d12664"/><rect x="516.31" y="0" width="30.37" height="30.37" fill="#3871af"/><rect x="485.94" y="30.37" width="30.37" height="30.37" fill="#493e8c"/><g transform="translate(485.94,30.37) scale(1.5185) rotate(0)"><rect width="20" height="10" fill="#5b1e5c"/></g><rect x="516.31" y="30.37" width="30.37" height="30.37" fill="#42539a"/><g transform="translate(516.31,30.37) scale(1.5185) rotate(0)"><rect width="2" height="20" fill="#80375e"/><rect x="4" width="2" height="20" fill="#80375e"/><rect x="8" width="2" height="20" fill="#80375e"/><rect x="12" width="2" height="20" fill="#80375e"/><rect x="16" width="2" height="20" fill="#80375e"/></g><rect x="546.6857142857143" y="0" width="60.74285714285715" height="60.74285714285715" fill="#5e0061"/><rect x="546.69" y="0" width="30.37" height="30.37" fill="#4e9548"/><rect x="546.69" y="0" width="30.37" height="30.37" fill="#536850"/><rect x="577.06" y="0" width="30.37" height="30.37" fill="#5b1c5c"/><g transform="translate(577.06,0) scale(1.5185) rotate(0)"><rect width="2" height="20" fill="#ccb157"/><rect x="4" width="2" height="20" fill="#ccb157"/><rect x="8" width="2" height="20" fill="#ccb157"/><rect x="12" width="2" height="20" fill="#ccb157"/><rect x="16" width="2" height="20" fill="#ccb157"/></g><rect x="546.69" y="30.37" width="30.37" height="30.37" fill="#7f0b62"/><g transform="translate(546.69,30.37) scale(1.5185) rotate(0)"><rect width="20" height="2" fill="#4abc42"/><rect y="4" width="20" height="2" fill="#4abc42"/><rect y="8" width="20" height="2" fill="#4abc42"/><rect y="12" width="20" height="2" fill="#4abc42"/><rect y="16" width="20" height="2" fill="#4abc42"/></g><rect x="577.06" y="30.37" width="30.37" height="30.37" fill="#4bb842"/><g transform="translate(577.06,30.37) scale(1.5185) rotate(0)"><rect width="2" height="20" fill="#8b485d"/><rect x="4" width="2" height="20" fill="#8b485d"/><rect x="8" width="2" height="20" fill="#8b485d"/><rect x="12" width="2" height="20" fill="#8b485d"/><rect x="16" width="2" height="20" fill="#8b485d"/></g><rect x="607.43" y="0" width="60.74" height="60.74" fill="#49c340"/><g transform="translate(607.43,0) scale(3.037) rotate(0)"><rect width="20" height="2" fill="#ee2f65"/><rect y="4" width="20" height="2" fill="#ee2f65"/><rect y="8" width="20" height="2" fill="#ee2f65"/><rect y="12" width="20" height="2" fill="#ee2f65"/><rect y="16" width="20" height="2" fill="#ee2f65"/></g><rect x="668.1714285714286" y="0" width="60.74285714285715" height="60.74285714285715" fill="#5e0061"/><rect x="668.17" y="0" width="30.37" height="30.37" fill="#564e54"/><g transform="translate(668.17,0) scale(1.5185) rotate(0)"><path d="M10 5L5 0L0 5L5 10L0 15L5 20L10 15L15 20L20 15L15 10L20 5L15 0L10 5Z" fill="#74235f"/></g><rect x="698.54" y="0" width="30.37" height="30.37" fill="#357bb6"/><g transform="translate(698.54,0) scale(1.5185) rotate(0)"><rect width="20" height="2" fill="#d8c356"/><rect y="4" width="20" height="2" fill="#d8c356"/><rect y="8" width="20" height="2" fill="#d8c356"/><rect y="12" width="20" height="2" fill="#d8c356"/><rect y="16" width="20" height="2" fill="#d8c356"/></g><rect x="668.17" y="30.37" width="30.37" height="30.37" fill="#820c62"/><g transform="translate(668.17,30.37) scale(1.5185) rotate(0)"><rect width="20" height="10" fill="#536650"/></g><rect x="698.54" y="30.37" width="30.37" height="30.37" fill="#2b99cb"/><g transform="translate(698.54,30.37) scale(1.5185) rotate(0)"><rect width="2" height="20" fill="#681060"/><rect x="4" width="2" height="20" fill="#681060"/><rect x="8" width="2" height="20" fill="#681060"/><rect x="12" width="2" height="20" fill="#681060"/><rect x="16" width="2" height="20" fill="#681060"/></g><rect x="728.91" y="0" width="60.74" height="60.74" fill="#b68d59"/><rect x="728.91" y="0" width="60.74" height="60.74" fill="#47dc3c"/><rect x="0" y="60.74285714285715" width="60.74285714285715" height="60.74285714285715" fill="#5e0061"/><rect x="0" y="60.74" width="30.37" height="30.37" fill="#c9ab57"/><g transform="translate(0,60.74) scale(1.5185) rotate(0)"><rect width="2" height="20" fill="#ab1963"/><rect x="4" width="2" height="20" fill="#ab1963"/><rect x="8" width="2" height="20" fill="#ab1963"/><rect x="12" width="2" height="20" fill="#ab1963"/><rect x="16" width="2" height="20" fill="#ab1963"/></g><rect x="30.37" y="60.74" width="30.37" height="30.37" fill="#a7755a"/><g transform="translate(30.37,60.74) scale(1.5185) rotate(0)"><rect width="2" height="20" fill="#dd2a64"/><rect x="4" width="2" height="20" fill="#dd2a64"/><rect x="8" width="2" height="20" fill="#dd2a64"/><rect x="12" width="2" height="20" fill="#dd2a64"/><rect x="16" width="2" height="20" fill="#dd2a64"/></g><rect x="0" y="91.11" width="30.37" height="30.37" fill="#e02b64"/><g transform="translate(0,91.11) scale(1.5185) rotate(0)"><path d="M10 5L5 0L0 5L5 10L0 15L5 20L10 15L15 20L20 15L15 10L20 5L15 0L10 5Z" fill="#347cb6"/></g><rect x="30.37" y="91.11" width="30.37" height="30.37" fill="#f03065"/><g transform="translate(30.37,91.11) scale(1.5185) rotate(0)"><path d="M10 5L5 0L0 5L5 10L0 15L5 20L10 15L15 20L20 15L15 10L20 5L15 0L10 5Z" fill="#405a9f"/></g><rect x="60.74" y="60.74" width="60.74" height="60.74" fill="#8b485d"/><rect x="60.74" y="60.74" width="60.74" height="60.74" fill="#843c5e"/><rect x="121.49" y="60.74" width="60.74" height="60.74" fill="#dd2a64"/><rect x="121.49" y="60.74" width="60.74" height="60.74" fill="#b89059"/><rect x="182.23" y="60.74" width="60.74" height="60.74" fill="#3088bf"/><g transform="translate(182.23,60.74) scale(3.037) rotate(0)"><rect width="2" height="20" fill="#e02b64"/><rect x="4" width="2" height="20" fill="#e02b64"/><rect x="8" width="2" height="20" fill="#e02b64"/><rect x="12" width="2" height="20" fill="#e02b64"/><rect x="16" width="2" height="20" fill="#e02b64"/></g><rect x="242.97" y="60.74" width="60.74" height="60.74" fill="#941262"/><g transform="translate(242.97,60.74) scale(3.037) rotate(0)"><rect width="20" height="2" fill="#517e4c"/><rect y="4" width="20" height="2" fill="#517e4c"/><rect y="8" width="20" height="2" fill="#517e4c"/><rect y="12" width="20" height="2" fill="#517e4c"/><rect y="16" width="20" height="2" fill="#517e4c"/></g><rect x="303.7142857142857" y="60.74285714285715" width="60.74285714285715" height="60.74285714285715" fill="#5e0061"/><rect x="303.71" y="60.74" width="30.37" height="30.37" fill="#fa3365"/><g transform="translate(303.71,60.74) scale(1.5185) rotate(0)"><rect width="20" height="10" fill="#a01663"/></g><rect x="334.09" y="60.74" width="30.37" height="30.37" fill="#5b1d5c"/><rect x="334.09" y="60.74" width="30.37" height="30.37" fill="#790962"/><rect x="303.71" y="91.11" width="30.37" height="30.37" fill="#f03065"/><g transform="translate(303.71,91.11) scale(1.5185) rotate(0)"><rect width="2" height="20" fill="#3185bd"/><rect x="4" width="2" height="20" fill="#3185bd"/><rect x="8" width="2" height="20" fill="#3185bd"/><rect x="12" width="2" height="20" fill="#3185bd"/><rect x="16" width="2" height="20" fill="#3185bd"/></g><rect x="334.09" y="91.11" width="30.37" height="30.37" fill="#574456"/><g transform="translate(334.09,91.11) scale(1.5185) rotate(0)"><rect width="20" height="2" fill="#28a1d0"/><rect y="4" width="20" height="2" fill="#28a1d0"/><rect y="8" width="20" height="2" fill="#28a1d0"/><rect y="12" width="20" height="2" fill="#28a1d0"/><rect y="16" width="20" height="2" fill="#28a1d0"/></g><rect x="364.4571428571429" y="60.74285714285715" width="60.74285714285715" height="60.74285714285715" fill="#5e0061"/><rect x="364.46" y="60.74" width="30.37" height="30.37" fill="#40599e"/><g transform="translate(364.46,60.74) scale(1.5185) rotate(0)"><rect width="20" height="2" fill="#3871af"/><rect y="4" width="20" height="2" fill="#3871af"/><rect y="8" width="20" height="2" fill="#3871af"/><rect y="12" width="20" height="2" fill="#3871af"/><rect y="16" width="20" height="2" fill="#3871af"/></g><rect x="394.83" y="60.74" width="30.37" height="30.37" fill="#bf9b58"/><g transform="translate(394.83,60.74) scale(1.5185) rotate(0)"><path d="M10 5L5 0L0 5L5 10L0 15L5 20L10 15L15 20L20 15L15 10L20 5L15 0L10 5Z" fill="#4e9548"/></g><rect x="364.46" y="91.11" width="30.37" height="30.37" fill="#3b67a8"/><rect x="364.46" y="91.11" width="30.37" height="30.37" fill="#517c4c"/><rect x="394.83" y="91.11" width="30.37" height="30.37" fill="#b21b63"/><g transform="translate(394.83,91.11) scale(1.5185) rotate(0)"><rect width="20" height="10" fill="#299fce"/></g><rect x="425.2" y="60.74" width="60.74" height="60.74" fill="#4d9e46"/><g transform="translate(425.2,60.74) scale(3.037) rotate(0)"><rect width="2" height="20" fill="#8b0f62"/><rect x="4" width="2" height="20" fill="#8b0f62"/><rect x="8" width="2" height="20" fill="#8b0f62"/><rect x="12" width="2" height="20" fill="#8b0f62"/><rect x="16" width="2" height="20" fill="#8b0f62"/></g><rect x="485.94" y="60.74" width="60.74" height="60.74" fill="#7c315e"/><g transform="translate(485.94,60.74) scale(3.037) rotate(0)"><rect width="20" height="10" fill="#357ab5"/></g><rect x="546.69" y="60.74" width="60.74" height="60.74" fill="#3283bb"/><rect x="546.69" y="60.74" width="60.74" height="60.74" fill="#4c3485"/><rect x="607.43" y="60.74" width="60.74" height="60.74" fill="#c3a258"/><g transform="translate(607.43,60.74) scale(3.037) rotate(0)"><rect width="2" height="20" fill="#5d0363"/><rect x="4" width="2" height="20" fill="#5d0363"/><rect x="8" width="2" height="20" fill="#5d0363"/><rect x="12" width="2" height="20" fill="#5d0363"/><rect x="16" width="2" height="20" fill="#5d0363"/></g><rect x="668.1714285714286" y="60.74285714285715" width="60.74285714285715" height="60.74285714285715" fill="#5e0061"/><rect x="668.17" y="60.74" width="30.37" height="30.37" fill="#d72864"/><g transform="translate(668.17,60.74) scale(1.5185) rotate(0)"><path d="M10 5L5 0L0 5L5 10L0 15L5 20L10 15L15 20L20 15L15 10L20 5L15 0L10 5Z" fill="#444e97"/></g><rect x="698.54" y="60.74" width="30.37" height="30.37" fill="#3f5ba0"/><rect x="698.54" y="60.74" width="30.37" height="30.37" fill="#40589e"/><rect x="668.17" y="91.11" width="30.37" height="30.37" fill="#decd55"/><g transform="translate(668.17,91.11) scale(1.5185) rotate(0)"><rect width="20" height="10" fill="#77285f"/></g><rect x="698.54" y="91.11" width="30.37" height="30.37" fill="#4e9548"/><g transform="translate(698.54,91.11) scale(1.5185) rotate(0)"><rect width="2" height="20" fill="#ba1e63"/><rect x="4" width="2" height="20" fill="#ba1e63"/><rect x="8" width="2" height="20" fill="#ba1e63"/><rect x="12" width="2" height="20" fill="#ba1e63"/><rect x="16" width="2" height="20" fill="#ba1e63"/></g><rect x="728.91" y="60.74" width="60.74" height="60.74" fill="#2f8bc1"/><g transform="translate(728.91,60.74) scale(3.037) rotate(0)"><path d="M10 5L5 0L0 5L5 10L0 15L5 20L10 15L15 20L20 15L15 10L20 5L15 0L10 5Z" fill="#830c62"/></g><rect x="0" y="121.4857142857143" width="60.74285714285715" height="60.74285714285715" fill="#5e0061"/><rect x="0" y="121.49" width="30.37" height="30.37" fill="#860d62"/><rect x="0" y="121.49" width="30.37" height="30.37" fill="#47db3c"/><rect x="30.37" y="121.49" width="30.37" height="30.37" fill="#640960"/><g transform="translate(30.37,121.49) scale(1.5185) rotate(0)"><rect width="2" height="20" fill="#27a4d2"/><rect x="4" width="2" height="20" fill="#27a4d2"/><rect x="8" width="2" height="20" fill="#27a4d2"/><rect x="12" width="2" height="20" fill="#27a4d2"/><rect x="16" width="2" height="20" fill="#27a4d2"/></g><rect x="0" y="151.86" width="30.37" height="30.37" fill="#91525c"/><g transform="translate(0,151.86) scale(1.5185) rotate(0)"><rect width="2" height="20" fill="#592b5a"/><rect x="4" width="2" height="20" fill="#592b5a"/><rect x="8" width="2" height="20" fill="#592b5a"/><rect x="12" width="2" height="20" fill="#592b5a"/><rect x="16" width="2" height="20" fill="#592b5a"/></g><rect x="30.37" y="151.86" width="30.37" height="30.37" fill="#d02664"/><g transform="translate(30.37,151.86) scale(1.5185) rotate(0)"><rect width="2" height="20" fill="#23afda"/><rect x="4" width="2" height="20" fill="#23afda"/><rect x="8" width="2" height="20" fill="#23afda"/><rect x="12" width="2" height="20" fill="#23afda"/><rect x="16" width="2" height="20" fill="#23afda"/></g><rect x="60.74" y="121.49" width="60.74" height="60.74" fill="#c92364"/><g transform="translate(60.74,121.49) scale(3.037) rotate(0)"><rect width="2" height="20" fill="#9b1463"/><rect x="4" width="2" height="20" fill="#9b1463"/><rect x="8" width="2" height="20" fill="#9b1463"/><rect x="12" width="2" height="20" fill="#9b1463"/><rect x="16" width="2" height="20" fill="#9b1463"/></g><rect x="121.49" y="121.49" width="60.74" height="60.74" fill="#50844b"/><g transform="translate(121.49,121.49) scale(3.037) rotate(0)"><path d="M10 5L5 0L0 5L5 10L0 15L5 20L10 15L15 20L20 15L15 10L20 5L15 0L10 5Z" fill="#d5bf56"/></g><rect x="182.23" y="121.49" width="60.74" height="60.74" fill="#532278"/><g transform="translate(182.23,121.49) scale(3.037) rotate(0)"><rect width="20" height="10" fill="#810c62"/></g><rect x="242.97" y="121.49" width="60.74" height="60.74" fill="#5c0766"/><g transform="translate(242.97,121.49) scale(3.037) rotate(0)"><rect width="20" height="2" fill="#5b1d5c"/><rect y="4" width="20" height="2" fill="#5b1d5c"/><rect y="8" width="20" height="2" fill="#5b1d5c"/><rect y="12" width="20" height="2" fill="#5b1d5c"/><rect y="16" width="20" height="2" fill="#5b1d5c"/></g><rect x="303.71" y="121.49" width="60.74" height="60.74" fill="#cbaf57"/><rect x="303.71" y="121.49" width="60.74" height="60.74" fill="#90515c"/><rect x="364.46" y="121.49" width="60.74" height="60.74" fill="#4a3c8a"/><g transform="translate(364.46,121.49) scale(3.037) rotate(0)"><rect width="2" height="20" fill="#9c1463"/><rect x="4" width="2" height="20" fill="#9c1463"/><rect x="8" width="2" height="20" fill="#9c1463"/><rect x="12" width="2" height="20" fill="#9c1463"/><rect x="16" width="2" height="20" fill="#9c1463"/></g><rect x="425.2" y="121.49" width="60.74" height="60.74" fill="#96595c"/><g transform="translate(425.2,121.49) scale(3.037) rotate(0)"><rect width="2" height="20" fill="#522379"/><rect x="4" width="2" height="20" fill="#522379"/><rect x="8" width="2" height="20" fill="#522379"/><rect x="12" width="2" height="20" fill="#522379"/><rect x="16" width="2" height="20" fill="#522379"/></g><rect x="485.94" y="121.49" width="60.74" height="60.74" fill="#4bb343"/><g transform="translate(485.94,121.49) scale(3.037) rotate(0)"><rect width="20" height="10" fill="#853f5d"/></g><rect x="546.69" y="121.49" width="60.74" height="60.74" fill="#4aba42"/><g transform="translate(546.69,121.49) scale(3.037) rotate(0)"><path d="M10 5L5 0L0 5L5 10L0 15L5 20L10 15L15 20L20 15L15 10L20 5L15 0L10 5Z" fill="#47dd3c"/></g><rect x="607.4285714285714" y="121.4857142857143" width="60.74285714285715" height="60.74285714285715" fill="#5e0061"/><rect x="607.43" y="121.49" width="30.37" height="30.37" fill="#4d3485"/><g transform="translate(607.43,121.49) scale(1.5185) rotate(0)"><path d="M10 5L5 0L0 5L5 10L0 15L5 20L10 15L15 20L20 15L15 10L20 5L15 0L10 5Z" fill="#a26d5b"/></g><rect x="637.8" y="121.49" width="30.37" height="30.37" fill="#5e0261"/><g transform="translate(637.8,121.49) scale(1.5185) rotate(0)"><rect width="2" height="20" fill="#25a9d6"/><rect x="4" width="2" height="20" fill="#25a9d6"/><rect x="8" width="2" height="20" fill="#25a9d6"/><rect x="12" width="2" height="20" fill="#25a9d6"/><rect x="16" width="2" height="20" fill="#25a9d6"/></g><rect x="607.43" y="151.86" width="30.37" height="30.37" fill="#4e3082"/><g transform="translate(607.43,151.86) scale(1.5185) rotate(0)"><path d="M10 5L5 0L0 5L5 10L0 15L5 20L10 15L15 20L20 15L15 10L20 5L15 0L10 5Z" fill="#ebe154"/></g><rect x="637.8" y="151.86" width="30.37" height="30.37" fill="#ebe154"/><g transform="translate(637.8,151.86) scale(1.5185) rotate(0)"><rect width="2" height="20" fill="#dac656"/><rect x="4" width="2" height="20" fill="#dac656"/><rect x="8" width="2" height="20" fill="#dac656"/><rect x="12" width="2" height="20" fill="#dac656"/><rect x="16" width="2" height="20" fill="#dac656"/></g><rect x="668.17" y="121.49" width="60.74" height="60.74" fill="#9f1563"/><rect x="668.17" y="121.49" width="60.74" height="60.74" fill="#25a8d5"/><rect x="728.9142857142858" y="121.4857142857143" width="60.74285714285715" height="60.74285714285715" fill="#5e0061"/><rect x="728.91" y="121.49" width="30.37" height="30.37" fill="#561771"/><g transform="translate(728.91,121.49) scale(1.5185) rotate(0)"><path d="M10 5L5 0L0 5L5 10L0 15L5 20L10 15L15 20L20 15L15 10L20 5L15 0L10 5Z" fill="#4ca845"/></g><rect x="759.29" y="121.49" width="30.37" height="30.37" fill="#574655"/><g transform="translate(759.29,121.49) scale(1.5185) rotate(0)"><rect width="20" height="10" fill="#5b205c"/></g><rect x="728.91" y="151.86" width="30.37" height="30.37" fill="#b18659"/><g transform="translate(728.91,151.86) scale(1.5185) rotate(0)"><path d="M10 5L5 0L0 5L5 10L0 15L5 20L10 15L15 20L20 15L15 10L20 5L15 0L10 5Z" fill="#444f97"/></g><rect x="759.29" y="151.86" width="30.37" height="30.37" fill="#3c65a7"/><g transform="translate(759.29,151.86) scale(1.5185) rotate(0)"><path d="M10 5L5 0L0 5L5 10L0 15L5 20L10 15L15 20L20 15L15 10L20 5L15 0L10 5Z" fill="#454994"/></g><rect x="0" y="182.23" width="60.74" height="60.74" fill="#52754d"/><g transform="translate(0,182.23) scale(3.037) rotate(0)"><rect width="20" height="2" fill="#555453"/><rect y="4" width="20" height="2" fill="#555453"/><rect y="8" width="20" height="2" fill="#555453"/><rect y="12" width="20" height="2" fill="#555453"/><rect y="16" width="20" height="2" fill="#555453"/></g><rect x="60.74" y="182.23" width="60.74" height="60.74" fill="#e22c64"/><g transform="translate(60.74,182.23) scale(3.037) rotate(0)"><rect width="20" height="10" fill="#5d0d5f"/></g><rect x="121.4857142857143" y="182.22857142857146" width="60.74285714285715" height="60.74285714285715" fill="#5e0061"/><rect x="121.49" y="182.23" width="30.37" height="30.37" fill="#b89059"/><g transform="translate(121.49,182.23) scale(1.5185) rotate(0)"><rect width="20" height="10" fill="#810b62"/></g><rect x="151.86" y="182.23" width="30.37" height="30.37" fill="#502a7e"/><rect x="151.86" y="182.23" width="30.37" height="30.37" fill="#5c0f5f"/><rect x="121.49" y="212.6" width="30.37" height="30.37" fill="#d42764"/><g transform="translate(121.49,212.6) scale(1.5185) rotate(0)"><rect width="2" height="20" fill="#25abd7"/><rect x="4" width="2" height="20" fill="#25abd7"/><rect x="8" width="2" height="20" fill="#25abd7"/><rect x="12" width="2" height="20" fill="#25abd7"/><rect x="16" width="2" height="20" fill="#25abd7"/></g><rect x="151.86" y="212.6" width="30.37" height="30.37" fill="#901162"/><g transform="translate(151.86,212.6) scale(1.5185) rotate(0)"><path d="M10 5L5 0L0 5L5 10L0 15L5 20L10 15L15 20L20 15L15 10L20 5L15 0L10 5Z" fill="#434f98"/></g><rect x="182.23" y="182.23" width="60.74" height="60.74" fill="#780962"/><g transform="translate(182.23,182.23) scale(3.037) rotate(0)"><rect width="2" height="20" fill="#e3d555"/><rect x="4" width="2" height="20" fill="#e3d555"/><rect x="8" width="2" height="20" fill="#e3d555"/><rect x="12" width="2" height="20" fill="#e3d555"/><rect x="16" width="2" height="20" fill="#e3d555"/></g><rect x="242.9714285714286" y="182.22857142857146" width="60.74285714285715" height="60.74285714285715" fill="#5e0061"/><rect x="242.97" y="182.23" width="30.37" height="30.37" fill="#620761"/><g transform="translate(242.97,182.23) scale(1.5185) rotate(0)"><path d="M10 5L5 0L0 5L5 10L0 15L5 20L10 15L15 20L20 15L15 10L20 5L15 0L10 5Z" fill="#a11663"/></g><rect x="273.34" y="182.23" width="30.37" height="30.37" fill="#d5bf56"/><rect x="273.34" y="182.23" width="30.37" height="30.37" fill="#551b74"/><rect x="242.97" y="212.6" width="30.37" height="30.37" fill="#e5d855"/><g transform="translate(242.97,212.6) scale(1.5185) rotate(0)"><rect width="20" height="10" fill="#541c75"/></g><rect x="273.34" y="212.6" width="30.37" height="30.37" fill="#493f8c"/><g transform="translate(273.34,212.6) scale(1.5185) rotate(0)"><path d="M10 5L5 0L0 5L5 10L0 15L5 20L10 15L15 20L20 15L15 10L20 5L15 0L10 5Z" fill="#eae054"/></g><rect x="303.7142857142857" y="182.22857142857146" width="60.74285714285715" height="60.74285714285715" fill="#5e0061"/><rect x="303.71" y="182.23" width="30.37" height="30.37" fill="#5b1e5c"/><g transform="translate(303.71,182.23) scale(1.5185) rotate(0)"><rect width="20" height="2" fill="#9b1463"/><rect y="4" width="20" height="2" fill="#9b1463"/><rect y="8" width="20" height="2" fill="#9b1463"/><rect y="12" width="20" height="2" fill="#9b1463"/><rect y="16" width="20" height="2" fill="#9b1463"/></g><rect x="334.09" y="182.23" width="30.37" height="30.37" fill="#b89159"/><g transform="translate(334.09,182.23) scale(1.5185) rotate(0)"><rect width="2" height="20" fill="#5d0560"/><rect x="4" width="2" height="20" fill="#5d0560"/><rect x="8" width="2" height="20" fill="#5d0560"/><rect x="12" width="2" height="20" fill="#5d0560"/><rect x="16" width="2" height="20" fill="#5d0560"/></g><rect x="303.71" y="212.6" width="30.37" height="30.37" fill="#81375e"/><g transform="translate(303.71,212.6) scale(1.5185) rotate(0)"><rect width="20" height="2" fill="#931162"/><rect y="4" width="20" height="2" fill="#931162"/><rect y="8" width="20" height="2" fill="#931162"/><rect y="12" width="20" height="2" fill="#931162"/><rect y="16" width="20" height="2" fill="#931162"/></g><rect x="334.09" y="212.6" width="30.37" height="30.37" fill="#96595c"/><g transform="translate(334.09,212.6) scale(1.5185) rotate(0)"><rect width="2" height="20" fill="#536650"/><rect x="4" width="2" height="20" fill="#536650"/><rect x="8" width="2" height="20" fill="#536650"/><rect x="12" width="2" height="20" fill="#536650"/><rect x="16" width="2" height="20" fill="#536650"/></g><rect x="364.46" y="182.23" width="60.74" height="60.74" fill="#592b5a"/><g transform="translate(364.46,182.23) scale(3.037) rotate(0)"><rect width="2" height="20" fill="#a71863"/><rect x="4" width="2" height="20" fill="#a71863"/><rect x="8" width="2" height="20" fill="#a71863"/><rect x="12" width="2" height="20" fill="#a71863"/><rect x="16" width="2" height="20" fill="#a71863"/></g><rect x="425.2" y="182.23" width="60.74" height="60.74" fill="#a61863"/><g transform="translate(425.2,182.23) scale(3.037) rotate(0)"><rect width="20" height="2" fill="#78295f"/><rect y="4" width="20" height="2" fill="#78295f"/><rect y="8" width="20" height="2" fill="#78295f"/><rect y="12" width="20" height="2" fill="#78295f"/><rect y="16" width="20" height="2" fill="#78295f"/></g><rect x="485.94" y="182.23" width="60.74" height="60.74" fill="#4f8a4a"/><rect x="485.94" y="182.23" width="60.74" height="60.74" fill="#4e9348"/><rect x="546.69" y="182.23" width="60.74" height="60.74" fill="#3283bb"/><g transform="translate(546.69,182.23) scale(3.037) rotate(0)"><path d="M10 5L5 0L0 5L5 10L0 15L5 20L10 15L15 20L20 15L15 10L20 5L15 0L10 5Z" fill="#782a5f"/></g><rect x="607.43" y="182.23" width="60.74" height="60.74" fill="#3676b3"/><g transform="translate(607.43,182.23) scale(3.037) rotate(0)"><rect width="20" height="10" fill="#5c115e"/></g><rect x="668.1714285714286" y="182.22857142857146" width="60.74285714285715" height="60.74285714285715" fill="#5e0061"/><rect x="668.17" y="182.23" width="30.37" height="30.37" fill="#5d0363"/><g transform="translate(668.17,182.23) scale(1.5185) rotate(0)"><rect width="2" height="20" fill="#6a0461"/><rect x="4" width="2" height="20" fill="#6a0461"/><rect x="8" width="2" height="20" fill="#6a0461"/><rect x="12" width="2" height="20" fill="#6a0461"/><rect x="16" width="2" height="20" fill="#6a0461"/></g><rect x="698.54" y="182.23" width="30.37" height="30.37" fill="#9f695b"/><g transform="translate(698.54,182.23) scale(1.5185) rotate(0)"><rect width="2" height="20" fill="#ba1e63"/><rect x="4" width="2" height="20" fill="#ba1e63"/><rect x="8" width="2" height="20" fill="#ba1e63"/><rect x="12" width="2" height="20" fill="#ba1e63"/><rect x="16" width="2" height="20" fill="#ba1e63"/></g><rect x="668.17" y="212.6" width="30.37" height="30.37" fill="#650b60"/><g transform="translate(668.17,212.6) scale(1.5185) rotate(0)"><rect width="20" height="2" fill="#571570"/><rect y="4" width="20" height="2" fill="#571570"/><rect y="8" width="20" height="2" fill="#571570"/><rect y="12" width="20" height="2" fill="#571570"/><rect y="16" width="20" height="2" fill="#571570"/></g><rect x="698.54" y="212.6" width="30.37" height="30.37" fill="#921162"/><rect x="698.54" y="212.6" width="30.37" height="30.37" fill="#52704e"/><rect x="728.91" y="182.23" width="60.74" height="60.74" fill="#46e13b"/><g transform="translate(728.91,182.23) scale(3.037) rotate(0)"><path d="M10 5L5 0L0 5L5 10L0 15L5 20L10 15L15 20L20 15L15 10L20 5L15 0L10 5Z" fill="#4f9049"/></g><rect x="0" y="242.97" width="60.74" height="60.74" fill="#5b1f5c"/><g transform="translate(0,242.97) scale(3.037) rotate(0)"><path d="M10 5L5 0L0 5L5 10L0 15L5 20L10 15L15 20L20 15L15 10L20 5L15 0L10 5Z" fill="#42539a"/></g><rect x="60.74" y="242.97" width="60.74" height="60.74" fill="#50864b"/><g transform="translate(60.74,242.97) scale(3.037) rotate(0)"><rect width="20" height="10" fill="#9e1563"/></g><rect x="121.4857142857143" y="242.9714285714286" width="60.74285714285715" height="60.74285714285715" fill="#5e0061"/><rect x="121.49" y="242.97" width="30.37" height="30.37" fill="#3282bb"/><g transform="translate(121.49,242.97) scale(1.5185) rotate(0)"><rect width="20" height="2" fill="#820c62"/><rect y="4" width="20" height="2" fill="#820c62"/><rect y="8" width="20" height="2" fill="#820c62"/><rect y="12" width="20" height="2" fill="#820c62"/><rect y="16" width="20" height="2" fill="#820c62"/></g><rect x="151.86" y="242.97" width="30.37" height="30.37" fill="#5b185d"/><g transform="translate(151.86,242.97) scale(1.5185) rotate(0)"><rect width="2" height="20" fill="#a41763"/><rect x="4" width="2" height="20" fill="#a41763"/><rect x="8" width="2" height="20" fill="#a41763"/><rect x="12" width="2" height="20" fill="#a41763"/><rect x="16" width="2" height="20" fill="#a41763"/></g><rect x="121.49" y="273.34" width="30.37" height="30.37" fill="#ac1a63"/><g transform="translate(121.49,273.34) scale(1.5185) rotate(0)"><rect width="20" height="2" fill="#7c305e"/><rect y="4" width="20" height="2" fill="#7c305e"/><rect y="8" width="20" height="2" fill="#7c305e"/><rect y="12" width="20" height="2" fill="#7c305e"/><rect y="16" width="20" height="2" fill="#7c305e"/></g><rect x="151.86" y="273.34" width="30.37" height="30.37" fill="#4abd41"/><g transform="translate(151.86,273.34) scale(1.5185) rotate(0)"><rect width="2" height="20" fill="#583a57"/><rect x="4" width="2" height="20" fill="#583a57"/><rect x="8" width="2" height="20" fill="#583a57"/><rect x="12" width="2" height="20" fill="#583a57"/><rect x="16" width="2" height="20" fill="#583a57"/></g><rect x="182.22857142857146" y="242.9714285714286" width="60.74285714285715" height="60.74285714285715" fill="#5e0061"/><rect x="182.23" y="242.97" width="30.37" height="30.37" fill="#650c60"/><g transform="translate(182.23,242.97) scale(1.5185) rotate(0)"><rect width="2" height="20" fill="#4d3384"/><rect x="4" width="2" height="20" fill="#4d3384"/><rect x="8" width="2" height="20" fill="#4d3384"/><rect x="12" width="2" height="20" fill="#4d3384"/><rect x="16" width="2" height="20" fill="#4d3384"/></g><rect x="212.6" y="242.97" width="30.37" height="30.37" fill="#5b195d"/><g transform="translate(212.6,242.97) scale(1.5185) rotate(0)"><path d="M10 5L5 0L0 5L5 10L0 15L5 20L10 15L15 20L20 15L15 10L20 5L15 0L10 5Z" fill="#464792"/></g><rect x="182.23" y="273.34" width="30.37" height="30.37" fill="#e6d955"/><g transform="translate(182.23,273.34) scale(1.5185) rotate(0)"><rect width="20" height="2" fill="#cdb257"/><rect y="4" width="20" height="2" fill="#cdb257"/><rect y="8" width="20" height="2" fill="#cdb257"/><rect y="12" width="20" height="2" fill="#cdb257"/><rect y="16" width="20" height="2" fill="#cdb257"/></g><rect x="212.6" y="273.34" width="30.37" height="30.37" fill="#4bb143"/><g transform="translate(212.6,273.34) scale(1.5185) rotate(0)"><rect width="2" height="20" fill="#573f56"/><rect x="4" width="2" height="20" fill="#573f56"/><rect x="8" width="2" height="20" fill="#573f56"/><rect x="12" width="2" height="20" fill="#573f56"/><rect x="16" width="2" height="20" fill="#573f56"/></g><rect x="242.97" y="242.97" width="60.74" height="60.74" fill="#700661"/><g transform="translate(242.97,242.97) scale(3.037) rotate(0)"><rect width="20" height="10" fill="#b41c63"/></g><rect x="303.71" y="242.97" width="60.74" height="60.74" fill="#b58b59"/><rect x="303.71" y="242.97" width="60.74" height="60.74" fill="#4e9847"/><rect x="364.46" y="242.97" width="60.74" height="60.74" fill="#53694f"/><g transform="translate(364.46,242.97) scale(3.037) rotate(0)"><rect width="20" height="10" fill="#7f355e"/></g><rect x="425.2" y="242.97" width="60.74" height="60.74" fill="#51794d"/><g transform="translate(425.2,242.97) scale(3.037) rotate(0)"><rect width="20" height="10" fill="#551c74"/></g><rect x="485.94" y="242.97" width="60.74" height="60.74" fill="#81385e"/><g transform="translate(485.94,242.97) scale(3.037) rotate(0)"><rect width="2" height="20" fill="#4f2c7f"/><rect x="4" width="2" height="20" fill="#4f2c7f"/><rect x="8" width="2" height="20" fill="#4f2c7f"/><rect x="12" width="2" height="20" fill="#4f2c7f"/><rect x="16" width="2" height="20" fill="#4f2c7f"/></g><rect x="546.69" y="242.97" width="60.74" height="60.74" fill="#e92e64"/><rect x="546.69" y="242.97" width="60.74" height="60.74" fill="#77285f"/><rect x="607.43" y="242.97" width="60.74" height="60.74" fill="#2c95c8"/><g transform="translate(607.43,242.97) scale(3.037) rotate(0)"><rect width="20" height="10" fill="#7b2e5e"/></g><rect x="668.17" y="242.97" width="60.74" height="60.74" fill="#d7c256"/><g transform="translate(668.17,242.97) scale(3.037) rotate(0)"><rect width="20" height="10" fill="#ef3065"/></g><rect x="728.91" y="242.97" width="60.74" height="60.74" fill="#ddcc55"/><g transform="translate(728.91,242.97) scale(3.037) rotate(0)"><rect width="2" height="20" fill="#46e03c"/><rect x="4" width="2" height="20" fill="#46e03c"/><rect x="8" width="2" height="20" fill="#46e03c"/><rect x="12" width="2" height="20" fill="#46e03c"/><rect x="16" width="2" height="20" fill="#46e03c"/></g><rect x="0" y="303.71" width="60.74" height="60.74" fill="#f83365"/><g transform="translate(0,303.71) scale(3.037) rotate(0)"><rect width="20" height="10" fill="#8e4d5d"/></g><rect x="60.74" y="303.71" width="60.74" height="60.74" fill="#650261"/><g transform="translate(60.74,303.71) scale(3.037) rotate(0)"><rect width="2" height="20" fill="#444e97"/><rect x="4" width="2" height="20" fill="#444e97"/><rect x="8" width="2" height="20" fill="#444e97"/><rect x="12" width="2" height="20" fill="#444e97"/><rect x="16" width="2" height="20" fill="#444e97"/></g><rect x="121.4857142857143" y="303.7142857142857" width="60.74285714285715" height="60.74285714285715" fill="#5e0061"/><rect x="121.49" y="303.71" width="30.37" height="30.37" fill="#d9c556"/><rect x="121.49" y="303.71" width="30.37" height="30.37" fill="#5d0560"/><rect x="151.86" y="303.71" width="30.37" height="30.37" fill="#7b2f5e"/><rect x="151.86" y="303.71" width="30.37" height="30.37" fill="#e72d64"/><rect x="121.49" y="334.09" width="30.37" height="30.37" fill="#4c3585"/><g transform="translate(121.49,334.09) scale(1.5185) rotate(0)"><rect width="20" height="10" fill="#c22163"/></g><rect x="151.86" y="334.09" width="30.37" height="30.37" fill="#593458"/><g transform="translate(151.86,334.09) scale(1.5185) rotate(0)"><rect width="20" height="2" fill="#574555"/><rect y="4" width="20" height="2" fill="#574555"/><rect y="8" width="20" height="2" fill="#574555"/><rect y="12" width="20" height="2" fill="#574555"/><rect y="16" width="20" height="2" fill="#574555"/></g><rect x="182.23" y="303.71" width="60.74" height="60.74" fill="#a5715b"/><g transform="translate(182.23,303.71) scale(3.037) rotate(0)"><rect width="20" height="10" fill="#4bb443"/></g><rect x="242.97" y="303.71" width="60.74" height="60.74" fill="#4c3586"/><g transform="translate(242.97,303.71) scale(3.037) rotate(0)"><path d="M10 5L5 0L0 5L5 10L0 15L5 20L10 15L15 20L20 15L15 10L20 5L15 0L10 5Z" fill="#47de3c"/></g><rect x="303.71" y="303.71" width="60.74" height="60.74" fill="#50824b"/><rect x="303.71" y="303.71" width="60.74" height="60.74" fill="#2b96c9"/><rect x="364.46" y="303.71" width="60.74" height="60.74" fill="#88435d"/><g transform="translate(364.46,303.71) scale(3.037) rotate(0)"><rect width="20" height="10" fill="#ebe254"/></g><rect x="425.20000000000005" y="303.7142857142857" width="60.74285714285715" height="60.74285714285715" fill="#5e0061"/><rect x="425.2" y="303.71" width="30.37" height="30.37" fill="#7c305e"/><rect x="425.2" y="303.71" width="30.37" height="30.37" fill="#82395e"/><rect x="455.57" y="303.71" width="30.37" height="30.37" fill="#a01663"/><g transform="translate(455.57,303.71) scale(1.5185) rotate(0)"><rect width="20" height="2" fill="#991362"/><rect y="4" width="20" height="2" fill="#991362"/><rect y="8" width="20" height="2" fill="#991362"/><rect y="12" width="20" height="2" fill="#991362"/><rect y="16" width="20" height="2" fill="#991362"/></g><rect x="425.2" y="334.09" width="30.37" height="30.37" fill="#517e4c"/><g transform="translate(425.2,334.09) scale(1.5185) rotate(0)"><rect width="2" height="20" fill="#8e4d5d"/><rect x="4" width="2" height="20" fill="#8e4d5d"/><rect x="8" width="2" height="20" fill="#8e4d5d"/><rect x="12" width="2" height="20" fill="#8e4d5d"/><rect x="16" width="2" height="20" fill="#8e4d5d"/></g><rect x="455.57" y="334.09" width="30.37" height="30.37" fill="#28a1d0"/><rect x="455.57" y="334.09" width="30.37" height="30.37" fill="#a36e5b"/><rect x="485.9428571428572" y="303.7142857142857" width="60.74285714285715" height="60.74285714285715" fill="#5e0061"/><rect x="485.94" y="303.71" width="30.37" height="30.37" fill="#50804c"/><rect x="485.94" y="303.71" width="30.37" height="30.37" fill="#f53265"/><rect x="516.31" y="303.71" width="30.37" height="30.37" fill="#26a5d3"/><g transform="translate(516.31,303.71) scale(1.5185) rotate(0)"><rect width="20" height="2" fill="#3184bc"/><rect y="4" width="20" height="2" fill="#3184bc"/><rect y="8" width="20" height="2" fill="#3184bc"/><rect y="12" width="20" height="2" fill="#3184bc"/><rect y="16" width="20" height="2" fill="#3184bc"/></g><rect x="485.94" y="334.09" width="30.37" height="30.37" fill="#840d62"/><g transform="translate(485.94,334.09) scale(1.5185) rotate(0)"><path d="M10 5L5 0L0 5L5 10L0 15L5 20L10 15L15 20L20 15L15 10L20 5L15 0L10 5Z" fill="#620161"/></g><rect x="516.31" y="334.09" width="30.37" height="30.37" fill="#4f8d49"/><g transform="translate(516.31,334.09) scale(1.5185) rotate(0)"><path d="M10 5L5 0L0 5L5 10L0 15L5 20L10 15L15 20L20 15L15 10L20 5L15 0L10 5Z" fill="#532178"/></g><rect x="546.6857142857143" y="303.7142857142857" width="60.74285714285715" height="60.74285714285715" fill="#5e0061"/><rect x="546.69" y="303.71" width="30.37" height="30.37" fill="#cbae57"/><g transform="translate(546.69,303.71) scale(1.5185) rotate(0)"><rect width="20" height="10" fill="#5b0867"/></g><rect x="577.06" y="303.71" width="30.37" height="30.37" fill="#8d4b5d"/><g transform="translate(577.06,303.71) scale(1.5185) rotate(0)"><rect width="2" height="20" fill="#b01b63"/><rect x="4" width="2" height="20" fill="#b01b63"/><rect x="8" width="2" height="20" fill="#b01b63"/><rect x="12" width="2" height="20" fill="#b01b63"/><rect x="16" width="2" height="20" fill="#b01b63"/></g><rect x="546.69" y="334.09" width="30.37" height="30.37" fill="#7b2f5e"/><g transform="translate(546.69,334.09) scale(1.5185) rotate(0)"><rect width="20" height="2" fill="#26a7d4"/><rect y="4" width="20" height="2" fill="#26a7d4"/><rect y="8" width="20" height="2" fill="#26a7d4"/><rect y="12" width="20" height="2" fill="#26a7d4"/><rect y="16" width="20" height="2" fill="#26a7d4"/></g><rect x="577.06" y="334.09" width="30.37" height="30.37" fill="#e4d655"/><g transform="translate(577.06,334.09) scale(1.5185) rotate(0)"><rect width="2" height="20" fill="#8e1062"/><rect x="4" width="2" height="20" fill="#8e1062"/><rect x="8" width="2" height="20" fill="#8e1062"/><rect x="12" width="2" height="20" fill="#8e1062"/><rect x="16" width="2" height="20" fill="#8e1062"/></g><rect x="607.4285714285714" y="303.7142857142857" width="60.74285714285715" height="60.74285714285715" fill="#5e0061"/><rect x="607.43" y="303.71" width="30.37" height="30.37" fill="#f83365"/><g transform="translate(607.43,303.71) scale(1.5185) rotate(0)"><rect width="2" height="20" fill="#bf9b58"/><rect x="4" width="2" height="20" fill="#bf9b58"/><rect x="8" width="2" height="20" fill="#bf9b58"/><rect x="12" width="2" height="20" fill="#bf9b58"/><rect x="16" width="2" height="20" fill="#bf9b58"/></g><rect x="637.8" y="303.71" width="30.37" height="30.37" fill="#5d0c5f"/><g transform="translate(637.8,303.71) scale(1.5185) rotate(0)"><path d="M10 5L5 0L0 5L5 10L0 15L5 20L10 15L15 20L20 15L15 10L20 5L15 0L10 5Z" fill="#337fb9"/></g><rect x="607.43" y="334.09" width="30.37" height="30.37" fill="#ee2f65"/><g transform="translate(607.43,334.09) scale(1.5185) rotate(0)"><rect width="20" height="2" fill="#4ac241"/><rect y="4" width="20" height="2" fill="#4ac241"/><rect y="8" width="20" height="2" fill="#4ac241"/><rect y="12" width="20" height="2" fill="#4ac241"/><rect y="16" width="20" height="2" fill="#4ac241"/></g><rect x="637.8" y="334.09" width="30.37" height="30.37" fill="#bf9b58"/><g transform="translate(637.8,334.09) scale(1.5185) rotate(0)"><rect width="2" height="20" fill="#40599e"/><rect x="4" width="2" height="20" fill="#40599e"/><rect x="8" width="2" height="20" fill="#40599e"/><rect x="12" width="2" height="20" fill="#40599e"/><rect x="16" width="2" height="20" fill="#40599e"/></g><rect x="668.17" y="303.71" width="60.74" height="60.74" fill="#555753"/><g transform="translate(668.17,303.71) scale(3.037) rotate(0)"><rect width="2" height="20" fill="#545d51"/><rect x="4" width="2" height="20" fill="#545d51"/><rect x="8" width="2" height="20" fill="#545d51"/><rect x="12" width="2" height="20" fill="#545d51"/><rect x="16" width="2" height="20" fill="#545d51"/></g><rect x="728.91" y="303.71" width="60.74" height="60.74" fill="#48418e"/><g transform="translate(728.91,303.71) scale(3.037) rotate(0)"><rect width="20" height="10" fill="#ae815a"/></g><rect x="0" y="364.46" width="60.74" height="60.74" fill="#4a3b8a"/><g transform="translate(0,364.46) scale(3.037) rotate(0)"><path d="M10 5L5 0L0 5L5 10L0 15L5 20L10 15L15 20L20 15L15 10L20 5L15 0L10 5Z" fill="#5d0d5f"/></g><rect x="60.74" y="364.46" width="60.74" height="60.74" fill="#a61863"/><g transform="translate(60.74,364.46) scale(3.037) rotate(0)"><rect width="20" height="2" fill="#ab1963"/><rect y="4" width="20" height="2" fill="#ab1963"/><rect y="8" width="20" height="2" fill="#ab1963"/><rect y="12" width="20" height="2" fill="#ab1963"/><rect y="16" width="20" height="2" fill="#ab1963"/></g><rect x="121.49" y="364.46" width="60.74" height="60.74" fill="#6b1560"/><g transform="translate(121.49,364.46) scale(3.037) rotate(0)"><path d="M10 5L5 0L0 5L5 10L0 15L5 20L10 15L15 20L20 15L15 10L20 5L15 0L10 5Z" fill="#610161"/></g><rect x="182.23" y="364.46" width="60.74" height="60.74" fill="#b41c63"/><g transform="translate(182.23,364.46) scale(3.037) rotate(0)"><rect width="20" height="2" fill="#6c1660"/><rect y="4" width="20" height="2" fill="#6c1660"/><rect y="8" width="20" height="2" fill="#6c1660"/><rect y="12" width="20" height="2" fill="#6c1660"/><rect y="16" width="20" height="2" fill="#6c1660"/></g><rect x="242.97" y="364.46" width="60.74" height="60.74" fill="#8b495d"/><rect x="242.97" y="364.46" width="60.74" height="60.74" fill="#b38759"/><rect x="303.71" y="364.46" width="60.74" height="60.74" fill="#630861"/><g transform="translate(303.71,364.46) scale(3.037) rotate(0)"><path d="M10 5L5 0L0 5L5 10L0 15L5 20L10 15L15 20L20 15L15 10L20 5L15 0L10 5Z" fill="#e0d055"/></g><rect x="364.46" y="364.46" width="60.74" height="60.74" fill="#546051"/><g transform="translate(364.46,364.46) scale(3.037) rotate(0)"><rect width="20" height="2" fill="#921162"/><rect y="4" width="20" height="2" fill="#921162"/><rect y="8" width="20" height="2" fill="#921162"/><rect y="12" width="20" height="2" fill="#921162"/><rect y="16" width="20" height="2" fill="#921162"/></g><rect x="425.20000000000005" y="364.4571428571429" width="60.74285714285715" height="60.74285714285715" fill="#5e0061"/><rect x="425.2" y="364.46" width="30.37" height="30.37" fill="#b81e63"/><g transform="translate(425.2,364.46) scale(1.5185) rotate(0)"><rect width="2" height="20" fill="#5c135e"/><rect x="4" width="2" height="20" fill="#5c135e"/><rect x="8" width="2" height="20" fill="#5c135e"/><rect x="12" width="2" height="20" fill="#5c135e"/><rect x="16" width="2" height="20" fill="#5c135e"/></g><rect x="455.57" y="364.46" width="30.37" height="30.37" fill="#444d96"/><rect x="455.57" y="364.46" width="30.37" height="30.37" fill="#ef3065"/><rect x="425.2" y="394.83" width="30.37" height="30.37" fill="#cb2464"/><g transform="translate(425.2,394.83) scale(1.5185) rotate(0)"><path d="M10 5L5 0L0 5L5 10L0 15L5 20L10 15L15 20L20 15L15 10L20 5L15 0L10 5Z" fill="#c9ac57"/></g><rect x="455.57" y="394.83" width="30.37" height="30.37" fill="#502a7e"/><g transform="translate(455.57,394.83) scale(1.5185) rotate(0)"><rect width="20" height="2" fill="#850d62"/><rect y="4" width="20" height="2" fill="#850d62"/><rect y="8" width="20" height="2" fill="#850d62"/><rect y="12" width="20" height="2" fill="#850d62"/><rect y="16" width="20" height="2" fill="#850d62"/></g><rect x="485.9428571428572" y="364.4571428571429" width="60.74285714285715" height="60.74285714285715" fill="#5e0061"/><rect x="485.94" y="364.46" width="30.37" height="30.37" fill="#4bb343"/><rect x="485.94" y="364.46" width="30.37" height="30.37" fill="#aa1963"/><rect x="516.31" y="364.46" width="30.37" height="30.37" fill="#ece454"/><g transform="translate(516.31,364.46) scale(1.5185) rotate(0)"><path d="M10 5L5 0L0 5L5 10L0 15L5 20L10 15L15 20L20 15L15 10L20 5L15 0L10 5Z" fill="#51267b"/></g><rect x="485.94" y="394.83" width="30.37" height="30.37" fill="#be9a58"/><g transform="translate(485.94,394.83) scale(1.5185) rotate(0)"><rect width="2" height="20" fill="#573e57"/><rect x="4" width="2" height="20" fill="#573e57"/><rect x="8" width="2" height="20" fill="#573e57"/><rect x="12" width="2" height="20" fill="#573e57"/><rect x="16" width="2" height="20" fill="#573e57"/></g><rect x="516.31" y="394.83" width="30.37" height="30.37" fill="#526e4f"/><g transform="translate(516.31,394.83) scale(1.5185) rotate(0)"><rect width="20" height="2" fill="#650b60"/><rect y="4" width="20" height="2" fill="#650b60"/><rect y="8" width="20" height="2" fill="#650b60"/><rect y="12" width="20" height="2" fill="#650b60"/><rect y="16" width="20" height="2" fill="#650b60"/></g><rect x="546.69" y="364.46" width="60.74" height="60.74" fill="#da2964"/><g transform="translate(546.69,364.46) scale(3.037) rotate(0)"><rect width="2" height="20" fill="#26a7d5"/><rect x="4" width="2" height="20" fill="#26a7d5"/><rect x="8" width="2" height="20" fill="#26a7d5"/><rect x="12" width="2" height="20" fill="#26a7d5"/><rect x="16" width="2" height="20" fill="#26a7d5"/></g><rect x="607.4285714285714" y="364.4571428571429" width="60.74285714285715" height="60.74285714285715" fill="#5e0061"/><rect x="607.43" y="364.46" width="30.37" height="30.37" fill="#d3bc56"/><g transform="translate(607.43,364.46) scale(1.5185) rotate(0)"><rect width="20" height="10" fill="#c4a358"/></g><rect x="637.8" y="364.46" width="30.37" height="30.37" fill="#7e335e"/><g transform="translate(637.8,364.46) scale(1.5185) rotate(0)"><rect width="20" height="2" fill="#3f5ca1"/><rect y="4" width="20" height="2" fill="#3f5ca1"/><rect y="8" width="20" height="2" fill="#3f5ca1"/><rect y="12" width="20" height="2" fill="#3f5ca1"/><rect y="16" width="20" height="2" fill="#3f5ca1"/></g><rect x="607.43" y="394.83" width="30.37" height="30.37" fill="#573f56"/><g transform="translate(607.43,394.83) scale(1.5185) rotate(0)"><rect width="20" height="2" fill="#541e76"/><rect y="4" width="20" height="2" fill="#541e76"/><rect y="8" width="20" height="2" fill="#541e76"/><rect y="12" width="20" height="2" fill="#541e76"/><rect y="16" width="20" height="2" fill="#541e76"/></g><rect x="637.8" y="394.83" width="30.37" height="30.37" fill="#c5a458"/><rect x="637.8" y="394.83" width="30.37" height="30.37" fill="#a6745a"/><rect x="668.17" y="364.46" width="60.74" height="60.74" fill="#464691"/><g transform="translate(668.17,364.46) scale(3.037) rotate(0)"><path d="M10 5L5 0L0 5L5 10L0 15L5 20L10 15L15 20L20 15L15 10L20 5L15 0L10 5Z" fill="#965a5c"/></g><rect x="728.91" y="364.46" width="60.74" height="60.74" fill="#c22163"/><rect x="728.91" y="364.46" width="60.74" height="60.74" fill="#454b95"/></g></svg>