<?xml version="1.0" standalone="no"?><svg xmlns:xlink="http://www.w3.org/1999/xlink" xmlns="http://www.w3.org/2000/svg" viewBox="0 0 1000 583.3351625436266" preserveAspectRatio="xMaxYMax slice"><g transform="scale(1.3719077199991219)"><rect x="0" y="0" width="728.9142857142858" height="425.20000000000005" fill="#b07017"/><rect x="0" y="0" width="60.74" height="60.74" fill="#a5408b"/><g transform="translate(0,0) scale(3.037) rotate(0)"><path d="M10 1L12.2451 7.90983H19.5106L13.6327 12.1803L15.8779 19.0902L10 14.8197L4.12215 19.0902L6.36729 12.1803L0.489441 7.90983H7.75487L10 1Z" fill="#8b5b65"/></g><rect x="60.74" y="0" width="60.74" height="60.74" fill="#d08427"/><circle cx="91.11" cy="30.37" r="30.37" fill="#9b6443"/><rect x="121.49" y="0" width="60.74" height="60.74" fill="#d7892b"/><g transform="translate(121.49,0) scale(3.037) rotate(0)"><path d="M10 5L5 0L0 5L5 10L0 15L5 20L10 15L15 20L20 15L15 10L20 5L15 0L10 5Z" fill="#b9761c"/></g><rect x="182.23" y="0" width="60.74" height="60.74" fill="#fe3664"/><g transform="translate(182.23,0) scale(3.037) rotate(0)"><path d="M10 1L12.2451 7.90983H19.5106L13.6327 12.1803L15.8779 19.0902L10 14.8197L4.12215 19.0902L6.36729 12.1803L0.489441 7.90983H7.75487L10 1Z" fill="#86596f"/></g><rect x="242.97" y="0" width="60.74" height="60.74" fill="#b37219"/><g transform="translate(242.97,0) scale(3.037) rotate(0)"><path d="M19.9981 0.00193429L3.72652 -7.68637e-07L8.4784 4.75382L0 13.2345L6.76585 20L15.2462 11.5208L20 16.2746L19.9981 0.00193429Z" fill="#d5882a"/></g><rect x="303.71" y="0" width="60.74" height="60.74" fill="#d95140"/><circle cx="334.08" cy="30.37" r="30.37" fill="#e79332"/><rect x="364.4571428571429" y="0" width="60.74285714285715" height="60.74285714285715" fill="#b07017"/><rect x="364.46" y="0" width="30.37" height="30.37" fill="#eb4451"/><g transform="translate(364.46,0) scale(1.5185) rotate(0)"><path d="M19.9981 0.00193429L3.72652 -7.68637e-07L8.4784 4.75382L0 13.2345L6.76585 20L15.2462 11.5208L20 16.2746L19.9981 0.00193429Z" fill="#96614e"/></g><rect x="394.83" y="0" width="30.37" height="30.37" fill="#ab5b4b"/><g transform="translate(394.83,0) scale(1.5185) rotate(0)"><rect width="2" height="20" fill="#9d1ede"/><rect x="4" width="2" height="20" fill="#9d1ede"/><rect x="8" width="2" height="20" fill="#9d1ede"/><rect x="12" width="2" height="20" fill="#9d1ede"/><rect x="16" width="2" height="20" fill="#9d1ede"/></g><rect x="364.46" y="30.37" width="30.37" height="30.37" fill="#a232ad"/><g transform="translate(364.46,30.37) scale(1.5185) rotate(0)"><rect width="20" height="2" fill="#d4553a"/><rect y="4" width="20" height="2" fill="#d4553a"/><rect y="8" width="20" height="2" fill="#d4553a"/><rect y="12" width="20" height="2" fill="#d4553a"/><rect y="16" width="20" height="2" fill="#d4553a"/></g><rect x="394.83" y="30.37" width="30.37" height="30.37" fill="#d7533d"/><g transform="translate(394.83,30.37) scale(1.5185) rotate(0)"><path d="M10 5L5 0L0 5L5 10L0 15L5 20L10 15L15 20L20 15L15 10L20 5L15 0L10 5Z" fill="#a66a2c"/></g><rect x="425.20000000000005" y="0" width="60.74285714285715" height="60.74285714285715" fill="#b07017"/><rect x="425.2" y="0" width="30.37" height="30.37" fill="#865970"/><g transform="translate(425.2,0) scale(1.5185) rotate(0)"><rect width="20" height="2" fill="#ad6533"/><rect y="4" width="20" height="2" fill="#ad6533"/><rect y="8" width="20" height="2" fill="#ad6533"/><rect y="12" width="20" height="2" fill="#ad6533"/><rect y="16" width="20" height="2" fill="#ad6533"/></g><rect x="455.57" y="0" width="30.37" height="30.37" fill="#e7474d"/><g transform="translate(455.57,0) scale(1.5185) rotate(0)"><rect width="2" height="20" fill="#9e21d7"/><rect x="4" width="2" height="20" fill="#9e21d7"/><rect x="8" width="2" height="20" fill="#9e21d7"/><rect x="12" width="2" height="20" fill="#9e21d7"/><rect x="16" width="2" height="20" fill="#9e21d7"/></g><rect x="425.2" y="30.37" width="30.37" height="30.37" fill="#bc781d"/><g transform="translate(425.2,30.37) scale(1.5185) rotate(0)"><path d="M10 5L5 0L0 5L5 10L0 15L5 20L10 15L15 20L20 15L15 10L20 5L15 0L10 5Z" fill="#ec4352"/></g><rect x="455.57" y="30.37" width="30.37" height="30.37" fill="#bc6723"/><g transform="translate(455.57,30.37) scale(1.5185) rotate(0)"><path d="M10 1L12.2451 7.90983H19.5106L13.6327 12.1803L15.8779 19.0902L10 14.8197L4.12215 19.0902L6.36729 12.1803L0.489441 7.90983H7.75487L10 1Z" fill="#a12eb7"/></g><rect x="485.94" y="0" width="60.74" height="60.74" fill="#db5041"/><g transform="translate(485.94,0) scale(3.037) rotate(0)"><path d="M19.9981 0.00193429L3.72652 -7.68637e-07L8.4784 4.75382L0 13.2345L6.76585 20L15.2462 11.5208L20 16.2746L19.9981 0.00193429Z" fill="#e99433"/></g><rect x="546.69" y="0" width="60.74" height="60.74" fill="#b7741a"/><circle cx="577.0600000000001" cy="30.37" r="30.37" fill="#a5418a"/><rect x="607.43" y="0" width="60.74" height="60.74" fill="#e69232"/><g transform="translate(607.43,0) scale(3.037) rotate(0)"><path d="M19.9981 0.00193429L3.72652 -7.68637e-07L8.4784 4.75382L0 13.2345L6.76585 20L15.2462 11.5208L20 16.2746L19.9981 0.00193429Z" fill="#c6602d"/></g><rect x="668.17" y="0" width="60.74" height="60.74" fill="#d08427"/><g transform="translate(668.17,0) scale(3.037) rotate(0)"><path d="M19.9981 0.00193429L3.72652 -7.68637e-07L8.4784 4.75382L0 13.2345L6.76585 20L15.2462 11.5208L20 16.2746L19.9981 0.00193429Z" fill="#cd8225"/></g><rect x="0" y="60.74" width="60.74" height="60.74" fill="#c67e22"/><g transform="translate(0,60.74) scale(3.037) rotate(0)"><path d="M19.9981 0.00193429L3.72652 -7.68637e-07L8.4784 4.75382L0 13.2345L6.76585 20L15.2462 11.5208L20 16.2746L19.9981 0.00193429Z" fill="#c5602c"/></g><rect x="60.74285714285715" y="60.74285714285715" width="60.74285714285715" height="60.74285714285715" fill="#b07017"/><rect x="60.74" y="60.74" width="30.37" height="30.37" fill="#a84e69"/><circle cx="75.925" cy="75.925" r="15.185" fill="#e8464e"/><rect x="91.11" y="60.74" width="30.37" height="30.37" fill="#d48729"/><g transform="translate(91.11,60.74) scale(1.5185) rotate(0)"><path d="M19.9981 0.00193429L3.72652 -7.68637e-07L8.4784 4.75382L0 13.2345L6.76585 20L15.2462 11.5208L20 16.2746L19.9981 0.00193429Z" fill="#aa555a"/></g><rect x="60.74" y="91.11" width="30.37" height="30.37" fill="#ac603e"/><g transform="translate(60.74,91.11) scale(1.5185) rotate(0)"><rect width="2" height="20" fill="#ab6d22"/><rect x="4" width="2" height="20" fill="#ab6d22"/><rect x="8" width="2" height="20" fill="#ab6d22"/><rect x="12" width="2" height="20" fill="#ab6d22"/><rect x="16" width="2" height="20" fill="#ab6d22"/></g><rect x="91.11" y="91.11" width="30.37" height="30.37" fill="#d35639"/><g transform="translate(91.11,91.11) scale(1.5185) rotate(0)"><rect width="2" height="20" fill="#a86c27"/><rect x="4" width="2" height="20" fill="#a86c27"/><rect x="8" width="2" height="20" fill="#a86c27"/><rect x="12" width="2" height="20" fill="#a86c27"/><rect x="16" width="2" height="20" fill="#a86c27"/></g><rect x="121.49" y="60.74" width="60.74" height="60.74" fill="#a130b3"/><g transform="translate(121.49,60.74) scale(3.037) rotate(0)"><rect width="20" height="2" fill="#bb6822"/><rect y="4" width="20" height="2" fill="#bb6822"/><rect y="8" width="20" height="2" fill="#bb6822"/><rect y="12" width="20" height="2" fill="#bb6822"/><rect y="16" width="20" height="2" fill="#bb6822"/></g><rect x="182.23" y="60.74" width="60.74" height="60.74" fill="#d18527"/><g transform="translate(182.23,60.74) scale(3.037) rotate(0)"><rect width="20" height="2" fill="#ab5b4a"/><rect y="4" width="20" height="2" fill="#ab5b4a"/><rect y="8" width="20" height="2" fill="#ab5b4a"/><rect y="12" width="20" height="2" fill="#ab5b4a"/><rect y="16" width="20" height="2" fill="#ab5b4a"/></g><rect x="242.9714285714286" y="60.74285714285715" width="60.74285714285715" height="60.74285714285715" fill="#b07017"/><rect x="242.97" y="60.74" width="30.37" height="30.37" fill="#865970"/><g transform="translate(242.97,60.74) scale(1.5185) rotate(0)"><rect width="2" height="20" fill="#c5612b"/><rect x="4" width="2" height="20" fill="#c5612b"/><rect x="8" width="2" height="20" fill="#c5612b"/><rect x="12" width="2" height="20" fill="#c5612b"/><rect x="16" width="2" height="20" fill="#c5612b"/></g><rect x="273.34" y="60.74" width="30.37" height="30.37" fill="#d48729"/><g transform="translate(273.34,60.74) scale(1.5185) rotate(0)"><path d="M10 5L5 0L0 5L5 10L0 15L5 20L10 15L15 20L20 15L15 10L20 5L15 0L10 5Z" fill="#d6882a"/></g><rect x="242.97" y="91.11" width="30.37" height="30.37" fill="#a334a8"/><g transform="translate(242.97,91.11) scale(1.5185) rotate(0)"><path d="M10 5L5 0L0 5L5 10L0 15L5 20L10 15L15 20L20 15L15 10L20 5L15 0L10 5Z" fill="#9d653f"/></g><rect x="273.34" y="91.11" width="30.37" height="30.37" fill="#f04056"/><circle cx="288.525" cy="106.295" r="15.185" fill="#e18f2f"/><rect x="303.7142857142857" y="60.74285714285715" width="60.74285714285715" height="60.74285714285715" fill="#b07017"/><rect x="303.71" y="60.74" width="30.37" height="30.37" fill="#bd791e"/><g transform="translate(303.71,60.74) scale(1.5185) rotate(0)"><path d="M19.9981 0.00193429L3.72652 -7.68637e-07L8.4784 4.75382L0 13.2345L6.76585 20L15.2462 11.5208L20 16.2746L19.9981 0.00193429Z" fill="#b36e1a"/></g><rect x="334.09" y="60.74" width="30.37" height="30.37" fill="#ac6e1f"/><circle cx="349.275" cy="75.925" r="15.185" fill="#ab5c48"/><rect x="303.71" y="91.11" width="30.37" height="30.37" fill="#d48729"/><g transform="translate(303.71,91.11) scale(1.5185) rotate(0)"><rect width="2" height="20" fill="#915f58"/><rect x="4" width="2" height="20" fill="#915f58"/><rect x="8" width="2" height="20" fill="#915f58"/><rect x="12" width="2" height="20" fill="#915f58"/><rect x="16" width="2" height="20" fill="#915f58"/></g><rect x="334.09" y="91.11" width="30.37" height="30.37" fill="#b06e1c"/><g transform="translate(334.09,91.11) scale(1.5185) rotate(0)"><rect width="20" height="2" fill="#aa5656"/><rect y="4" width="20" height="2" fill="#aa5656"/><rect y="8" width="20" height="2" fill="#aa5656"/><rect y="12" width="20" height="2" fill="#aa5656"/><rect y="16" width="20" height="2" fill="#aa5656"/></g><rect x="364.4571428571429" y="60.74285714285715" width="60.74285714285715" height="60.74285714285715" fill="#b07017"/><rect x="364.46" y="60.74" width="30.37" height="30.37" fill="#926055"/><g transform="translate(364.46,60.74) scale(1.5185) rotate(0)"><rect width="2" height="20" fill="#a74a73"/><rect x="4" width="2" height="20" fill="#a74a73"/><rect x="8" width="2" height="20" fill="#a74a73"/><rect x="12" width="2" height="20" fill="#a74a73"/><rect x="16" width="2" height="20" fill="#a74a73"/></g><rect x="394.83" y="60.74" width="30.37" height="30.37" fill="#cc8225"/><circle cx="410.015" cy="75.925" r="15.185" fill="#e79333"/><rect x="364.46" y="91.11" width="30.37" height="30.37" fill="#b07017"/><g transform="translate(364.46,91.11) scale(1.5185) rotate(0)"><rect width="2" height="20" fill="#936053"/><rect x="4" width="2" height="20" fill="#936053"/><rect x="8" width="2" height="20" fill="#936053"/><rect x="12" width="2" height="20" fill="#936053"/><rect x="16" width="2" height="20" fill="#936053"/></g><rect x="394.83" y="91.11" width="30.37" height="30.37" fill="#a337a2"/><g transform="translate(394.83,91.11) scale(1.5185) rotate(0)"><path d="M10 5L5 0L0 5L5 10L0 15L5 20L10 15L15 20L20 15L15 10L20 5L15 0L10 5Z" fill="#a54189"/></g><rect x="425.20000000000005" y="60.74285714285715" width="60.74285714285715" height="60.74285714285715" fill="#b07017"/><rect x="425.2" y="60.74" width="30.37" height="30.37" fill="#a86c27"/><g transform="translate(425.2,60.74) scale(1.5185) rotate(0)"><path d="M10 1L12.2451 7.90983H19.5106L13.6327 12.1803L15.8779 19.0902L10 14.8197L4.12215 19.0902L6.36729 12.1803L0.489441 7.90983H7.75487L10 1Z" fill="#9e663c"/></g><rect x="455.57" y="60.74" width="30.37" height="30.37" fill="#a46a2f"/><g transform="translate(455.57,60.74) scale(1.5185) rotate(0)"><path d="M10 1L12.2451 7.90983H19.5106L13.6327 12.1803L15.8779 19.0902L10 14.8197L4.12215 19.0902L6.36729 12.1803L0.489441 7.90983H7.75487L10 1Z" fill="#a26933"/></g><rect x="425.2" y="91.11" width="30.37" height="30.37" fill="#e8464f"/><g transform="translate(425.2,91.11) scale(1.5185) rotate(0)"><rect width="2" height="20" fill="#ce5a34"/><rect x="4" width="2" height="20" fill="#ce5a34"/><rect x="8" width="2" height="20" fill="#ce5a34"/><rect x="12" width="2" height="20" fill="#ce5a34"/><rect x="16" width="2" height="20" fill="#ce5a34"/></g><rect x="455.57" y="91.11" width="30.37" height="30.37" fill="#e29030"/><g transform="translate(455.57,91.11) scale(1.5185) rotate(0)"><rect width="20" height="2" fill="#9c6540"/><rect y="4" width="20" height="2" fill="#9c6540"/><rect y="8" width="20" height="2" fill="#9c6540"/><rect y="12" width="20" height="2" fill="#9c6540"/><rect y="16" width="20" height="2" fill="#9c6540"/></g><rect x="485.94" y="60.74" width="60.74" height="60.74" fill="#c27b20"/><circle cx="516.31" cy="91.11" r="30.37" fill="#a95162"/><rect x="546.69" y="60.74" width="60.74" height="60.74" fill="#b66b1d"/><g transform="translate(546.69,60.74) scale(3.037) rotate(0)"><rect width="20" height="2" fill="#a76b29"/><rect y="4" width="20" height="2" fill="#a76b29"/><rect y="8" width="20" height="2" fill="#a76b29"/><rect y="12" width="20" height="2" fill="#a76b29"/><rect y="16" width="20" height="2" fill="#a76b29"/></g><rect x="607.43" y="60.74" width="60.74" height="60.74" fill="#f23e59"/><g transform="translate(607.43,60.74) scale(3.037) rotate(0)"><path d="M10 5L5 0L0 5L5 10L0 15L5 20L10 15L15 20L20 15L15 10L20 5L15 0L10 5Z" fill="#ab594f"/></g><rect x="668.17" y="60.74" width="60.74" height="60.74" fill="#ab6d22"/><g transform="translate(668.17,60.74) scale(3.037) rotate(0)"><path d="M10 1L12.2451 7.90983H19.5106L13.6327 12.1803L15.8779 19.0902L10 14.8197L4.12215 19.0902L6.36729 12.1803L0.489441 7.90983H7.75487L10 1Z" fill="#b8751b"/></g><rect x="0" y="121.49" width="60.74" height="60.74" fill="#b7751b"/><g transform="translate(0,121.49) scale(3.037) rotate(0)"><rect width="2" height="20" fill="#a84f68"/><rect x="4" width="2" height="20" fill="#a84f68"/><rect x="8" width="2" height="20" fill="#a84f68"/><rect x="12" width="2" height="20" fill="#a84f68"/><rect x="16" width="2" height="20" fill="#a84f68"/></g><rect x="60.74285714285715" y="121.4857142857143" width="60.74285714285715" height="60.74285714285715" fill="#b07017"/><rect x="60.74" y="121.49" width="30.37" height="30.37" fill="#c57e22"/><g transform="translate(60.74,121.49) scale(1.5185) rotate(0)"><rect width="2" height="20" fill="#ca8124"/><rect x="4" width="2" height="20" fill="#ca8124"/><rect x="8" width="2" height="20" fill="#ca8124"/><rect x="12" width="2" height="20" fill="#ca8124"/><rect x="16" width="2" height="20" fill="#ca8124"/></g><rect x="91.11" y="121.49" width="30.37" height="30.37" fill="#ac6e1f"/><g transform="translate(91.11,121.49) scale(1.5185) rotate(0)"><path d="M19.9981 0.00193429L3.72652 -7.68637e-07L8.4784 4.75382L0 13.2345L6.76585 20L15.2462 11.5208L20 16.2746L19.9981 0.00193429Z" fill="#ae6929"/></g><rect x="60.74" y="151.86" width="30.37" height="30.37" fill="#bb6822"/><circle cx="75.925" cy="167.04500000000002" r="15.185" fill="#b5731a"/><rect x="91.11" y="151.86" width="30.37" height="30.37" fill="#da8b2c"/><g transform="translate(91.11,151.86) scale(1.5185) rotate(0)"><rect width="20" height="2" fill="#d98a2c"/><rect y="4" width="20" height="2" fill="#d98a2c"/><rect y="8" width="20" height="2" fill="#d98a2c"/><rect y="12" width="20" height="2" fill="#d98a2c"/><rect y="16" width="20" height="2" fill="#d98a2c"/></g><rect x="121.49" y="121.49" width="60.74" height="60.74" fill="#dd8c2d"/><circle cx="151.85999999999999" cy="151.85999999999999" r="30.37" fill="#ac603e"/><rect x="182.23" y="121.49" width="60.74" height="60.74" fill="#d95140"/><g transform="translate(182.23,121.49) scale(3.037) rotate(0)"><path d="M19.9981 0.00193429L3.72652 -7.68637e-07L8.4784 4.75382L0 13.2345L6.76585 20L15.2462 11.5208L20 16.2746L19.9981 0.00193429Z" fill="#b76b1e"/></g><rect x="242.97" y="121.49" width="60.74" height="60.74" fill="#ee4254"/><g transform="translate(242.97,121.49) scale(3.037) rotate(0)"><path d="M19.9981 0.00193429L3.72652 -7.68637e-07L8.4784 4.75382L0 13.2345L6.76585 20L15.2462 11.5208L20 16.2746L19.9981 0.00193429Z" fill="#a66a2c"/></g><rect x="303.71" y="121.49" width="60.74" height="60.74" fill="#c98024"/><g transform="translate(303.71,121.49) scale(3.037) rotate(0)"><path d="M10 1L12.2451 7.90983H19.5106L13.6327 12.1803L15.8779 19.0902L10 14.8197L4.12215 19.0902L6.36729 12.1803L0.489441 7.90983H7.75487L10 1Z" fill="#b5731a"/></g><rect x="364.46" y="121.49" width="60.74" height="60.74" fill="#9f663b"/><g transform="translate(364.46,121.49) scale(3.037) rotate(0)"><rect width="20" height="2" fill="#b07017"/><rect y="4" width="20" height="2" fill="#b07017"/><rect y="8" width="20" height="2" fill="#b07017"/><rect y="12" width="20" height="2" fill="#b07017"/><rect y="16" width="20" height="2" fill="#b07017"/></g><rect x="425.20000000000005" y="121.4857142857143" width="60.74285714285715" height="60.74285714285715" fill="#b07017"/><rect x="425.2" y="121.49" width="30.37" height="30.37" fill="#aa5852"/><circle cx="440.385" cy="136.67499999999998" r="15.185" fill="#ae662f"/><rect x="455.57" y="121.49" width="30.37" height="30.37" fill="#a86c27"/><circle cx="470.755" cy="136.67499999999998" r="15.185" fill="#cf8426"/><rect x="425.2" y="151.86" width="30.37" height="30.37" fill="#e18f2f"/><g transform="translate(425.2,151.86) scale(1.5185) rotate(0)"><path d="M10 1L12.2451 7.90983H19.5106L13.6327 12.1803L15.8779 19.0902L10 14.8197L4.12215 19.0902L6.36729 12.1803L0.489441 7.90983H7.75487L10 1Z" fill="#835776"/></g><rect x="455.57" y="151.86" width="30.37" height="30.37" fill="#c26329"/><g transform="translate(455.57,151.86) scale(1.5185) rotate(0)"><path d="M19.9981 0.00193429L3.72652 -7.68637e-07L8.4784 4.75382L0 13.2345L6.76585 20L15.2462 11.5208L20 16.2746L19.9981 0.00193429Z" fill="#cc8225"/></g><rect x="485.94" y="121.49" width="60.74" height="60.74" fill="#ab6d22"/><g transform="translate(485.94,121.49) scale(3.037) rotate(0)"><path d="M10 5L5 0L0 5L5 10L0 15L5 20L10 15L15 20L20 15L15 10L20 5L15 0L10 5Z" fill="#9e663d"/></g><rect x="546.69" y="121.49" width="60.74" height="60.74" fill="#de4e44"/><g transform="translate(546.69,121.49) scale(3.037) rotate(0)"><rect width="20" height="2" fill="#a7477c"/><rect y="4" width="20" height="2" fill="#a7477c"/><rect y="8" width="20" height="2" fill="#a7477c"/><rect y="12" width="20" height="2" fill="#a7477c"/><rect y="16" width="20" height="2" fill="#a7477c"/></g><rect x="607.43" y="121.49" width="60.74" height="60.74" fill="#cb8225"/><g transform="translate(607.43,121.49) scale(3.037) rotate(0)"><rect width="20" height="2" fill="#a53f8d"/><rect y="4" width="20" height="2" fill="#a53f8d"/><rect y="8" width="20" height="2" fill="#a53f8d"/><rect y="12" width="20" height="2" fill="#a53f8d"/><rect y="16" width="20" height="2" fill="#a53f8d"/></g><rect x="668.1714285714286" y="121.4857142857143" width="60.74285714285715" height="60.74285714285715" fill="#b07017"/><rect x="668.17" y="121.49" width="30.37" height="30.37" fill="#bf7a1f"/><g transform="translate(668.17,121.49) scale(1.5185) rotate(0)"><rect width="20" height="2" fill="#c3622a"/><rect y="4" width="20" height="2" fill="#c3622a"/><rect y="8" width="20" height="2" fill="#c3622a"/><rect y="12" width="20" height="2" fill="#c3622a"/><rect y="16" width="20" height="2" fill="#c3622a"/></g><rect x="698.54" y="121.49" width="30.37" height="30.37" fill="#8b5c64"/><circle cx="713.7249999999999" cy="136.67499999999998" r="15.185" fill="#895a69"/><rect x="668.17" y="151.86" width="30.37" height="30.37" fill="#fe3564"/><g transform="translate(668.17,151.86) scale(1.5185) rotate(0)"><path d="M10 5L5 0L0 5L5 10L0 15L5 20L10 15L15 20L20 15L15 10L20 5L15 0L10 5Z" fill="#a43c95"/></g><rect x="698.54" y="151.86" width="30.37" height="30.37" fill="#b06f18"/><g transform="translate(698.54,151.86) scale(1.5185) rotate(0)"><rect width="2" height="20" fill="#a43a9a"/><rect x="4" width="2" height="20" fill="#a43a9a"/><rect x="8" width="2" height="20" fill="#a43a9a"/><rect x="12" width="2" height="20" fill="#a43a9a"/><rect x="16" width="2" height="20" fill="#a43a9a"/></g><rect x="0" y="182.23" width="60.74" height="60.74" fill="#eb4451"/><g transform="translate(0,182.23) scale(3.037) rotate(0)"><path d="M19.9981 0.00193429L3.72652 -7.68637e-07L8.4784 4.75382L0 13.2345L6.76585 20L15.2462 11.5208L20 16.2746L19.9981 0.00193429Z" fill="#a12fb4"/></g><rect x="60.74" y="182.23" width="60.74" height="60.74" fill="#986349"/><g transform="translate(60.74,182.23) scale(3.037) rotate(0)"><path d="M19.9981 0.00193429L3.72652 -7.68637e-07L8.4784 4.75382L0 13.2345L6.76585 20L15.2462 11.5208L20 16.2746L19.9981 0.00193429Z" fill="#bb6822"/></g><rect x="121.49" y="182.23" width="60.74" height="60.74" fill="#de4d45"/><g transform="translate(121.49,182.23) scale(3.037) rotate(0)"><rect width="20" height="2" fill="#b37218"/><rect y="4" width="20" height="2" fill="#b37218"/><rect y="8" width="20" height="2" fill="#b37218"/><rect y="12" width="20" height="2" fill="#b37218"/><rect y="16" width="20" height="2" fill="#b37218"/></g><rect x="182.22857142857146" y="182.22857142857146" width="60.74285714285715" height="60.74285714285715" fill="#b07017"/><rect x="182.23" y="182.23" width="30.37" height="30.37" fill="#e69332"/><g transform="translate(182.23,182.23) scale(1.5185) rotate(0)"><path d="M10 1L12.2451 7.90983H19.5106L13.6327 12.1803L15.8779 19.0902L10 14.8197L4.12215 19.0902L6.36729 12.1803L0.489441 7.90983H7.75487L10 1Z" fill="#dd4e44"/></g><rect x="212.6" y="182.23" width="30.37" height="30.37" fill="#cb5c32"/><g transform="translate(212.6,182.23) scale(1.5185) rotate(0)"><path d="M19.9981 0.00193429L3.72652 -7.68637e-07L8.4784 4.75382L0 13.2345L6.76585 20L15.2462 11.5208L20 16.2746L19.9981 0.00193429Z" fill="#9e663d"/></g><rect x="182.23" y="212.6" width="30.37" height="30.37" fill="#a9535e"/><g transform="translate(182.23,212.6) scale(1.5185) rotate(0)"><path d="M10 5L5 0L0 5L5 10L0 15L5 20L10 15L15 20L20 15L15 10L20 5L15 0L10 5Z" fill="#9d1ddf"/></g><rect x="212.6" y="212.6" width="30.37" height="30.37" fill="#b26f19"/><circle cx="227.785" cy="227.785" r="15.185" fill="#a43c96"/><rect x="242.9714285714286" y="182.22857142857146" width="60.74285714285715" height="60.74285714285715" fill="#b07017"/><rect x="242.97" y="182.23" width="30.37" height="30.37" fill="#c67e22"/><circle cx="258.155" cy="197.415" r="15.185" fill="#8b5c63"/><rect x="273.34" y="182.23" width="30.37" height="30.37" fill="#ab594e"/><g transform="translate(273.34,182.23) scale(1.5185) rotate(0)"><rect width="20" height="2" fill="#a232ae"/><rect y="4" width="20" height="2" fill="#a232ae"/><rect y="8" width="20" height="2" fill="#a232ae"/><rect y="12" width="20" height="2" fill="#a232ae"/><rect y="16" width="20" height="2" fill="#a232ae"/></g><rect x="242.97" y="212.6" width="30.37" height="30.37" fill="#d4553b"/><g transform="translate(242.97,212.6) scale(1.5185) rotate(0)"><rect width="20" height="2" fill="#a84f68"/><rect y="4" width="20" height="2" fill="#a84f68"/><rect y="8" width="20" height="2" fill="#a84f68"/><rect y="12" width="20" height="2" fill="#a84f68"/><rect y="16" width="20" height="2" fill="#a84f68"/></g><rect x="273.34" y="212.6" width="30.37" height="30.37" fill="#b8751b"/><g transform="translate(273.34,212.6) scale(1.5185) rotate(0)"><path d="M19.9981 0.00193429L3.72652 -7.68637e-07L8.4784 4.75382L0 13.2345L6.76585 20L15.2462 11.5208L20 16.2746L19.9981 0.00193429Z" fill="#bb771c"/></g><rect x="303.7142857142857" y="182.22857142857146" width="60.74285714285715" height="60.74285714285715" fill="#b07017"/><rect x="303.71" y="182.23" width="30.37" height="30.37" fill="#ae6928"/><g transform="translate(303.71,182.23) scale(1.5185) rotate(0)"><rect width="2" height="20" fill="#fc3762"/><rect x="4" width="2" height="20" fill="#fc3762"/><rect x="8" width="2" height="20" fill="#fc3762"/><rect x="12" width="2" height="20" fill="#fc3762"/><rect x="16" width="2" height="20" fill="#fc3762"/></g><rect x="334.09" y="182.23" width="30.37" height="30.37" fill="#a66a2c"/><circle cx="349.275" cy="197.415" r="15.185" fill="#a76b29"/><rect x="303.71" y="212.6" width="30.37" height="30.37" fill="#ea4550"/><g transform="translate(303.71,212.6) scale(1.5185) rotate(0)"><path d="M10 5L5 0L0 5L5 10L0 15L5 20L10 15L15 20L20 15L15 10L20 5L15 0L10 5Z" fill="#855870"/></g><rect x="334.09" y="212.6" width="30.37" height="30.37" fill="#ae682a"/><g transform="translate(334.09,212.6) scale(1.5185) rotate(0)"><path d="M10 1L12.2451 7.90983H19.5106L13.6327 12.1803L15.8779 19.0902L10 14.8197L4.12215 19.0902L6.36729 12.1803L0.489441 7.90983H7.75487L10 1Z" fill="#c16328"/></g><rect x="364.4571428571429" y="182.22857142857146" width="60.74285714285715" height="60.74285714285715" fill="#b07017"/><rect x="364.46" y="182.23" width="30.37" height="30.37" fill="#95614e"/><g transform="translate(364.46,182.23) scale(1.5185) rotate(0)"><path d="M10 5L5 0L0 5L5 10L0 15L5 20L10 15L15 20L20 15L15 10L20 5L15 0L10 5Z" fill="#ad613b"/></g><rect x="394.83" y="182.23" width="30.37" height="30.37" fill="#ac6e20"/><g transform="translate(394.83,182.23) scale(1.5185) rotate(0)"><path d="M19.9981 0.00193429L3.72652 -7.68637e-07L8.4784 4.75382L0 13.2345L6.76585 20L15.2462 11.5208L20 16.2746L19.9981 0.00193429Z" fill="#d3563a"/></g><rect x="364.46" y="212.6" width="30.37" height="30.37" fill="#df8e2e"/><g transform="translate(364.46,212.6) scale(1.5185) rotate(0)"><path d="M19.9981 0.00193429L3.72652 -7.68637e-07L8.4784 4.75382L0 13.2345L6.76585 20L15.2462 11.5208L20 16.2746L19.9981 0.00193429Z" fill="#c3622a"/></g><rect x="394.83" y="212.6" width="30.37" height="30.37" fill="#a56a2e"/><g transform="translate(394.83,212.6) scale(1.5185) rotate(0)"><rect width="20" height="2" fill="#af6f1a"/><rect y="4" width="20" height="2" fill="#af6f1a"/><rect y="8" width="20" height="2" fill="#af6f1a"/><rect y="12" width="20" height="2" fill="#af6f1a"/><rect y="16" width="20" height="2" fill="#af6f1a"/></g><rect x="425.20000000000005" y="182.22857142857146" width="60.74285714285715" height="60.74285714285715" fill="#b07017"/><rect x="425.2" y="182.23" width="30.37" height="30.37" fill="#c77f22"/><g transform="translate(425.2,182.23) scale(1.5185) rotate(0)"><rect width="20" height="2" fill="#ac5e43"/><rect y="4" width="20" height="2" fill="#ac5e43"/><rect y="8" width="20" height="2" fill="#ac5e43"/><rect y="12" width="20" height="2" fill="#ac5e43"/><rect y="16" width="20" height="2" fill="#ac5e43"/></g><rect x="455.57" y="182.23" width="30.37" height="30.37" fill="#e89433"/><g transform="translate(455.57,182.23) scale(1.5185) rotate(0)"><path d="M10 5L5 0L0 5L5 10L0 15L5 20L10 15L15 20L20 15L15 10L20 5L15 0L10 5Z" fill="#db5041"/></g><rect x="425.2" y="212.6" width="30.37" height="30.37" fill="#dd4e44"/><g transform="translate(425.2,212.6) scale(1.5185) rotate(0)"><rect width="2" height="20" fill="#ba6821"/><rect x="4" width="2" height="20" fill="#ba6821"/><rect x="8" width="2" height="20" fill="#ba6821"/><rect x="12" width="2" height="20" fill="#ba6821"/><rect x="16" width="2" height="20" fill="#ba6821"/></g><rect x="455.57" y="212.6" width="30.37" height="30.37" fill="#af6f1a"/><g transform="translate(455.57,212.6) scale(1.5185) rotate(0)"><path d="M10 5L5 0L0 5L5 10L0 15L5 20L10 15L15 20L20 15L15 10L20 5L15 0L10 5Z" fill="#a66a2c"/></g><rect x="485.94" y="182.23" width="60.74" height="60.74" fill="#a64383"/><circle cx="516.31" cy="212.6" r="30.37" fill="#bd6624"/><rect x="546.69" y="182.23" width="60.74" height="60.74" fill="#b07018"/><g transform="translate(546.69,182.23) scale(3.037) rotate(0)"><path d="M19.9981 0.00193429L3.72652 -7.68637e-07L8.4784 4.75382L0 13.2345L6.76585 20L15.2462 11.5208L20 16.2746L19.9981 0.00193429Z" fill="#ae6f1b"/></g><rect x="607.43" y="182.23" width="60.74" height="60.74" fill="#9f24cf"/><circle cx="637.8" cy="212.6" r="30.37" fill="#885a6b"/><rect x="668.17" y="182.23" width="60.74" height="60.74" fill="#d38629"/><g transform="translate(668.17,182.23) scale(3.037) rotate(0)"><rect width="2" height="20" fill="#e94550"/><rect x="4" width="2" height="20" fill="#e94550"/><rect x="8" width="2" height="20" fill="#e94550"/><rect x="12" width="2" height="20" fill="#e94550"/><rect x="16" width="2" height="20" fill="#e94550"/></g><rect x="0" y="242.9714285714286" width="60.74285714285715" height="60.74285714285715" fill="#b07017"/><rect x="0" y="242.97" width="30.37" height="30.37" fill="#ba6921"/><g transform="translate(0,242.97) scale(1.5185) rotate(0)"><path d="M19.9981 0.00193429L3.72652 -7.68637e-07L8.4784 4.75382L0 13.2345L6.76585 20L15.2462 11.5208L20 16.2746L19.9981 0.00193429Z" fill="#a028c6"/></g><rect x="30.37" y="242.97" width="30.37" height="30.37" fill="#a02ac0"/><g transform="translate(30.37,242.97) scale(1.5185) rotate(0)"><path d="M10 1L12.2451 7.90983H19.5106L13.6327 12.1803L15.8779 19.0902L10 14.8197L4.12215 19.0902L6.36729 12.1803L0.489441 7.90983H7.75487L10 1Z" fill="#a46931"/></g><rect x="0" y="273.34" width="30.37" height="30.37" fill="#af6c22"/><circle cx="15.185" cy="288.525" r="15.185" fill="#9f24ce"/><rect x="30.37" y="273.34" width="30.37" height="30.37" fill="#d38629"/><g transform="translate(30.37,273.34) scale(1.5185) rotate(0)"><path d="M10 1L12.2451 7.90983H19.5106L13.6327 12.1803L15.8779 19.0902L10 14.8197L4.12215 19.0902L6.36729 12.1803L0.489441 7.90983H7.75487L10 1Z" fill="#a66b2b"/></g><rect x="60.74" y="242.97" width="60.74" height="60.74" fill="#a53f8d"/><g transform="translate(60.74,242.97) scale(3.037) rotate(0)"><path d="M10 1L12.2451 7.90983H19.5106L13.6327 12.1803L15.8779 19.0902L10 14.8197L4.12215 19.0902L6.36729 12.1803L0.489441 7.90983H7.75487L10 1Z" fill="#ea9534"/></g><rect x="121.49" y="242.97" width="60.74" height="60.74" fill="#d98a2b"/><g transform="translate(121.49,242.97) scale(3.037) rotate(0)"><path d="M10 1L12.2451 7.90983H19.5106L13.6327 12.1803L15.8779 19.0902L10 14.8197L4.12215 19.0902L6.36729 12.1803L0.489441 7.90983H7.75487L10 1Z" fill="#db5041"/></g><rect x="182.23" y="242.97" width="60.74" height="60.74" fill="#dd8d2e"/><g transform="translate(182.23,242.97) scale(3.037) rotate(0)"><path d="M10 5L5 0L0 5L5 10L0 15L5 20L10 15L15 20L20 15L15 10L20 5L15 0L10 5Z" fill="#a76b2a"/></g><rect x="242.97" y="242.97" width="60.74" height="60.74" fill="#a26834"/><g transform="translate(242.97,242.97) scale(3.037) rotate(0)"><rect width="2" height="20" fill="#a46930"/><rect x="4" width="2" height="20" fill="#a46930"/><rect x="8" width="2" height="20" fill="#a46930"/><rect x="12" width="2" height="20" fill="#a46930"/><rect x="16" width="2" height="20" fill="#a46930"/></g><rect x="303.71" y="242.97" width="60.74" height="60.74" fill="#e49131"/><g transform="translate(303.71,242.97) scale(3.037) rotate(0)"><path d="M19.9981 0.00193429L3.72652 -7.68637e-07L8.4784 4.75382L0 13.2345L6.76585 20L15.2462 11.5208L20 16.2746L19.9981 0.00193429Z" fill="#a94f67"/></g><rect x="364.46" y="242.97" width="60.74" height="60.74" fill="#a84d6d"/><g transform="translate(364.46,242.97) scale(3.037) rotate(0)"><path d="M10 1L12.2451 7.90983H19.5106L13.6327 12.1803L15.8779 19.0902L10 14.8197L4.12215 19.0902L6.36729 12.1803L0.489441 7.90983H7.75487L10 1Z" fill="#ea9534"/></g><rect x="425.2" y="242.97" width="60.74" height="60.74" fill="#9f663b"/><g transform="translate(425.2,242.97) scale(3.037) rotate(0)"><path d="M10 5L5 0L0 5L5 10L0 15L5 20L10 15L15 20L20 15L15 10L20 5L15 0L10 5Z" fill="#875a6c"/></g><rect x="485.94" y="242.97" width="60.74" height="60.74" fill="#936053"/><g transform="translate(485.94,242.97) scale(3.037) rotate(0)"><path d="M10 1L12.2451 7.90983H19.5106L13.6327 12.1803L15.8779 19.0902L10 14.8197L4.12215 19.0902L6.36729 12.1803L0.489441 7.90983H7.75487L10 1Z" fill="#c65f2d"/></g><rect x="546.69" y="242.97" width="60.74" height="60.74" fill="#b07017"/><g transform="translate(546.69,242.97) scale(3.037) rotate(0)"><rect width="2" height="20" fill="#f23f58"/><rect x="4" width="2" height="20" fill="#f23f58"/><rect x="8" width="2" height="20" fill="#f23f58"/><rect x="12" width="2" height="20" fill="#f23f58"/><rect x="16" width="2" height="20" fill="#f23f58"/></g><rect x="607.4285714285714" y="242.9714285714286" width="60.74285714285715" height="60.74285714285715" fill="#b07017"/><rect x="607.43" y="242.97" width="30.37" height="30.37" fill="#f83a5e"/><g transform="translate(607.43,242.97) scale(1.5185) rotate(0)"><path d="M10 1L12.2451 7.90983H19.5106L13.6327 12.1803L15.8779 19.0902L10 14.8197L4.12215 19.0902L6.36729 12.1803L0.489441 7.90983H7.75487L10 1Z" fill="#c85e2e"/></g><rect x="637.8" y="242.97" width="30.37" height="30.37" fill="#a66b2b"/><g transform="translate(637.8,242.97) scale(1.5185) rotate(0)"><rect width="20" height="2" fill="#e89433"/><rect y="4" width="20" height="2" fill="#e89433"/><rect y="8" width="20" height="2" fill="#e89433"/><rect y="12" width="20" height="2" fill="#e89433"/><rect y="16" width="20" height="2" fill="#e89433"/></g><rect x="607.43" y="273.34" width="30.37" height="30.37" fill="#9d1ede"/><g transform="translate(607.43,273.34) scale(1.5185) rotate(0)"><path d="M10 5L5 0L0 5L5 10L0 15L5 20L10 15L15 20L20 15L15 10L20 5L15 0L10 5Z" fill="#a84e6a"/></g><rect x="637.8" y="273.34" width="30.37" height="30.37" fill="#98624a"/><g transform="translate(637.8,273.34) scale(1.5185) rotate(0)"><rect width="2" height="20" fill="#c5612b"/><rect x="4" width="2" height="20" fill="#c5612b"/><rect x="8" width="2" height="20" fill="#c5612b"/><rect x="12" width="2" height="20" fill="#c5612b"/><rect x="16" width="2" height="20" fill="#c5612b"/></g><rect x="668.17" y="242.97" width="60.74" height="60.74" fill="#ae6531"/><g transform="translate(668.17,242.97) scale(3.037) rotate(0)"><path d="M10 5L5 0L0 5L5 10L0 15L5 20L10 15L15 20L20 15L15 10L20 5L15 0L10 5Z" fill="#c26229"/></g><rect x="0" y="303.71" width="60.74" height="60.74" fill="#ac5d46"/><g transform="translate(0,303.71) scale(3.037) rotate(0)"><path d="M10 1L12.2451 7.90983H19.5106L13.6327 12.1803L15.8779 19.0902L10 14.8197L4.12215 19.0902L6.36729 12.1803L0.489441 7.90983H7.75487L10 1Z" fill="#c5602c"/></g><rect x="60.74" y="303.71" width="60.74" height="60.74" fill="#b07018"/><g transform="translate(60.74,303.71) scale(3.037) rotate(0)"><path d="M19.9981 0.00193429L3.72652 -7.68637e-07L8.4784 4.75382L0 13.2345L6.76585 20L15.2462 11.5208L20 16.2746L19.9981 0.00193429Z" fill="#9a6444"/></g><rect x="121.49" y="303.71" width="60.74" height="60.74" fill="#845873"/><g transform="translate(121.49,303.71) scale(3.037) rotate(0)"><path d="M19.9981 0.00193429L3.72652 -7.68637e-07L8.4784 4.75382L0 13.2345L6.76585 20L15.2462 11.5208L20 16.2746L19.9981 0.00193429Z" fill="#e39030"/></g><rect x="182.23" y="303.71" width="60.74" height="60.74" fill="#a12cbc"/><g transform="translate(182.23,303.71) scale(3.037) rotate(0)"><path d="M19.9981 0.00193429L3.72652 -7.68637e-07L8.4784 4.75382L0 13.2345L6.76585 20L15.2462 11.5208L20 16.2746L19.9981 0.00193429Z" fill="#ab5851"/></g><rect x="242.97" y="303.71" width="60.74" height="60.74" fill="#cb8125"/><g transform="translate(242.97,303.71) scale(3.037) rotate(0)"><path d="M19.9981 0.00193429L3.72652 -7.68637e-07L8.4784 4.75382L0 13.2345L6.76585 20L15.2462 11.5208L20 16.2746L19.9981 0.00193429Z" fill="#a56a2d"/></g><rect x="303.71" y="303.71" width="60.74" height="60.74" fill="#9e663c"/><g transform="translate(303.71,303.71) scale(3.037) rotate(0)"><path d="M10 1L12.2451 7.90983H19.5106L13.6327 12.1803L15.8779 19.0902L10 14.8197L4.12215 19.0902L6.36729 12.1803L0.489441 7.90983H7.75487L10 1Z" fill="#be791e"/></g><rect x="364.46" y="303.71" width="60.74" height="60.74" fill="#e08f2f"/><g transform="translate(364.46,303.71) scale(3.037) rotate(0)"><rect width="2" height="20" fill="#a230b3"/><rect x="4" width="2" height="20" fill="#a230b3"/><rect x="8" width="2" height="20" fill="#a230b3"/><rect x="12" width="2" height="20" fill="#a230b3"/><rect x="16" width="2" height="20" fill="#a230b3"/></g><rect x="425.20000000000005" y="303.7142857142857" width="60.74285714285715" height="60.74285714285715" fill="#b07017"/><rect x="425.2" y="303.71" width="30.37" height="30.37" fill="#9e22d4"/><g transform="translate(425.2,303.71) scale(1.5185) rotate(0)"><path d="M10 5L5 0L0 5L5 10L0 15L5 20L10 15L15 20L20 15L15 10L20 5L15 0L10 5Z" fill="#ae6630"/></g><rect x="455.57" y="303.71" width="30.37" height="30.37" fill="#855871"/><g transform="translate(455.57,303.71) scale(1.5185) rotate(0)"><path d="M19.9981 0.00193429L3.72652 -7.68637e-07L8.4784 4.75382L0 13.2345L6.76585 20L15.2462 11.5208L20 16.2746L19.9981 0.00193429Z" fill="#b16f18"/></g><rect x="425.2" y="334.09" width="30.37" height="30.37" fill="#b9761b"/><g transform="translate(425.2,334.09) scale(1.5185) rotate(0)"><path d="M10 5L5 0L0 5L5 10L0 15L5 20L10 15L15 20L20 15L15 10L20 5L15 0L10 5Z" fill="#a95161"/></g><rect x="455.57" y="334.09" width="30.37" height="30.37" fill="#e79333"/><circle cx="470.755" cy="349.275" r="15.185" fill="#da5140"/><rect x="485.94" y="303.71" width="60.74" height="60.74" fill="#a53e90"/><circle cx="516.31" cy="334.08" r="30.37" fill="#ae6f1a"/><rect x="546.69" y="303.71" width="60.74" height="60.74" fill="#a84d6c"/><g transform="translate(546.69,303.71) scale(3.037) rotate(0)"><path d="M10 1L12.2451 7.90983H19.5106L13.6327 12.1803L15.8779 19.0902L10 14.8197L4.12215 19.0902L6.36729 12.1803L0.489441 7.90983H7.75487L10 1Z" fill="#ef4155"/></g><rect x="607.43" y="303.71" width="60.74" height="60.74" fill="#a16737"/><g transform="translate(607.43,303.71) scale(3.037) rotate(0)"><path d="M19.9981 0.00193429L3.72652 -7.68637e-07L8.4784 4.75382L0 13.2345L6.76585 20L15.2462 11.5208L20 16.2746L19.9981 0.00193429Z" fill="#d05836"/></g><rect x="668.17" y="303.71" width="60.74" height="60.74" fill="#cf8427"/><g transform="translate(668.17,303.71) scale(3.037) rotate(0)"><rect width="20" height="2" fill="#ab6d22"/><rect y="4" width="20" height="2" fill="#ab6d22"/><rect y="8" width="20" height="2" fill="#ab6d22"/><rect y="12" width="20" height="2" fill="#ab6d22"/><rect y="16" width="20" height="2" fill="#ab6d22"/></g><rect x="0" y="364.4571428571429" width="60.74285714285715" height="60.74285714285715" fill="#b07017"/><rect x="0" y="364.46" width="30.37" height="30.37" fill="#dd8c2d"/><g transform="translate(0,364.46) scale(1.5185) rotate(0)"><path d="M19.9981 0.00193429L3.72652 -7.68637e-07L8.4784 4.75382L0 13.2345L6.76585 20L15.2462 11.5208L20 16.2746L19.9981 0.00193429Z" fill="#af6d1f"/></g><rect x="30.37" y="364.46" width="30.37" height="30.37" fill="#d6882a"/><g transform="translate(30.37,364.46) scale(1.5185) rotate(0)"><path d="M10 5L5 0L0 5L5 10L0 15L5 20L10 15L15 20L20 15L15 10L20 5L15 0L10 5Z" fill="#aa6d22"/></g><rect x="0" y="394.83" width="30.37" height="30.37" fill="#f93a5f"/><g transform="translate(0,394.83) scale(1.5185) rotate(0)"><rect width="20" height="2" fill="#b16f18"/><rect y="4" width="20" height="2" fill="#b16f18"/><rect y="8" width="20" height="2" fill="#b16f18"/><rect y="12" width="20" height="2" fill="#b16f18"/><rect y="16" width="20" height="2" fill="#b16f18"/></g><rect x="30.37" y="394.83" width="30.37" height="30.37" fill="#8e5d5e"/><g transform="translate(30.37,394.83) scale(1.5185) rotate(0)"><path d="M19.9981 0.00193429L3.72652 -7.68637e-07L8.4784 4.75382L0 13.2345L6.76585 20L15.2462 11.5208L20 16.2746L19.9981 0.00193429Z" fill="#e5484c"/></g><rect x="60.74" y="364.46" width="60.74" height="60.74" fill="#8e5d5d"/><g transform="translate(60.74,364.46) scale(3.037) rotate(0)"><path d="M10 5L5 0L0 5L5 10L0 15L5 20L10 15L15 20L20 15L15 10L20 5L15 0L10 5Z" fill="#da5140"/></g><rect x="121.49" y="364.46" width="60.74" height="60.74" fill="#d6533d"/><g transform="translate(121.49,364.46) scale(3.037) rotate(0)"><path d="M10 5L5 0L0 5L5 10L0 15L5 20L10 15L15 20L20 15L15 10L20 5L15 0L10 5Z" fill="#a335a7"/></g><rect x="182.23" y="364.46" width="60.74" height="60.74" fill="#d08527"/><g transform="translate(182.23,364.46) scale(3.037) rotate(0)"><path d="M10 1L12.2451 7.90983H19.5106L13.6327 12.1803L15.8779 19.0902L10 14.8197L4.12215 19.0902L6.36729 12.1803L0.489441 7.90983H7.75487L10 1Z" fill="#855871"/></g><rect x="242.97" y="364.46" width="60.74" height="60.74" fill="#b96a20"/><g transform="translate(242.97,364.46) scale(3.037) rotate(0)"><path d="M10 1L12.2451 7.90983H19.5106L13.6327 12.1803L15.8779 19.0902L10 14.8197L4.12215 19.0902L6.36729 12.1803L0.489441 7.90983H7.75487L10 1Z" fill="#936054"/></g><rect x="303.71" y="364.46" width="60.74" height="60.74" fill="#9f6739"/><g transform="translate(303.71,364.46) scale(3.037) rotate(0)"><path d="M10 5L5 0L0 5L5 10L0 15L5 20L10 15L15 20L20 15L15 10L20 5L15 0L10 5Z" fill="#a53e8f"/></g><rect x="364.46" y="364.46" width="60.74" height="60.74" fill="#e49131"/><g transform="translate(364.46,364.46) scale(3.037) rotate(0)"><path d="M19.9981 0.00193429L3.72652 -7.68637e-07L8.4784 4.75382L0 13.2345L6.76585 20L15.2462 11.5208L20 16.2746L19.9981 0.00193429Z" fill="#dd4f43"/></g><rect x="425.20000000000005" y="364.4571428571429" width="60.74285714285715" height="60.74285714285715" fill="#b07017"/><rect x="425.2" y="364.46" width="30.37" height="30.37" fill="#9e22d3"/><g transform="translate(425.2,364.46) scale(1.5185) rotate(0)"><path d="M10 1L12.2451 7.90983H19.5106L13.6327 12.1803L15.8779 19.0902L10 14.8197L4.12215 19.0902L6.36729 12.1803L0.489441 7.90983H7.75487L10 1Z" fill="#a231b1"/></g><rect x="455.57" y="364.46" width="30.37" height="30.37" fill="#9b6443"/><g transform="translate(455.57,364.46) scale(1.5185) rotate(0)"><path d="M10 5L5 0L0 5L5 10L0 15L5 20L10 15L15 20L20 15L15 10L20 5L15 0L10 5Z" fill="#9f26cc"/></g><rect x="425.2" y="394.83" width="30.37" height="30.37" fill="#da8b2c"/><g transform="translate(425.2,394.83) scale(1.5185) rotate(0)"><rect width="20" height="2" fill="#a36931"/><rect y="4" width="20" height="2" fill="#a36931"/><rect y="8" width="20" height="2" fill="#a36931"/><rect y="12" width="20" height="2" fill="#a36931"/><rect y="16" width="20" height="2" fill="#a36931"/></g><rect x="455.57" y="394.83" width="30.37" height="30.37" fill="#d28528"/><g transform="translate(455.57,394.83) scale(1.5185) rotate(0)"><rect width="2" height="20" fill="#ac603e"/><rect x="4" width="2" height="20" fill="#ac603e"/><rect x="8" width="2" height="20" fill="#ac603e"/><rect x="12" width="2" height="20" fill="#ac603e"/><rect x="16" width="2" height="20" fill="#ac603e"/></g><rect x="485.9428571428572" y="364.4571428571429" width="60.74285714285715" height="60.74285714285715" fill="#b07017"/><rect x="485.94" y="364.46" width="30.37" height="30.37" fill="#a43a9b"/><g transform="translate(485.94,364.46) scale(1.5185) rotate(0)"><path d="M10 1L12.2451 7.90983H19.5106L13.6327 12.1803L15.8779 19.0902L10 14.8197L4.12215 19.0902L6.36729 12.1803L0.489441 7.90983H7.75487L10 1Z" fill="#f43d5a"/></g><rect x="516.31" y="364.46" width="30.37" height="30.37" fill="#d98a2b"/><g transform="translate(516.31,364.46) scale(1.5185) rotate(0)"><path d="M19.9981 0.00193429L3.72652 -7.68637e-07L8.4784 4.75382L0 13.2345L6.76585 20L15.2462 11.5208L20 16.2746L19.9981 0.00193429Z" fill="#9a6446"/></g><rect x="485.94" y="394.83" width="30.37" height="30.37" fill="#9c6540"/><g transform="translate(485.94,394.83) scale(1.5185) rotate(0)"><path d="M10 1L12.2451 7.90983H19.5106L13.6327 12.1803L15.8779 19.0902L10 14.8197L4.12215 19.0902L6.36729 12.1803L0.489441 7.90983H7.75487L10 1Z" fill="#d7892a"/></g><rect x="516.31" y="394.83" width="30.37" height="30.37" fill="#bd6624"/><g transform="translate(516.31,394.83) scale(1.5185) rotate(0)"><path d="M10 1L12.2451 7.90983H19.5106L13.6327 12.1803L15.8779 19.0902L10 14.8197L4.12215 19.0902L6.36729 12.1803L0.489441 7.90983H7.75487L10 1Z" fill="#c95d30"/></g><rect x="546.69" y="364.46" width="60.74" height="60.74" fill="#8d5d60"/><g transform="translate(546.69,364.46) scale(3.037) rotate(0)"><path d="M10 1L12.2451 7.90983H19.5106L13.6327 12.1803L15.8779 19.0902L10 14.8197L4.12215 19.0902L6.36729 12.1803L0.489441 7.90983H7.75487L10 1Z" fill="#a64286"/></g><rect x="607.43" y="364.46" width="60.74" height="60.74" fill="#e9464f"/><circle cx="637.8" cy="394.83" r="30.37" fill="#9d653f"/><rect x="668.17" y="364.46" width="60.74" height="60.74" fill="#bb771c"/><g transform="translate(668.17,364.46) scale(3.037) rotate(0)"><path d="M10 5L5 0L0 5L5 10L0 15L5 20L10 15L15 20L20 15L15 10L20 5L15 0L10 5Z" fill="#c16328"/></g></g></svg>